EncodeSans-Bold.ufo
<glyph name="exclam" format="2">
  <advance width="596.6365454545455"/>
  <unicode hex="0021"/>
  <outline>
    <contour>
      <point x="202.51954545454547" y="468.04436363636364" type="line"/>
      <point x="397.63654545454546" y="468.04436363636364" type="line"/>
      <point x="468.061" y="964.6143636363636" type="line"/>
      <point x="468.061" y="1480.0" type="line"/>
      <point x="128.57554545454545" y="1480.0" type="line"/>
      <point x="128.57554545454545" y="964.6143636363636" type="line"/>
    </contour>
    <contour>
      <point x="298.31827272727276" y="-17.03909090909091" type="curve" smooth="yes"/>
      <point x="423.71472727272726" y="-17.03909090909091"/>
      <point x="505.32354545454547" y="56.93845454545455"/>
      <point x="505.32354545454547" y="167.44109090909092" type="curve" smooth="yes"/>
      <point x="505.32354545454547" y="277.9437272727273"/>
      <point x="426.53036363636363" y="352.5134545454546"/>
      <point x="298.31827272727276" y="352.5134545454546" type="curve" smooth="yes"/>
      <point x="170.10618181818182" y="352.5134545454546"/>
      <point x="91.313" y="280.7593636363637"/>
      <point x="91.313" y="167.44109090909092" type="curve" smooth="yes"/>
      <point x="91.313" y="54.12281818181818"/>
      <point x="172.9218181818182" y="-17.03909090909091"/>
    </contour>
  </outline>
</glyph>
<glyph name="numbersign" format="2">
  <advance width="1254.8600000000001"/>
  <unicode hex="0023"/>
  <outline>
    <contour>
      <point x="638.1172727272727" y="0.0" type="line"/>
      <point x="883.6140909090909" y="0.0" type="line"/>
      <point x="1037.614090909091" y="1480.0" type="line"/>
      <point x="792.1172727272727" y="1480.0" type="line"/>
    </contour>
    <contour>
      <point x="100.0" y="392.63709090909094" type="line"/>
      <point x="1154.8600000000001" y="392.63709090909094" type="line"/>
      <point x="1154.8600000000001" y="634.6143636363636" type="line"/>
      <point x="100.0" y="634.6143636363636" type="line"/>
    </contour>
    <contour>
      <point x="217.2459090909091" y="0.0" type="line"/>
      <point x="462.7427272727273" y="0.0" type="line"/>
      <point x="616.7427272727273" y="1480.0" type="line"/>
      <point x="371.2459090909091" y="1480.0" type="line"/>
    </contour>
    <contour>
      <point x="100.0" y="845.3856363636364" type="line"/>
      <point x="1154.8600000000001" y="845.3856363636364" type="line"/>
      <point x="1154.8600000000001" y="1087.3629090909092" type="line"/>
      <point x="100.0" y="1087.3629090909092" type="line"/>
    </contour>
  </outline>
</glyph>
<glyph name="dollar" format="2">
  <advance width="1153.5974545454546"/>
  <unicode hex="0024"/>
  <outline>
    <contour>
      <point x="495.72054545454546" y="-19.407818181818183" type="curve" smooth="yes"/>
      <point x="878.1114545454545" y="-19.407818181818183"/>
      <point x="1098.8655454545456" y="153.26809090909092"/>
      <point x="1098.8655454545456" y="437.0166363636364" type="curve" smooth="yes"/>
      <point x="1098.8655454545456" y="664.4300000000001"/>
      <point x="966.899090909091" y="797.5081818181818"/>
      <point x="679.7818181818182" y="868.3238181818182" type="curve" smooth="yes"/>
      <point x="568.5081818181818" y="896.9941818181818" type="line" smooth="yes"/>
      <point x="421.6811818181818" y="936.173"/>
      <point x="378.73136363636365" y="979.2345454545455"/>
      <point x="378.73136363636365" y="1066.0224545454546" type="curve" smooth="yes"/>
      <point x="378.73136363636365" y="1168.3634545454545"/>
      <point x="456.82645454545457" y="1237.0171818181818"/>
      <point x="702.0052727272728" y="1237.0171818181818" type="curve" smooth="yes"/>
      <point x="806.0052727272728" y="1237.0171818181818"/>
      <point x="928.1225454545454" y="1221.6093636363637"/>
      <point x="1022.5639090909091" y="1194.9445454545455" type="curve"/>
      <point x="1022.5639090909091" y="1459.3351818181818" type="line"/>
      <point x="928.7482727272727" y="1483.703909090909"/>
      <point x="805.8935454545455" y="1499.4078181818181"/>
      <point x="681.3684545454546" y="1499.4078181818181" type="curve" smooth="yes"/>
      <point x="258.96645454545455" y="1499.4078181818181"/>
      <point x="54.731909090909085" y="1330.9944545454546"/>
      <point x="54.731909090909085" y="1048.648181818182" type="curve" smooth="yes"/>
      <point x="54.731909090909085" y="821.5309090909091"/>
      <point x="188.10618181818182" y="687.4527272727273"/>
      <point x="448.48045454545456" y="622.7488181818181" type="curve" smooth="yes"/>
      <point x="559.7540909090909" y="594.0784545454545" type="line" smooth="yes"/>
      <point x="725.1397272727272" y="550.7879090909091"/>
      <point x="774.8660909090909" y="506.799"/>
      <point x="774.8660909090909" y="415.0110909090909" type="curve" smooth="yes"/>
      <point x="774.8660909090909" y="306.4130909090909"/>
      <point x="699.9218181818181" y="242.9828181818182"/>
      <point x="491.27363636363634" y="242.9828181818182" type="curve" smooth="yes"/>
      <point x="375.6032727272727" y="242.9828181818182"/>
      <point x="215.14527272727273" y="265.6140909090909"/>
      <point x="90.44136363636363" y="304.79845454545455" type="curve"/>
      <point x="90.44136363636363" y="40.407818181818186" type="line"/>
      <point x="211.2960909090909" y="2.111727272727273"/>
      <point x="359.63681818181817" y="-19.407818181818183"/>
    </contour>
    <contour>
      <point x="426.8380909090909" y="-240.0" type="line"/>
      <point x="727.3515454545454" y="-240.0" type="line"/>
      <point x="727.3515454545454" y="59.27363636363636" type="line"/>
      <point x="426.8380909090909" y="56.31272727272727" type="line"/>
    </contour>
    <contour>
      <point x="426.8380909090909" y="1437.7654545454545" type="line"/>
      <point x="727.3515454545454" y="1437.7654545454545" type="line"/>
      <point x="727.3515454545454" y="1720.0" type="line"/>
      <point x="426.8380909090909" y="1720.0" type="line"/>
    </contour>
  </outline>
</glyph>
<glyph name="percent" format="2">
  <advance width="2095.0773636363638"/>
  <unicode hex="0025"/>
  <note>
450
</note>
  <outline>
    <contour>
      <point x="585.1003636363637" y="0.0" type="line"/>
      <point x="846.1558181818182" y="0.0" type="line"/>
      <point x="1509.9769999999999" y="1480.0" type="line"/>
      <point x="1248.9215454545454" y="1480.0" type="line"/>
    </contour>
    <contour>
      <point x="485.05572727272727" y="569.5530909090909" type="curve" smooth="yes"/>
      <point x="722.888" y="569.5530909090909"/>
      <point x="886.4912727272728" y="719.7094545454545"/>
      <point x="886.4912727272728" y="1034.4804545454544" type="curve" smooth="yes"/>
      <point x="886.4912727272728" y="1349.2514545454546"/>
      <point x="723.7762727272727" y="1499.4078181818181"/>
      <point x="485.05572727272727" y="1499.4078181818181" type="curve" smooth="yes"/>
      <point x="246.3351818181818" y="1499.4078181818181"/>
      <point x="83.62018181818182" y="1349.2514545454546"/>
      <point x="83.62018181818182" y="1034.4804545454544" type="curve" smooth="yes"/>
      <point x="83.62018181818182" y="719.7094545454545"/>
      <point x="247.22345454545456" y="569.5530909090909"/>
    </contour>
    <contour>
      <point x="485.05572727272727" y="769.8153636363636" type="curve" smooth="yes"/>
      <point x="397.2567272727273" y="769.8153636363636"/>
      <point x="335.04436363636364" y="835.3238181818182"/>
      <point x="335.04436363636364" y="1035.0726363636363" type="curve" smooth="yes"/>
      <point x="335.04436363636364" y="1234.2292727272727"/>
      <point x="397.2567272727273" y="1299.1455454545455"/>
      <point x="485.05572727272727" y="1299.1455454545455" type="curve" smooth="yes"/>
      <point x="572.5586363636364" y="1299.1455454545455"/>
      <point x="635.0670909090909" y="1234.2292727272727"/>
      <point x="635.0670909090909" y="1033.8882727272728" type="curve" smooth="yes"/>
      <point x="635.0670909090909" y="834.1394545454546"/>
      <point x="572.5586363636364" y="769.8153636363636"/>
    </contour>
    <contour>
      <point x="1610.0216363636364" y="-18.0" type="curve" smooth="yes"/>
      <point x="1848.15" y="-18.0"/>
      <point x="2011.4571818181819" y="132.15636363636364"/>
      <point x="2011.4571818181819" y="446.9273636363636" type="curve" smooth="yes"/>
      <point x="2011.4571818181819" y="761.6983636363636"/>
      <point x="1848.4460909090908" y="911.8547272727272"/>
      <point x="1610.0216363636364" y="911.8547272727272" type="curve" smooth="yes"/>
      <point x="1371.5971818181818" y="911.8547272727272"/>
      <point x="1208.586090909091" y="761.6983636363636"/>
      <point x="1208.586090909091" y="446.9273636363636" type="curve" smooth="yes"/>
      <point x="1208.586090909091" y="132.15636363636364"/>
      <point x="1371.8932727272727" y="-18.0"/>
    </contour>
    <contour>
      <point x="1610.0216363636364" y="182.26227272727272" type="curve" smooth="yes"/>
      <point x="1522.5187272727271" y="182.26227272727272"/>
      <point x="1460.0102727272729" y="247.77072727272727"/>
      <point x="1460.0102727272729" y="447.51954545454544" type="curve" smooth="yes"/>
      <point x="1460.0102727272729" y="646.6761818181818"/>
      <point x="1522.5187272727271" y="711.5924545454545"/>
      <point x="1610.0216363636364" y="711.5924545454545" type="curve" smooth="yes"/>
      <point x="1697.5245454545454" y="711.5924545454545"/>
      <point x="1760.033" y="646.6761818181818"/>
      <point x="1760.033" y="446.3351818181818" type="curve" smooth="yes"/>
      <point x="1760.033" y="246.58636363636364"/>
      <point x="1697.5245454545454" y="182.26227272727272"/>
    </contour>
  </outline>
</glyph>
<glyph name="ampersand" format="2">
  <advance width="1602.9381818181819"/>
  <unicode hex="0026"/>
  <outline>
    <contour>
      <point x="1454.944" y="-20.0" type="line"/>
      <point x="1602.9381818181819" y="217.1280909090909" type="line"/>
      <point x="727.6423636363636" y="805.4912727272728" type="line" smooth="yes"/>
      <point x="604.9717272727273" y="894.7205454545455"/>
      <point x="566.1616363636364" y="953.3742727272727"/>
      <point x="566.1616363636364" y="1037.9833636363637" type="curve" smooth="yes"/>
      <point x="566.1616363636364" y="1161.6595454545454"/>
      <point x="646.2231818181818" y="1237.0171818181818"/>
      <point x="886.0277272727272" y="1237.0171818181818" type="curve" smooth="yes"/>
      <point x="966.5081818181818" y="1237.0171818181818"/>
      <point x="1054.5863636363636" y="1226.6093636363637"/>
      <point x="1125.2511818181817" y="1210.9445454545455" type="curve"/>
      <point x="1125.2511818181817" y="1475.3351818181818" type="line"/>
      <point x="1047.9886363636365" y="1489.8156363636363"/>
      <point x="962.6534545454546" y="1499.4078181818181"/>
      <point x="862.2791818181818" y="1499.4078181818181" type="curve" smooth="yes"/>
      <point x="442.5084545454545" y="1499.4078181818181"/>
      <point x="242.1621818181818" y="1328.067090909091"/>
      <point x="242.1621818181818" y="1044.7263636363637" type="curve" smooth="yes"/>
      <point x="242.1621818181818" y="885.7319090909091"/>
      <point x="311.4191818181818" y="747.2459090909091"/>
      <point x="579.6481818181818" y="568.3631818181818" type="curve" smooth="yes"/>
    </contour>
    <contour>
      <point x="694.3407272727272" y="-18.0" type="curve" smooth="yes"/>
      <point x="1110.5863636363636" y="-18.0"/>
      <point x="1361.8990909090908" y="195.1228181818182"/>
      <point x="1361.8990909090908" y="611.2231818181818" type="curve" smooth="yes"/>
      <point x="1361.8990909090908" y="688.848909090909"/>
      <point x="1350.3069090909091" y="779.8098181818182"/>
      <point x="1328.346" y="862.7707272727273" type="curve"/>
      <point x="1071.1061818181818" y="862.7707272727273" type="line"/>
      <point x="1093.3631818181818" y="779.8098181818182"/>
      <point x="1106.5475454545453" y="686.848909090909"/>
      <point x="1106.5475454545453" y="608.4075454545455" type="curve" smooth="yes"/>
      <point x="1106.5475454545453" y="315.22318181818184"/>
      <point x="950.9218181818181" y="211.3069090909091"/>
      <point x="730.8322727272728" y="211.3069090909091" type="curve" smooth="yes"/>
      <point x="532.2342727272727" y="211.3069090909091"/>
      <point x="427.5023636363636" y="298.47463636363636"/>
      <point x="427.5023636363636" y="440.37981818181817" type="curve" smooth="yes"/>
      <point x="427.5023636363636" y="542.9553636363636"/>
      <point x="474.2342727272727" y="616.4973636363636"/>
      <point x="556.6925454545454" y="670.7879090909091" type="curve"/>
      <point x="389.87718181818184" y="796.0670909090909" type="line"/>
      <point x="226.65927272727274" y="738.5195454545454"/>
      <point x="104.91072727272727" y="598.4469090909091"/>
      <point x="104.91072727272727" y="404.8156363636364" type="curve" smooth="yes"/>
      <point x="104.91072727272727" y="149.77654545454544"/>
      <point x="303.6592727272727" y="-18.0"/>
    </contour>
  </outline>
</glyph>
<glyph name="quotesingle" format="2">
  <advance width="476.1003636363637"/>
  <unicode hex="0027"/>
  <outline>
    <contour>
      <point x="140.6201818181818" y="844.7823636363636" type="line"/>
      <point x="335.4801818181818" y="844.7823636363636" type="line"/>
      <point x="395.603" y="1616.0" type="line"/>
      <point x="80.49736363636363" y="1616.0" type="line"/>
    </contour>
  </outline>
</glyph>
<glyph name="parenleft" format="2">
  <advance width="716.1003636363637"/>
  <unicode hex="0028"/>
  <outline>
    <contour>
      <point x="445.9162727272727" y="-440.0" type="curve"/>
      <point x="779.7313636363637" y="-440.0" type="line"/>
      <point x="533.0274545454546" y="-135.743"/>
      <point x="431.0274545454546" y="194.77100000000002"/>
      <point x="431.0274545454546" y="588.0" type="curve" smooth="yes"/>
      <point x="431.0274545454546" y="981.229"/>
      <point x="533.0274545454546" y="1311.743"/>
      <point x="779.7313636363637" y="1616.0" type="curve"/>
      <point x="445.9162727272727" y="1616.0" type="line"/>
      <point x="203.285" y="1338.6368181818182"/>
      <point x="103.50845454545454" y="985.8211818181818"/>
      <point x="103.50845454545454" y="588.0" type="curve" smooth="yes"/>
      <point x="103.50845454545454" y="190.17881818181817"/>
      <point x="203.285" y="-162.63681818181817"/>
    </contour>
  </outline>
</glyph>
<glyph name="parenright" format="2">
  <advance width="716.1003636363637"/>
  <unicode hex="0029"/>
  <outline>
    <contour>
      <point x="-63.631" y="-440.0" type="curve"/>
      <point x="270.1840909090909" y="-440.0" type="line"/>
      <point x="512.8153636363636" y="-162.63681818181817"/>
      <point x="612.5919090909091" y="190.17881818181817"/>
      <point x="612.5919090909091" y="588.0" type="curve" smooth="yes"/>
      <point x="612.5919090909091" y="985.8211818181818"/>
      <point x="512.8153636363636" y="1338.6368181818182"/>
      <point x="270.1840909090909" y="1616.0" type="curve"/>
      <point x="-63.631" y="1616.0" type="line"/>
      <point x="183.0729090909091" y="1311.743"/>
      <point x="285.0729090909091" y="981.229"/>
      <point x="285.0729090909091" y="588.0" type="curve" smooth="yes"/>
      <point x="285.0729090909091" y="194.77100000000002"/>
      <point x="183.0729090909091" y="-135.743"/>
    </contour>
  </outline>
</glyph>
<glyph name="asterisk" format="2">
  <advance width="1005.9661818181818"/>
  <unicode hex="002A"/>
  <outline>
    <contour>
      <point x="621.8990909090909" y="1138.313" type="line"/>
      <point x="809.3404545454546" y="1163.7879090909091" type="line"/>
      <point x="975.9661818181818" y="1217.5644545454545" type="line"/>
      <point x="910.2120909090909" y="1419.0501818181817" type="line"/>
      <point x="744.1785454545454" y="1364.5697272727273" type="line"/>
      <point x="573.1840909090909" y="1271.0837272727272" type="line"/>
      <point x="608.8935454545455" y="1463.1172727272726" type="line"/>
      <point x="608.8935454545455" y="1616.0" type="line"/>
      <point x="397.0726363636364" y="1616.0" type="line"/>
      <point x="397.0726363636364" y="1463.1172727272726" type="line"/>
      <point x="432.7820909090909" y="1271.0837272727272" type="line"/>
      <point x="261.78763636363635" y="1364.5697272727273" type="line"/>
      <point x="95.7540909090909" y="1419.0501818181817" type="line"/>
      <point x="30.0" y="1217.5644545454545" type="line"/>
      <point x="196.62572727272726" y="1163.7879090909091" type="line"/>
      <point x="384.0670909090909" y="1138.313" type="line"/>
      <point x="245.028" y="1006.2459090909091" type="line"/>
      <point x="152.81009090909092" y="878.8436363636364" type="line"/>
      <point x="324.47463636363636" y="754.2628181818181" type="line"/>
      <point x="416.69254545454544" y="880.9611818181818" type="line"/>
      <point x="502.9830909090909" y="1064.8159090909091" type="line"/>
      <point x="589.2736363636363" y="880.9611818181818" type="line"/>
      <point x="681.4915454545454" y="754.2628181818181" type="line"/>
      <point x="853.1560909090908" y="878.8436363636364" type="line"/>
      <point x="760.9381818181819" y="1006.2459090909091" type="line"/>
    </contour>
  </outline>
</glyph>
<glyph name="plus" format="2">
  <advance width="1100.0110909090909"/>
  <unicode hex="002B"/>
  <outline>
    <contour>
      <point x="422.38563636363637" y="318.87163636363636" type="line"/>
      <point x="677.6254545454545" y="318.87163636363636" type="line"/>
      <point x="677.6254545454545" y="637.8996363636363" type="line"/>
      <point x="982.9886363636364" y="637.8996363636363" type="line"/>
      <point x="982.9886363636364" y="882.1003636363637" type="line"/>
      <point x="677.6254545454545" y="882.1003636363637" type="line"/>
      <point x="677.6254545454545" y="1201.1283636363637" type="line"/>
      <point x="422.38563636363637" y="1201.1283636363637" type="line"/>
      <point x="422.38563636363637" y="882.1003636363637" type="line"/>
      <point x="117.02245454545455" y="882.1003636363637" type="line"/>
      <point x="117.02245454545455" y="637.8996363636363" type="line"/>
      <point x="422.38563636363637" y="637.8996363636363" type="line"/>
    </contour>
  </outline>
</glyph>
<glyph name="comma" format="2">
  <advance width="556.6365454545455"/>
  <unicode hex="002C"/>
  <outline>
    <contour>
      <point x="145.257" y="-342.23454545454547" type="curve"/>
      <point x="327.22318181818184" y="-342.23454545454547" type="line"/>
      <point x="421.5359090909091" y="-214.4469090909091"/>
      <point x="483.9157272727273" y="-44.134181818181816"/>
      <point x="483.9157272727273" y="118.58081818181817" type="curve" smooth="yes"/>
      <point x="483.9157272727273" y="286.9828181818182"/>
      <point x="410.04990909090907" y="370.81509090909094"/>
      <point x="273.5026363636364" y="370.81509090909094" type="curve" smooth="yes"/>
      <point x="149.514" y="370.81509090909094"/>
      <point x="71.313" y="298.3570909090909"/>
      <point x="71.313" y="177.1840909090909" type="curve" smooth="yes"/>
      <point x="71.313" y="57.53063636363636"/>
      <point x="154.32963636363635" y="-17.03909090909091"/>
      <point x="278.31827272727276" y="-17.03909090909091" type="curve" smooth="yes"/>
      <point x="318.47463636363636" y="-17.03909090909091" type="line"/>
      <point x="249.0110909090909" y="40.156363636363636" type="line"/>
      <point x="249.0110909090909" y="-84.36872727272727"/>
      <point x="210.82118181818183" y="-200.0781818181818"/>
    </contour>
  </outline>
</glyph>
<glyph name="hyphen" format="2">
  <advance width="909.2176363636364"/>
  <unicode hex="002D"/>
  <outline>
    <contour>
      <point x="117.02245454545455" y="437.19572727272725" type="line"/>
      <point x="792.1951818181818" y="437.19572727272725" type="line"/>
      <point x="792.1951818181818" y="696.8824545454545" type="line"/>
      <point x="117.02245454545455" y="696.8824545454545" type="line"/>
    </contour>
  </outline>
</glyph>
<glyph name="period" format="2">
  <advance width="556.6365454545455"/>
  <unicode hex="002E"/>
  <outline>
    <contour>
      <point x="278.31827272727276" y="-17.03909090909091" type="curve" smooth="yes"/>
      <point x="403.71472727272726" y="-17.03909090909091"/>
      <point x="485.32354545454547" y="59.75409090909091"/>
      <point x="485.32354545454547" y="176.5919090909091" type="curve" smooth="yes"/>
      <point x="485.32354545454547" y="293.4297272727273"/>
      <point x="406.53036363636363" y="370.81509090909094"/>
      <point x="278.31827272727276" y="370.81509090909094" type="curve" smooth="yes"/>
      <point x="150.10618181818182" y="370.81509090909094"/>
      <point x="71.313" y="296.24536363636366"/>
      <point x="71.313" y="176.5919090909091" type="curve" smooth="yes"/>
      <point x="71.313" y="56.93845454545455"/>
      <point x="152.9218181818182" y="-17.03909090909091"/>
    </contour>
  </outline>
</glyph>
<glyph name="slash" format="2">
  <advance width="788.7089090909092"/>
  <unicode hex="002F"/>
  <outline>
    <contour>
      <point x="0.0" y="-240.0" type="line"/>
      <point x="314.66427272727276" y="-240.0" type="line"/>
      <point x="788.7089090909092" y="1616.0" type="line"/>
      <point x="474.04463636363636" y="1616.0" type="line"/>
    </contour>
  </outline>
</glyph>
<glyph name="zero" format="2">
  <advance width="1338.077909090909"/>
  <unicode hex="0030"/>
  <note>
600
</note>
  <outline>
    <contour>
      <point x="668.687" y="-19.407818181818183" type="curve" smooth="yes"/>
      <point x="1026.1896363636363" y="-19.407818181818183"/>
      <point x="1244.5694545454546" y="210.37981818181817"/>
      <point x="1244.5694545454546" y="740.0" type="curve" smooth="yes"/>
      <point x="1244.5694545454546" y="1269.620181818182"/>
      <point x="1027.374" y="1499.4078181818181"/>
      <point x="668.687" y="1499.4078181818181" type="curve" smooth="yes"/>
      <point x="310.0" y="1499.4078181818181"/>
      <point x="93.50845454545454" y="1269.620181818182"/>
      <point x="93.50845454545454" y="740.0" type="curve" smooth="yes"/>
      <point x="93.50845454545454" y="210.37981818181817"/>
      <point x="311.1843636363636" y="-19.407818181818183"/>
    </contour>
    <contour>
      <point x="669.3909090909091" y="247.20627272727273" type="curve" smooth="yes"/>
      <point x="506.8209090909091" y="247.20627272727273"/>
      <point x="413.28445454545454" y="362.26781818181814"/>
      <point x="413.28445454545454" y="741.1843636363636" type="curve" smooth="yes"/>
      <point x="413.28445454545454" y="1117.7321818181817"/>
      <point x="508.22872727272727" y="1232.7937272727272"/>
      <point x="669.3909090909091" y="1232.7937272727272" type="curve" smooth="yes"/>
      <point x="829.8491818181818" y="1232.7937272727272"/>
      <point x="924.7934545454546" y="1117.7321818181817"/>
      <point x="924.7934545454546" y="738.8156363636364" type="curve" smooth="yes"/>
      <point x="924.7934545454546" y="362.26781818181814"/>
      <point x="829.8491818181818" y="247.20627272727273"/>
    </contour>
  </outline>
</glyph>
<glyph name="one" format="2">
  <advance width="831.3795454545455"/>
  <unicode hex="0031"/>
  <outline>
    <contour>
      <point x="362.76545454545453" y="0.0" type="line"/>
      <point x="688.3961818181818" y="0.0" type="line"/>
      <point x="688.3961818181818" y="1485.4078181818181" type="line"/>
      <point x="478.8658181818182" y="1485.4078181818181" type="line"/>
      <point x="27.223454545454544" y="1172.4413636363636" type="line"/>
      <point x="27.223454545454544" y="868.0787272727273" type="line"/>
      <point x="478.8658181818182" y="1180.453" type="line"/>
      <point x="362.76545454545453" y="1290.7823636363637" type="line"/>
    </contour>
  </outline>
</glyph>
<glyph name="two" format="2">
  <advance width="1073.9661818181817"/>
  <unicode hex="0032"/>
  <outline>
    <contour>
      <point x="47.994454545454545" y="0.0" type="line"/>
      <point x="1020.8599999999999" y="0.0" type="line"/>
      <point x="1020.8599999999999" y="268.8375454545454" type="line"/>
      <point x="400.30109090909093" y="268.8375454545454" type="line"/>
      <point x="408.5580909090909" y="186.41309090909093" type="line"/>
      <point x="738.3515454545454" y="588.1843636363636" type="line" smooth="yes"/>
      <point x="896.5694545454546" y="779.9498181818182"/>
      <point x="949.6420909090909" y="921.285"/>
      <point x="949.9381818181819" y="1070.9107272727274" type="curve" smooth="yes"/>
      <point x="950.5303636363636" y="1368.514"/>
      <point x="758.9270909090909" y="1499.4078181818181"/>
      <point x="392.63681818181817" y="1499.4078181818181" type="curve" smooth="yes"/>
      <point x="269.4133636363636" y="1499.4078181818181"/>
      <point x="119.21790909090909" y="1475.5921818181819"/>
      <point x="29.586636363636362" y="1443.8156363636363" type="curve"/>
      <point x="29.586636363636362" y="1179.425" type="line"/>
      <point x="121.13972727272727" y="1214.4976363636363"/>
      <point x="240.73745454545454" y="1237.0171818181818"/>
      <point x="358.14527272727275" y="1237.0171818181818" type="curve" smooth="yes"/>
      <point x="549.4693636363636" y="1237.0171818181818"/>
      <point x="628.6426363636364" y="1174.357909090909"/>
      <point x="628.6426363636364" y="1039.3465454545455" type="curve" smooth="yes"/>
      <point x="628.6426363636364" y="942.3967272727273"/>
      <point x="582.9051818181819" y="842.8882727272727"/>
      <point x="456.76545454545453" y="684.2736363636363" type="curve" smooth="yes"/>
      <point x="47.994454545454545" y="174.44663636363637" type="line"/>
    </contour>
  </outline>
</glyph>
<glyph name="three" format="2">
  <advance width="1087.2567272727272"/>
  <unicode hex="0033"/>
  <outline>
    <contour>
      <point x="428.2680909090909" y="-19.407818181818183" type="curve" smooth="yes"/>
      <point x="830.1059090909091" y="-19.407818181818183"/>
      <point x="1026.8544545454545" y="142.15081818181818"/>
      <point x="1026.8544545454545" y="411.30163636363636" type="curve" smooth="yes"/>
      <point x="1026.8544545454545" y="616.2234545454545"/>
      <point x="906.0443636363636" y="739.7374545454545"/>
      <point x="691.2789090909091" y="772.1452727272728" type="curve"/>
      <point x="690.9828181818182" y="756.0" type="line"/>
      <point x="869.3795454545455" y="794.7765454545455"/>
      <point x="978.5583636363637" y="923.6257272727273"/>
      <point x="978.5583636363637" y="1102.620181818182" type="curve" smooth="yes"/>
      <point x="978.5583636363637" y="1355.1452727272726"/>
      <point x="797.402" y="1499.4078181818181"/>
      <point x="437.8211818181818" y="1499.4078181818181" type="curve" smooth="yes"/>
      <point x="312.1508181818182" y="1499.4078181818181"/>
      <point x="165.0670909090909" y="1477.5921818181819"/>
      <point x="68.84363636363636" y="1444.703909090909" type="curve"/>
      <point x="68.84363636363636" y="1201.4305454545454" type="line"/>
      <point x="169.21236363636365" y="1236.911"/>
      <point x="291.9218181818182" y="1256.7266363636363"/>
      <point x="402.62572727272726" y="1256.7266363636363" type="curve" smooth="yes"/>
      <point x="585.7599090909091" y="1256.7266363636363"/>
      <point x="667.1175454545455" y="1192.8494545454546"/>
      <point x="667.1175454545455" y="1073.759909090909" type="curve" smooth="yes"/>
      <point x="667.1175454545455" y="951.6032727272727"/>
      <point x="580.4358181818181" y="879.8769090909091"/>
      <point x="368.201" y="879.8769090909091" type="curve" smooth="yes"/>
      <point x="199.87163636363636" y="879.8769090909091" type="line"/>
      <point x="199.87163636363636" y="633.6761818181818" type="line"/>
      <point x="416.51954545454544" y="633.6761818181818" type="line" smooth="yes"/>
      <point x="636.502909090909" y="633.6761818181818"/>
      <point x="720.341" y="561.1732727272728"/>
      <point x="720.341" y="431.0110909090909" type="curve" smooth="yes"/>
      <point x="720.341" y="295.40754545454547"/>
      <point x="628.1341818181818" y="223.27336363636363"/>
      <point x="415.1899090909091" y="223.27336363636363" type="curve" smooth="yes"/>
      <point x="295.9273636363636" y="223.27336363636363"/>
      <point x="156.514" y="243.27336363636365"/>
      <point x="42.92181818181818" y="275.1225454545455" type="curve"/>
      <point x="42.92181818181818" y="31.84918181818182" type="line"/>
      <point x="159.18436363636363" y="-0.8156363636363639"/>
      <point x="290.4469090909091" y="-19.407818181818183"/>
    </contour>
  </outline>
</glyph>
<glyph name="four" format="2">
  <advance width="1273.0052727272728"/>
  <unicode hex="0034"/>
  <outline>
    <contour>
      <point x="37.10618181818182" y="304.45827272727274" type="line"/>
      <point x="1240.3795454545455" y="304.45827272727274" type="line"/>
      <point x="1240.3795454545455" y="555.698090909091" type="line"/>
      <point x="319.6531818181818" y="555.698090909091" type="line"/>
      <point x="355.3626363636364" y="481.12836363636364" type="line"/>
      <point x="865.4075454545455" y="1480.0" type="line"/>
      <point x="552.8940909090909" y="1480.0" type="line"/>
      <point x="37.10618181818182" y="481.72054545454546" type="line"/>
    </contour>
    <contour>
      <point x="757.3967272727273" y="0.0" type="line"/>
      <point x="1049.2398181818182" y="0.0" type="line"/>
      <point x="1049.2398181818182" y="980.0" type="line"/>
      <point x="789.6983636363636" y="980.0" type="line"/>
      <point x="757.3967272727273" y="555.698090909091" type="line"/>
    </contour>
  </outline>
</glyph>
<glyph name="five" format="2">
  <advance width="1099.7762727272727"/>
  <unicode hex="0035"/>
  <outline>
    <contour>
      <point x="455.2680909090909" y="-19.407818181818183" type="curve" smooth="yes"/>
      <point x="848.7707272727273" y="-19.407818181818183"/>
      <point x="1051.4466363636363" y="141.26254545454546"/>
      <point x="1052.1505454545454" y="441.6032727272727" type="curve" smooth="yes"/>
      <point x="1052.8544545454545" y="724.6088181818182"/>
      <point x="873.4075454545455" y="871.983090909091"/>
      <point x="424.54172727272726" y="897.3909090909091" type="curve" smooth="yes"/>
      <point x="236.7260909090909" y="907.687" type="line"/>
      <point x="427.39618181818184" y="793.4078181818181" type="line"/>
      <point x="466.06100000000004" y="1369.6090909090908" type="line"/>
      <point x="324.7707272727273" y="1229.4640909090908" type="line"/>
      <point x="992.2622727272727" y="1229.4640909090908" type="line"/>
      <point x="992.2622727272727" y="1480.0" type="line"/>
      <point x="167.36318181818183" y="1480.0" type="line"/>
      <point x="116.25145454545455" y="668.5253636363636" type="line"/>
      <point x="304.0670909090909" y="658.2292727272727" type="line" smooth="yes"/>
      <point x="656.1341818181818" y="637.637090909091"/>
      <point x="744.9331818181818" y="570.7599090909091"/>
      <point x="744.9331818181818" y="434.2680909090909" type="curve" smooth="yes"/>
      <point x="744.9331818181818" y="297.9270909090909"/>
      <point x="653.6146363636364" y="226.089"/>
      <point x="442.486" y="226.089" type="curve" smooth="yes"/>
      <point x="321.743" y="226.089"/>
      <point x="182.32963636363635" y="247.08900000000003"/>
      <point x="69.62572727272727" y="279.346" type="curve"/>
      <point x="69.62572727272727" y="36.07263636363636" type="line"/>
      <point x="185.0" y="1.5921818181818181"/>
      <point x="316.85472727272725" y="-19.407818181818183"/>
    </contour>
  </outline>
</glyph>
<glyph name="six" format="2">
  <advance width="1250.6756363636364"/>
  <unicode hex="0036"/>
  <outline>
    <contour>
      <point x="681.3518181818182" y="-19.407818181818183" type="curve" smooth="yes"/>
      <point x="996.7091818181818" y="-19.407818181818183"/>
      <point x="1197.2342727272728" y="153.49154545454547"/>
      <point x="1197.2342727272728" y="444.4189090909091" type="curve" smooth="yes"/>
      <point x="1197.2342727272728" y="753.0557272727273"/>
      <point x="994.7091818181818" y="889.944"/>
      <point x="724.1896363636364" y="889.944" type="curve" smooth="yes"/>
      <point x="585.2678181818183" y="889.944"/>
      <point x="443.9381818181818" y="843.0948181818181"/>
      <point x="367.20072727272725" y="763.7651818181819" type="curve"/>
      <point x="367.20072727272725" y="537.1677272727272" type="line"/>
      <point x="444.0108181818182" y="620.6761818181818"/>
      <point x="556.5137272727272" y="656.4136363636363"/>
      <point x="660.3573636363636" y="656.4136363636363" type="curve" smooth="yes"/>
      <point x="807.5921818181819" y="656.4136363636363"/>
      <point x="902.6872727272728" y="588.9442727272727"/>
      <point x="902.6872727272728" y="435.0837272727273" type="curve" smooth="yes"/>
      <point x="902.6872727272728" y="283.9270909090909"/>
      <point x="811.2960909090909" y="215.53036363636363"/>
      <point x="683.0557272727273" y="215.53036363636363" type="curve" smooth="yes"/>
      <point x="521.9326363636363" y="215.53036363636363"/>
      <point x="419.46881818181816" y="309.6980909090909"/>
      <point x="419.46881818181816" y="642.7263636363637" type="curve" smooth="yes"/>
      <point x="419.46881818181816" y="777.2065454545454" type="line" smooth="yes"/>
      <point x="419.46881818181816" y="1101.2237272727273"/>
      <point x="554.346" y="1251.0953636363636"/>
      <point x="834.7762727272727" y="1251.0953636363636" type="curve" smooth="yes"/>
      <point x="934.374" y="1251.0953636363636"/>
      <point x="1032.8935454545453" y="1236.6875454545454"/>
      <point x="1121.2678181818183" y="1205.3914545454545" type="curve"/>
      <point x="1121.2678181818183" y="1454.296090909091" type="line"/>
      <point x="1033.8935454545453" y="1487.4078181818181"/>
      <point x="929.9270909090909" y="1499.4078181818181"/>
      <point x="818.8824545454545" y="1499.4078181818181" type="curve" smooth="yes"/>
      <point x="361.70945454545455" y="1499.4078181818181"/>
      <point x="103.10063636363635" y="1236.8827272727274"/>
      <point x="103.10063636363635" y="692.0" type="curve" smooth="yes"/>
      <point x="103.10063636363635" y="187.9329090909091"/>
      <point x="336.9273636363636" y="-19.407818181818183"/>
    </contour>
  </outline>
</glyph>
<glyph name="seven" format="2">
  <advance width="1022.9270909090909"/>
  <unicode hex="0037"/>
  <outline>
    <contour>
      <point x="153.95536363636364" y="0.0" type="line"/>
      <point x="488.1056363636364" y="0.0" type="line"/>
      <point x="965.3349090909092" y="1305.5533636363637" type="line"/>
      <point x="965.3349090909092" y="1480.0" type="line"/>
      <point x="11.296090909090909" y="1480.0" type="line"/>
      <point x="11.296090909090909" y="1211.1624545454545" type="line"/>
      <point x="762.3296363636364" y="1211.1624545454545" type="line"/>
      <point x="655.0058181818182" y="1306.1455454545455" type="line"/>
    </contour>
  </outline>
</glyph>
<glyph name="eight" format="2">
  <advance width="1338.077909090909"/>
  <unicode hex="0038"/>
  <outline>
    <contour>
      <point x="673.3518181818182" y="-19.407818181818183" type="curve" smooth="yes"/>
      <point x="1060.5248181818183" y="-19.407818181818183"/>
      <point x="1254.8264545454545" y="161.56418181818182"/>
      <point x="1254.8264545454545" y="405.71500000000003" type="curve" smooth="yes"/>
      <point x="1254.8264545454545" y="620.9384545454545"/>
      <point x="1139.089" y="754.7205454545455"/>
      <point x="768.9661818181818" y="854.9495454545455" type="curve" smooth="yes"/>
      <point x="487.97172727272726" y="929.5808181818181"/>
      <point x="428.68672727272724" y="988.0501818181818"/>
      <point x="428.68672727272724" y="1100.1397272727272" type="curve" smooth="yes"/>
      <point x="428.68672727272724" y="1202.2628181818181"/>
      <point x="507.93263636363633" y="1275.0282727272727"/>
      <point x="683.1003636363637" y="1275.0282727272727" type="curve" smooth="yes"/>
      <point x="846.3016363636364" y="1275.0282727272727"/>
      <point x="932.8045454545454" y="1210.2628181818181"/>
      <point x="932.8045454545454" y="1093.324090909091" type="curve" smooth="yes"/>
      <point x="932.8045454545454" y="983.3071818181818"/>
      <point x="874.0726363636363" y="904.3518181818182"/>
      <point x="727.9049090909091" y="834.0221818181818" type="curve"/>
      <point x="922.6085454545455" y="751.6368181818182" type="line"/>
      <point x="1133.1336363636365" y="833.675909090909"/>
      <point x="1213.3850909090909" y="968.675909090909"/>
      <point x="1213.3850909090909" y="1124.5921818181819" type="curve" smooth="yes"/>
      <point x="1213.3850909090909" y="1357.4078181818181"/>
      <point x="1018.9326363636363" y="1499.4078181818181"/>
      <point x="686.9159999999999" y="1499.4078181818181" type="curve" smooth="yes"/>
      <point x="313.3296363636364" y="1499.4078181818181"/>
      <point x="121.5810909090909" y="1332.771"/>
      <point x="121.5810909090909" y="1088.285" type="curve" smooth="yes"/>
      <point x="121.5810909090909" y="874.8045454545454"/>
      <point x="244.65372727272728" y="720.6481818181818"/>
      <point x="613.6648181818182" y="628.1621818181818" type="curve" smooth="yes"/>
      <point x="880.324090909091" y="561.9778181818182"/>
      <point x="951.9442727272727" y="503.54200000000003"/>
      <point x="951.9442727272727" y="387.3407272727273" type="curve" smooth="yes"/>
      <point x="951.9442727272727" y="272.9215454545455"/>
      <point x="864.0726363636363" y="204.97172727272726"/>
      <point x="674.3518181818182" y="204.97172727272726" type="curve" smooth="yes"/>
      <point x="477.93263636363633" y="204.97172727272726"/>
      <point x="384.4297272727273" y="277.73718181818185"/>
      <point x="384.4297272727273" y="405.6759090909091" type="curve" smooth="yes"/>
      <point x="384.4297272727273" y="513.3576363636364"/>
      <point x="455.0834545454545" y="616.4582727272727"/>
      <point x="612.6254545454545" y="666.4191818181819" type="curve"/>
      <point x="400.8436363636364" y="747.285" type="line"/>
      <point x="193.9889090909091" y="680.5810909090909"/>
      <point x="80.43581818181818" y="543.8436363636364"/>
      <point x="80.43581818181818" y="369.1843636363636" type="curve" smooth="yes"/>
      <point x="80.43581818181818" y="140.00554545454546"/>
      <point x="264.6592727272727" y="-19.407818181818183"/>
    </contour>
  </outline>
</glyph>
<glyph name="less" format="2">
  <advance width="1100.0110909090909"/>
  <unicode hex="003C"/>
  <outline>
    <contour>
      <point x="982.9886363636364" y="279.29636363636365" type="line"/>
      <point x="982.9886363636364" y="525.8658181818182" type="line"/>
      <point x="295.75963636363633" y="779.743" type="line"/>
      <point x="295.75963636363633" y="743.7765454545455" type="line"/>
      <point x="982.9886363636364" y="994.1341818181818" type="line"/>
      <point x="982.9886363636364" y="1240.7036363636364" type="line"/>
      <point x="117.02245454545455" y="911.2958181818182" type="line"/>
      <point x="117.02245454545455" y="608.7041818181818" type="line"/>
    </contour>
  </outline>
</glyph>
<glyph name="equal" format="2">
  <advance width="1100.0110909090909"/>
  <unicode hex="003D"/>
  <outline>
    <contour>
      <point x="117.02245454545455" y="860.7263636363637" type="line"/>
      <point x="982.9886363636364" y="860.7263636363637" type="line"/>
      <point x="982.9886363636364" y="1104.927090909091" type="line"/>
      <point x="117.02245454545455" y="1104.927090909091" type="line"/>
    </contour>
    <contour>
      <point x="117.02245454545455" y="415.0729090909091" type="line"/>
      <point x="982.9886363636364" y="415.0729090909091" type="line"/>
      <point x="982.9886363636364" y="659.2736363636363" type="line"/>
      <point x="117.02245454545455" y="659.2736363636363" type="line"/>
    </contour>
  </outline>
</glyph>
<glyph name="question" format="2">
  <advance width="991.670090909091"/>
  <unicode hex="003F"/>
  <outline>
    <contour>
      <point x="345.9218181818182" y="463.30690909090913" type="line"/>
      <point x="541.0388181818182" y="463.30690909090913" type="line"/>
      <point x="564.4130909090909" y="677.9609090909091" type="line"/>
      <point x="808.8098181818182" y="753.542"/>
      <point x="941.0443636363636" y="884.8771818181818"/>
      <point x="941.0443636363636" y="1099.1006363636363" type="curve" smooth="yes"/>
      <point x="941.0443636363636" y="1355.1452727272726"/>
      <point x="759.888" y="1499.4078181818181"/>
      <point x="400.30718181818185" y="1499.4078181818181" type="curve" smooth="yes"/>
      <point x="274.63681818181817" y="1499.4078181818181"/>
      <point x="127.55309090909091" y="1477.5921818181819"/>
      <point x="31.329636363636364" y="1444.703909090909" type="curve"/>
      <point x="31.329636363636364" y="1194.3914545454545" type="line"/>
      <point x="131.69836363636364" y="1229.8719090909092"/>
      <point x="253.0" y="1249.6875454545454"/>
      <point x="363.4078181818182" y="1249.6875454545454" type="curve" smooth="yes"/>
      <point x="548.2459090909091" y="1249.6875454545454"/>
      <point x="629.6035454545455" y="1187.922090909091"/>
      <point x="629.6035454545455" y="1072.352090909091" type="curve" smooth="yes"/>
      <point x="629.6035454545455" y="960.8938181818182"/>
      <point x="555.6090909090909" y="885.201"/>
      <point x="290.98336363636366" y="830.659" type="curve"/>
    </contour>
    <contour>
      <point x="443.83227272727277" y="-17.03909090909091" type="curve" smooth="yes"/>
      <point x="569.8209090909091" y="-17.03909090909091"/>
      <point x="650.8375454545455" y="57.53063636363636"/>
      <point x="650.8375454545455" y="167.44109090909092" type="curve" smooth="yes"/>
      <point x="650.8375454545455" y="277.9437272727273"/>
      <point x="572.0443636363636" y="352.5134545454546"/>
      <point x="443.83227272727277" y="352.5134545454546" type="curve" smooth="yes"/>
      <point x="315.62018181818183" y="352.5134545454546"/>
      <point x="236.827" y="280.7593636363637"/>
      <point x="236.827" y="167.44109090909092" type="curve" smooth="yes"/>
      <point x="236.827" y="54.714999999999996"/>
      <point x="318.4358181818182" y="-17.03909090909091"/>
    </contour>
  </outline>
</glyph>
<glyph name="at" format="2">
  <advance width="2091.6362727272726"/>
  <unicode hex="0040"/>
  <outline>
    <contour>
      <point x="1092.2622727272728" y="-460.0" type="curve" smooth="yes"/>
      <point x="1249.0108181818182" y="-460.0"/>
      <point x="1401.6476363636364" y="-440.8156363636364"/>
      <point x="1546.0665454545456" y="-405.4078181818182" type="curve"/>
      <point x="1546.0665454545456" y="-198.0338181818182" type="line"/>
      <point x="1394.021909090909" y="-234.9220909090909"/>
      <point x="1247.5303636363637" y="-253.21818181818182"/>
      <point x="1092.2622727272728" y="-253.21818181818182" type="curve" smooth="yes"/>
      <point x="561.2902727272727" y="-253.21818181818182"/>
      <point x="324.44663636363634" y="-41.972272727272724"/>
      <point x="324.44663636363634" y="521.1843636363636" type="curve" smooth="yes"/>
      <point x="324.44663636363634" y="1080.1957272727273"/>
      <point x="560.6980909090909" y="1291.2181818181818"/>
      <point x="1053.7818181818182" y="1291.2181818181818" type="curve" smooth="yes"/>
      <point x="1547.2733636363637" y="1291.2181818181818"/>
      <point x="1782.4521818181818" y="1087.0113636363635"/>
      <point x="1785.2678181818183" y="572.3016363636364" type="curve" smooth="yes"/>
      <point x="1787.3795454545455" y="264.7651818181818"/>
      <point x="1716.2062727272728" y="187.374"/>
      <point x="1624.9548181818182" y="187.374" type="curve" smooth="yes"/>
      <point x="1562.222909090909" y="187.374"/>
      <point x="1526.965909090909" y="222.1840909090909"/>
      <point x="1526.965909090909" y="309.06127272727275" type="curve" smooth="yes"/>
      <point x="1526.965909090909" y="647.637090909091" type="line" smooth="yes"/>
      <point x="1526.965909090909" y="982.4358181818181"/>
      <point x="1371.8486363636364" y="1097.4078181818181"/>
      <point x="1030.927090909091" y="1097.4078181818181" type="curve" smooth="yes"/>
      <point x="917.8098181818182" y="1097.4078181818181"/>
      <point x="786.5081818181818" y="1078.296090909091"/>
      <point x="681.687" y="1043.4804545454544" type="curve"/>
      <point x="680.2791818181818" y="803.0227272727273" type="line"/>
      <point x="775.8322727272728" y="837.2070909090909"/>
      <point x="887.8713636363636" y="854.7266363636363"/>
      <point x="974.6143636363636" y="854.7266363636363" type="curve" smooth="yes"/>
      <point x="1147.5361818181818" y="854.7266363636363"/>
      <point x="1215.4133636363636" y="806.5813636363637"/>
      <point x="1215.4133636363636" y="661.0113636363636" type="curve" smooth="yes"/>
      <point x="1215.4133636363636" y="273.4970909090909" type="line"/>
      <point x="1168.7596363636364" y="224.70363636363635"/>
      <point x="1095.3293636363637" y="204.86"/>
      <point x="1041.6811818181818" y="204.86" type="curve" smooth="yes"/>
      <point x="954.9994545454545" y="204.86"/>
      <point x="897.2284545454545" y="244.55281818181817"/>
      <point x="897.2284545454545" y="330.0166363636364" type="curve" smooth="yes"/>
      <point x="897.2284545454545" y="415.63127272727274"/>
      <point x="949.9603636363636" y="457.95536363636364"/>
      <point x="1064.9381818181819" y="468.28499999999997" type="curve" smooth="yes"/>
      <point x="1300.8713636363636" y="488.1677272727273" type="line"/>
      <point x="1267.0837272727272" y="659.7540909090909" type="line"/>
      <point x="1034.2622727272728" y="639.8713636363636" type="line" smooth="yes"/>
      <point x="716.8322727272728" y="616.5026363636364"/>
      <point x="582.4915454545455" y="501.9049090909091"/>
      <point x="582.4915454545455" y="296.5641818181818" type="curve" smooth="yes"/>
      <point x="582.4915454545455" y="104.70945454545455"/>
      <point x="713.6423636363636" y="-20.223454545454544"/>
      <point x="937.3182727272728" y="-20.223454545454544" type="curve" smooth="yes"/>
      <point x="1059.7596363636362" y="-20.223454545454544"/>
      <point x="1174.7205454545456" y="21.106181818181817"/>
      <point x="1224.972" y="130.22345454545456" type="curve"/>
      <point x="1242.418909090909" y="130.22345454545456" type="line"/>
      <point x="1300.1339090909091" y="30.441363636363636"/>
      <point x="1403.9606363636362" y="-20.223454545454544"/>
      <point x="1554.0834545454545" y="-20.223454545454544" type="curve" smooth="yes"/>
      <point x="1820.4463636363637" y="-20.223454545454544"/>
      <point x="2007.8317272727272" y="142.36872727272728"/>
      <point x="2008.1278181818184" y="579.7094545454545" type="curve" smooth="yes"/>
      <point x="2008.423909090909" y="1196.0726363636363"/>
      <point x="1666.8877272727273" y="1498.0"/>
      <point x="1053.7818181818182" y="1498.0" type="curve" smooth="yes"/>
      <point x="441.3798181818182" y="1498.0"/>
      <point x="83.50845454545454" y="1196.0726363636363"/>
      <point x="83.50845454545454" y="520.0" type="curve" smooth="yes"/>
      <point x="83.50845454545454" y="-157.84918181818182"/>
      <point x="442.2680909090909" y="-459.70390909090906"/>
    </contour>
  </outline>
</glyph>
<glyph name="A" format="2">
  <advance width="1457.7538181818181"/>
  <unicode hex="0041"/>
  <note>
520
</note>
  <anchor x="729.173" y="0.0" name="bottom"/>
  <anchor x="1443.9828181818182" y="0.0" name="ogonek"/>
  <anchor x="728.4690909090909" y="1520.0" name="top"/>
  <outline>
    <contour>
      <point x="13.770999999999999" y="0.0" type="line"/>
      <point x="331.0274545454546" y="0.0" type="line"/>
      <point x="743.3964545454546" y="1337.9331818181818" type="line"/>
      <point x="709.5417272727273" y="1337.9331818181818" type="line"/>
      <point x="1123.3185454545455" y="0.0" type="line"/>
      <point x="1443.9828181818182" y="0.0" type="line"/>
      <point x="966.1558181818182" y="1480.0" type="line"/>
      <point x="491.598" y="1480.0" type="line"/>
    </contour>
    <contour>
      <point x="346.6479090909091" y="394.9611818181818" type="line"/>
      <point x="1108.994181818182" y="394.9611818181818" type="line"/>
      <point x="1039.7205454545456" y="653.8322727272728" type="line"/>
      <point x="416.62545454545455" y="653.8322727272728" type="line"/>
    </contour>
  </outline>
</glyph>
<glyph name="B" format="2">
  <advance width="1332.848909090909"/>
  <unicode hex="0042"/>
  <anchor x="681.0166363636364" y="0.0" name="bottom"/>
  <anchor x="681.0166363636364" y="1480.0" name="top"/>
  <outline>
    <contour>
      <point x="550.3407272727272" y="-17.03909090909091" type="curve" smooth="yes"/>
      <point x="1084.1840909090909" y="-17.03909090909091"/>
      <point x="1279.820909090909" y="138.85472727272727"/>
      <point x="1279.820909090909" y="415.4133636363636" type="curve" smooth="yes"/>
      <point x="1279.820909090909" y="623.0446363636364"/>
      <point x="1159.8544545454545" y="741.1843636363636"/>
      <point x="971.4297272727273" y="768.8882727272727" type="curve"/>
      <point x="970.5414545454546" y="756.0" type="line"/>
      <point x="1142.2622727272728" y="789.7039090909091"/>
      <point x="1238.9326363636364" y="920.9218181818181"/>
      <point x="1238.9326363636364" y="1086.067090909091" type="curve" smooth="yes"/>
      <point x="1238.9326363636364" y="1361.9609090909091"/>
      <point x="1049.2567272727274" y="1498.2234545454546"/>
      <point x="607.6814545454545" y="1498.2234545454546" type="curve" smooth="yes"/>
      <point x="446.71500000000003" y="1498.2234545454546"/>
      <point x="269.9162727272727" y="1477.0726363636363"/>
      <point x="132.98336363636363" y="1446.6257272727273" type="curve"/>
      <point x="132.98336363636363" y="12.111727272727272" type="line"/>
      <point x="261.20681818181816" y="-5.703909090909091"/>
      <point x="427.30163636363636" y="-17.03909090909091"/>
    </contour>
    <contour>
      <point x="636.8098181818182" y="220.71472727272726" type="curve" smooth="yes"/>
      <point x="573.820909090909" y="220.71472727272726"/>
      <point x="517.9772727272727" y="222.60299999999998"/>
      <point x="450.87109090909087" y="229.6756363636364" type="curve"/>
      <point x="450.87109090909087" y="1243.100909090909" type="line"/>
      <point x="510.64209090909094" y="1253.8774545454546"/>
      <point x="573.7091818181818" y="1260.4696363636363"/>
      <point x="649.6199090909091" y="1260.4696363636363" type="curve" smooth="yes"/>
      <point x="857.6201818181818" y="1260.4696363636363"/>
      <point x="933.4191818181819" y="1203.2572727272727"/>
      <point x="933.4191818181819" y="1069.1732727272727" type="curve" smooth="yes"/>
      <point x="933.4191818181819" y="941.2345454545455"/>
      <point x="861.6928181818182" y="878.4690909090909"/>
      <point x="662.687" y="878.4690909090909" type="curve" smooth="yes"/>
      <point x="416.56945454545456" y="878.4690909090909" type="line"/>
      <point x="416.56945454545456" y="634.3800909090909" type="line"/>
      <point x="693.9104545454545" y="634.3800909090909" type="line" smooth="yes"/>
      <point x="896.6592727272728" y="634.3800909090909"/>
      <point x="978.9387272727273" y="570.3185454545454"/>
      <point x="978.9387272727273" y="428.78763636363635" type="curve" smooth="yes"/>
      <point x="978.9387272727273" y="288.07236363636366"/>
      <point x="897.324090909091" y="220.71472727272726"/>
    </contour>
  </outline>
</glyph>
<glyph name="D" format="2">
  <advance width="1499.9717272727273"/>
  <unicode hex="0044"/>
  <anchor x="684.9104545454545" y="0.0" name="bottom"/>
  <anchor x="739.9830909090908" y="740.0" name="center"/>
  <anchor x="132.98336363636363" y="762.0" name="stroke"/>
  <anchor x="670.8322727272728" y="1520.0" name="top"/>
  <outline>
    <contour>
      <point x="538.972" y="-14.927363636363637" type="curve" smooth="yes"/>
      <point x="1126.117" y="-14.927363636363637"/>
      <point x="1416.4632727272729" y="210.03354545454545"/>
      <point x="1416.4632727272729" y="740.0" type="curve" smooth="yes"/>
      <point x="1416.4632727272729" y="1257.743"/>
      <point x="1140.0443636363636" y="1496.1117272727272"/>
      <point x="602.2065454545454" y="1496.1117272727272" type="curve" smooth="yes"/>
      <point x="444.9329090909091" y="1496.1117272727272"/>
      <point x="270.43581818181815" y="1477.0726363636363"/>
      <point x="132.98336363636363" y="1446.9218181818183" type="curve"/>
      <point x="132.98336363636363" y="8.592181818181817" type="line"/>
      <point x="269.72636363636366" y="-7.815636363636364"/>
      <point x="415.6703636363636" y="-14.927363636363637"/>
    </contour>
    <contour>
      <point x="623.3293636363636" y="249.575" type="curve" smooth="yes"/>
      <point x="565.2678181818183" y="249.575"/>
      <point x="513.4968181818182" y="251.05545454545455"/>
      <point x="458.6140909090909" y="256.4241818181818" type="curve"/>
      <point x="458.6140909090909" y="1218.0562727272727" type="line"/>
      <point x="510.37954545454545" y="1227.128909090909"/>
      <point x="574.4466363636363" y="1233.0171818181818"/>
      <point x="625.362909090909" y="1233.0171818181818" type="curve" smooth="yes"/>
      <point x="927.5866363636363" y="1233.0171818181818"/>
      <point x="1082.6090909090908" y="1094.9276363636363"/>
      <point x="1082.6090909090908" y="741.4078181818181" type="curve" smooth="yes"/>
      <point x="1082.6090909090908" y="384.29581818181816"/>
      <point x="931.2570000000001" y="249.575"/>
    </contour>
  </outline>
</glyph>
<glyph name="E" format="2">
  <advance width="1254.374"/>
  <unicode hex="0045"/>
  <anchor x="675.4189090909091" y="0.0" name="bottom"/>
  <anchor x="1095.6309999999999" y="0.0" name="ogonek"/>
  <anchor x="674.8267272727272" y="1520.0" name="top"/>
  <anchor x="38.88827272727273" y="1480.0" name="topleft"/>
  <outline>
    <contour>
      <point x="132.98336363636363" y="0.0" type="line"/>
      <point x="1182.670090909091" y="0.0" type="line"/>
      <point x="1182.670090909091" y="260.2789090909091" type="line"/>
      <point x="454.39063636363636" y="260.2789090909091" type="line"/>
      <point x="454.39063636363636" y="1219.721090909091" type="line"/>
      <point x="1172.670090909091" y="1219.721090909091" type="line"/>
      <point x="1172.670090909091" y="1480.0" type="line"/>
      <point x="132.98336363636363" y="1480.0" type="line"/>
    </contour>
    <contour>
      <point x="325.87690909090907" y="626.637090909091" type="line"/>
      <point x="1070.631" y="626.637090909091" type="line"/>
      <point x="1070.631" y="886.9159999999999" type="line"/>
      <point x="325.87690909090907" y="886.9159999999999" type="line"/>
    </contour>
  </outline>
</glyph>
<glyph name="F" format="2">
  <advance width="1213.374"/>
  <unicode hex="0046"/>
  <outline>
    <contour>
      <point x="132.98336363636363" y="0.0" type="line"/>
      <point x="458.6140909090909" y="0.0" type="line"/>
      <point x="458.6140909090909" y="1214.7937272727272" type="line"/>
      <point x="1169.7091818181818" y="1214.7937272727272" type="line"/>
      <point x="1169.7091818181818" y="1480.0" type="line"/>
      <point x="132.98336363636363" y="1480.0" type="line"/>
    </contour>
    <contour>
      <point x="340.1003636363636" y="590.0338181818181" type="line"/>
      <point x="1067.670090909091" y="590.0338181818181" type="line"/>
      <point x="1067.670090909091" y="855.2400909090909" type="line"/>
      <point x="340.1003636363636" y="855.2400909090909" type="line"/>
    </contour>
  </outline>
</glyph>
<glyph name="H" format="2">
  <advance width="1526.1114545454545"/>
  <unicode hex="0048"/>
  <anchor x="763.7596363636363" y="0.0" name="bottom"/>
  <anchor x="763.7596363636363" y="1189.9775454545454" name="center"/>
  <anchor x="763.7596363636363" y="1520.0" name="top"/>
  <anchor x="37.48045454545455" y="1480.0" name="topleft"/>
  <outline>
    <contour>
      <point x="132.98336363636363" y="0.0" type="line"/>
      <point x="458.6140909090909" y="0.0" type="line"/>
      <point x="458.6140909090909" y="613.2628181818181" type="line"/>
      <point x="1067.4973636363636" y="613.2628181818181" type="line"/>
      <point x="1067.4973636363636" y="0.0" type="line"/>
      <point x="1393.128090909091" y="0.0" type="line"/>
      <point x="1393.128090909091" y="1480.0" type="line"/>
      <point x="1067.4973636363636" y="1480.0" type="line"/>
      <point x="1067.4973636363636" y="900.2902727272727" type="line"/>
      <point x="458.6140909090909" y="900.2902727272727" type="line"/>
      <point x="458.6140909090909" y="1480.0" type="line"/>
      <point x="132.98336363636363" y="1480.0" type="line"/>
    </contour>
  </outline>
</glyph>
<glyph name="I" format="2">
  <advance width="591.5974545454545"/>
  <unicode hex="0049"/>
  <anchor x="295.0948181818182" y="0.0" name="bottom"/>
  <anchor x="458.6140909090909" y="0.0" name="ogonek"/>
  <anchor x="295.79872727272726" y="1520.0" name="top"/>
  <outline>
    <contour>
      <point x="132.98336363636363" y="0.0" type="line"/>
      <point x="458.6140909090909" y="0.0" type="line"/>
      <point x="458.6140909090909" y="1480.0" type="line"/>
      <point x="132.98336363636363" y="1480.0" type="line"/>
    </contour>
  </outline>
</glyph>
<glyph name="J" format="2">
  <advance width="591.5974545454545"/>
  <unicode hex="004A"/>
  <anchor x="474.0108181818182" y="0.0" name="bottom"/>
  <anchor x="296.5026363636364" y="1520.0" name="top"/>
  <outline>
    <contour>
      <point x="185.26227272727272" y="-349.85472727272725" type="line"/>
      <point x="385.87109090909087" y="-137.77654545454544"/>
      <point x="455.3570909090909" y="55.787636363636366"/>
      <point x="458.6140909090909" y="300.1619090909091" type="curve"/>
      <point x="458.6140909090909" y="1480.0" type="line"/>
      <point x="134.39118181818182" y="1480.0" type="line"/>
      <point x="134.39118181818182" y="298.6703636363636" type="line" smooth="yes"/>
      <point x="134.39118181818182" y="82.60327272727272"/>
      <point x="93.98890909090909" y="-55.83254545454545"/>
      <point x="-22.117272727272727" y="-211.38009090909088" type="curve"/>
    </contour>
  </outline>
</glyph>
<glyph name="K" format="2">
  <advance width="1330.117"/>
  <unicode hex="004B"/>
  <anchor x="696.9495454545454" y="0.0" name="bottom"/>
  <anchor x="690.6143636363636" y="1480.0" name="top"/>
  <outline>
    <contour>
      <point x="1022.1230909090909" y="0.0" type="line"/>
      <point x="1376.0163636363636" y="0.0" type="line"/>
      <point x="829.8932727272727" y="802.1563636363636" type="line"/>
      <point x="824.262" y="717.6201818181818" type="line"/>
      <point x="1333.3124545454546" y="1480.0" type="line"/>
      <point x="990.57" y="1480.0" type="line"/>
      <point x="505.5977272727273" y="753.7765454545455" type="line"/>
    </contour>
    <contour>
      <point x="132.98336363636363" y="0.0" type="line"/>
      <point x="458.6140909090909" y="0.0" type="line"/>
      <point x="458.6140909090909" y="1480.0" type="line"/>
      <point x="132.98336363636363" y="1480.0" type="line"/>
    </contour>
    <contour>
      <point x="413.04990909090907" y="613.2628181818181" type="line"/>
      <point x="634.0668181818182" y="613.2628181818181" type="line"/>
      <point x="634.0668181818182" y="899.9941818181818" type="line"/>
      <point x="413.04990909090907" y="899.9941818181818" type="line"/>
    </contour>
  </outline>
</glyph>
<glyph name="L" format="2">
  <advance width="1148.0723636363637"/>
  <unicode hex="004C"/>
  <anchor x="636.0837272727273" y="0.0" name="bottom"/>
  <anchor x="757.5081818181818" y="1616.0" name="caronalt"/>
  <anchor x="860.7427272727273" y="871.1394545454546" name="periodcentered"/>
  <anchor x="298.61436363636363" y="830.3127272727272" name="slash"/>
  <anchor x="298.61436363636363" y="1520.0" name="top"/>
  <outline>
    <contour>
      <point x="132.98336363636363" y="0.0" type="line"/>
      <point x="1138.5919090909092" y="0.0" type="line"/>
      <point x="1138.5919090909092" y="270.8375454545454" type="line"/>
      <point x="458.6140909090909" y="270.8375454545454" type="line"/>
      <point x="458.6140909090909" y="1480.0" type="line"/>
      <point x="132.98336363636363" y="1480.0" type="line"/>
    </contour>
  </outline>
</glyph>
<glyph name="M" format="2">
  <advance width="1877.8319999999999"/>
  <unicode hex="004D"/>
  <anchor x="959.3293636363636" y="0.0" name="bottom"/>
  <anchor x="959.3293636363636" y="1480.0" name="top"/>
  <outline>
    <contour>
      <point x="136.98336363636363" y="0.0" type="line"/>
      <point x="440.90463636363637" y="0.0" type="line"/>
      <point x="440.90463636363637" y="1195.3412727272728" type="line"/>
      <point x="362.78181818181815" y="1195.3412727272728" type="line"/>
      <point x="805.1843636363636" y="214.0781818181818" type="line"/>
      <point x="1072.6476363636364" y="214.0781818181818" type="line"/>
      <point x="1501.0837272727272" y="1195.3412727272728" type="line"/>
      <point x="1436.9273636363637" y="1195.3412727272728" type="line"/>
      <point x="1436.9273636363637" y="0.0" type="line"/>
      <point x="1740.8486363636364" y="0.0" type="line"/>
      <point x="1740.8486363636364" y="1480.0" type="line"/>
      <point x="1344.8660909090909" y="1480.0" type="line"/>
      <point x="924.916" y="502.30109090909093" type="line"/>
      <point x="963.9550909090909" y="502.30109090909093" type="line"/>
      <point x="532.9659090909091" y="1480.0" type="line"/>
      <point x="136.98336363636363" y="1480.0" type="line"/>
    </contour>
  </outline>
</glyph>
<glyph name="N" format="2">
  <advance width="1543.145"/>
  <unicode hex="004E"/>
  <anchor x="771.7205454545455" y="0.0" name="bottom"/>
  <anchor x="771.7205454545455" y="1520.0" name="top"/>
  <outline>
    <contour>
      <point x="132.98336363636363" y="0.0" type="line"/>
      <point x="439.0163636363636" y="0.0" type="line"/>
      <point x="439.0163636363636" y="1076.4923636363637" type="line"/>
      <point x="383.37954545454545" y="1076.4923636363637" type="line"/>
      <point x="1083.1621818181818" y="0.0" type="line"/>
      <point x="1410.1616363636363" y="0.0" type="line"/>
      <point x="1410.1616363636363" y="1480.0" type="line"/>
      <point x="1104.1286363636364" y="1480.0" type="line"/>
      <point x="1104.1286363636364" y="403.5076363636364" type="line"/>
      <point x="1159.7654545454545" y="403.5076363636364" type="line"/>
      <point x="459.9828181818182" y="1480.0" type="line"/>
      <point x="132.98336363636363" y="1480.0" type="line"/>
    </contour>
  </outline>
</glyph>
<glyph name="O" format="2">
  <advance width="1562.278909090909"/>
  <unicode hex="004F"/>
  <anchor x="781.1394545454546" y="0.0" name="bottom"/>
  <anchor x="781.1394545454546" y="740.0" name="center"/>
  <anchor x="951.698090909091" y="0.0" name="ogonek"/>
  <anchor x="781.1394545454546" y="1520.0" name="top"/>
  <anchor x="48.92736363636364" y="1480.0" name="topleft"/>
  <anchor x="973.9270909090909" y="1480.0" name="topright"/>
  <outline>
    <contour>
      <point x="781.1394545454546" y="-19.407818181818183" type="curve" smooth="yes"/>
      <point x="1202.3124545454546" y="-19.407818181818183"/>
      <point x="1478.7704545454546" y="225.972"/>
      <point x="1478.7704545454546" y="740.0" type="curve" smooth="yes"/>
      <point x="1478.7704545454546" y="1254.028"/>
      <point x="1203.9046363636362" y="1499.4078181818181"/>
      <point x="781.1394545454546" y="1499.4078181818181" type="curve" smooth="yes"/>
      <point x="359.26254545454543" y="1499.4078181818181"/>
      <point x="83.50845454545454" y="1255.4358181818181"/>
      <point x="83.50845454545454" y="740.0" type="curve" smooth="yes"/>
      <point x="83.50845454545454" y="224.56418181818182"/>
      <point x="359.0781818181818" y="-19.407818181818183"/>
    </contour>
    <contour>
      <point x="781.1394545454546" y="243.98281818181817" type="curve" smooth="yes"/>
      <point x="553.3069090909091" y="243.98281818181817"/>
      <point x="417.3626363636364" y="380.9717272727273"/>
      <point x="417.3626363636364" y="746.8156363636364" type="curve" smooth="yes"/>
      <point x="417.3626363636364" y="1099.0282727272727"/>
      <point x="555.4186363636363" y="1236.0171818181818"/>
      <point x="781.1394545454546" y="1236.0171818181818" type="curve" smooth="yes"/>
      <point x="1006.8602727272728" y="1236.0171818181818"/>
      <point x="1144.9162727272728" y="1096.9165454545455"/>
      <point x="1144.9162727272728" y="733.1843636363636" type="curve" smooth="yes"/>
      <point x="1144.9162727272728" y="383.0834545454546"/>
      <point x="1008.972" y="243.98281818181817"/>
    </contour>
  </outline>
</glyph>
<glyph name="P" format="2">
  <advance width="1317.0388181818182"/>
  <unicode hex="0050"/>
  <outline>
    <contour>
      <point x="132.98336363636363" y="0.0" type="line"/>
      <point x="458.6140909090909" y="0.0" type="line"/>
      <point x="458.6140909090909" y="433.26836363636363" type="line"/>
      <point x="507.346" y="430.8996363636364"/>
      <point x="550.117" y="428.60354545454544"/>
      <point x="601.6645454545455" y="428.60354545454544" type="curve" smooth="yes"/>
      <point x="1027.1840909090909" y="428.60354545454544"/>
      <point x="1244.0834545454545" y="612.1621818181818"/>
      <point x="1244.0834545454545" y="963.3576363636364" type="curve" smooth="yes"/>
      <point x="1244.0834545454545" y="1333.8491818181817"/>
      <point x="1021.5192727272728" y="1498.2234545454546"/>
      <point x="581.3853636363636" y="1498.2234545454546" type="curve" smooth="yes"/>
      <point x="417.1508181818182" y="1498.2234545454546"/>
      <point x="272.028" y="1480.5921818181819"/>
      <point x="132.98336363636363" y="1453.257" type="curve"/>
    </contour>
    <contour>
      <point x="605.3684545454546" y="673.3964545454546" type="curve" smooth="yes"/>
      <point x="549.820909090909" y="673.3964545454546"/>
      <point x="506.97727272727275" y="675.9886363636364"/>
      <point x="458.6140909090909" y="682.4690909090909" type="curve"/>
      <point x="458.6140909090909" y="1241.2852727272727" type="line"/>
      <point x="505.71472727272726" y="1249.654"/>
      <point x="551.1840909090909" y="1253.4305454545454"/>
      <point x="610.9495454545454" y="1253.4305454545454" type="curve" smooth="yes"/>
      <point x="826.5475454545455" y="1253.4305454545454"/>
      <point x="927.827" y="1166.2572727272727"/>
      <point x="927.827" y="961.0615454545455" type="curve" smooth="yes"/>
      <point x="927.827" y="757.0837272727273"/>
      <point x="827.7319090909091" y="673.3964545454546"/>
    </contour>
  </outline>
</glyph>
<glyph name="Q" format="2">
  <advance width="1562.278909090909"/>
  <unicode hex="0051"/>
  <outline>
    <contour>
      <point x="1405.871090909091" y="-316.55836363636365" type="curve"/>
      <point x="1459.5134545454546" y="-61.91072727272727" type="line"/>
      <point x="1227.9157272727273" y="-35.056"/>
      <point x="997.2173636363636" y="11.39090909090909"/>
      <point x="768.1616363636364" y="99.76518181818182" type="curve"/>
      <point x="667.5752727272727" y="19.452454545454547" type="line"/>
      <point x="1206.6085454545455" y="-50.257"/>
      <point x="1478.7704545454546" y="234.19545454545454"/>
      <point x="1478.7704545454546" y="740.0" type="curve" smooth="yes"/>
      <point x="1478.7704545454546" y="1255.8045454545454"/>
      <point x="1203.0163636363636" y="1499.4078181818181"/>
      <point x="781.1394545454546" y="1499.4078181818181" type="curve" smooth="yes"/>
      <point x="359.26254545454543" y="1499.4078181818181"/>
      <point x="83.50845454545454" y="1255.4358181818181"/>
      <point x="83.50845454545454" y="732.9609090909091" type="curve" smooth="yes"/>
      <point x="83.50845454545454" y="181.201"/>
      <point x="378.1508181818182" y="-162.9830909090909"/>
    </contour>
    <contour>
      <point x="781.1394545454546" y="243.98281818181817" type="curve" smooth="yes"/>
      <point x="551.8990909090909" y="243.98281818181817"/>
      <point x="417.3626363636364" y="379.5639090909091"/>
      <point x="417.3626363636364" y="746.8156363636364" type="curve" smooth="yes"/>
      <point x="417.3626363636364" y="1099.0282727272727"/>
      <point x="555.4186363636363" y="1236.0171818181818"/>
      <point x="781.1394545454546" y="1236.0171818181818" type="curve" smooth="yes"/>
      <point x="1006.8602727272728" y="1236.0171818181818"/>
      <point x="1144.9162727272728" y="1096.9165454545455"/>
      <point x="1144.9162727272728" y="733.1843636363636" type="curve" smooth="yes"/>
      <point x="1144.9162727272728" y="383.0834545454546"/>
      <point x="1008.972" y="243.98281818181817"/>
    </contour>
  </outline>
</glyph>
<glyph name="R" format="2">
  <advance width="1377.9215454545454"/>
  <unicode hex="0052"/>
  <anchor x="723.3518181818182" y="0.0" name="bottom"/>
  <anchor x="677.3182727272728" y="1520.0" name="top"/>
  <outline>
    <contour>
      <point x="132.98336363636363" y="0.0" type="line"/>
      <point x="452.9828181818182" y="0.0" type="line"/>
      <point x="452.9828181818182" y="547.6706363636364" type="line"/>
      <point x="504.4577272727273" y="545.1901818181818"/>
      <point x="549.86" y="542.598"/>
      <point x="609.2567272727273" y="542.598" type="curve" smooth="yes"/>
      <point x="998.9941818181818" y="542.598"/>
      <point x="1237.524818181818" y="706.0113636363636"/>
      <point x="1236.9326363636364" y="1022.3911818181818" type="curve" smooth="yes"/>
      <point x="1236.9326363636364" y="1347.8100909090908"/>
      <point x="1020.9941818181818" y="1498.2234545454546"/>
      <point x="595.6814545454546" y="1498.2234545454546" type="curve" smooth="yes"/>
      <point x="432.19545454545454" y="1498.2234545454546"/>
      <point x="266.36318181818183" y="1476.1843636363637"/>
      <point x="132.98336363636363" y="1446.9218181818183" type="curve"/>
    </contour>
    <contour>
      <point x="1004.8940909090909" y="0.0" type="line"/>
      <point x="1359.603" y="0.0" type="line"/>
      <point x="876.1782727272728" y="683.9944545454546" type="line"/>
      <point x="529.1006363636363" y="683.9944545454546" type="line"/>
    </contour>
    <contour>
      <point x="615.7036363636364" y="784.983090909091" type="curve" smooth="yes"/>
      <point x="554.7873636363636" y="784.983090909091"/>
      <point x="509.3069090909091" y="787.983090909091"/>
      <point x="452.9828181818182" y="793.5752727272727" type="curve"/>
      <point x="452.9828181818182" y="1242.804818181818" type="line"/>
      <point x="505.78736363636364" y="1252.1735454545455"/>
      <point x="560.670090909091" y="1258.357909090909"/>
      <point x="629.6925454545454" y="1258.357909090909" type="curve" smooth="yes"/>
      <point x="834.2459090909091" y="1258.357909090909"/>
      <point x="931.7152727272727" y="1186.922090909091"/>
      <point x="931.7152727272727" y="1021.502909090909" type="curve" smooth="yes"/>
      <point x="931.7152727272727" y="854.4133636363637"/>
      <point x="829.8045454545454" y="784.983090909091"/>
    </contour>
  </outline>
</glyph>
<glyph name="S" format="2">
  <advance width="1153.5974545454546"/>
  <unicode hex="0053"/>
  <anchor x="588.0221818181818" y="0.0" name="bottom"/>
  <anchor x="588.0221818181818" y="1520.0" name="top"/>
  <outline>
    <contour>
      <point x="503.46354545454545" y="-19.407818181818183" type="curve" smooth="yes"/>
      <point x="878.1114545454545" y="-19.407818181818183"/>
      <point x="1098.8655454545456" y="153.26809090909092"/>
      <point x="1098.8655454545456" y="437.0166363636364" type="curve" smooth="yes"/>
      <point x="1098.8655454545456" y="664.4300000000001"/>
      <point x="966.899090909091" y="797.5081818181818"/>
      <point x="679.7818181818182" y="868.3238181818182" type="curve" smooth="yes"/>
      <point x="568.5081818181818" y="896.9941818181818" type="line" smooth="yes"/>
      <point x="421.6811818181818" y="936.173"/>
      <point x="378.73136363636365" y="979.2345454545455"/>
      <point x="378.73136363636365" y="1066.0224545454546" type="curve" smooth="yes"/>
      <point x="378.73136363636365" y="1168.3634545454545"/>
      <point x="456.82645454545457" y="1237.0171818181818"/>
      <point x="689.3349090909092" y="1237.0171818181818" type="curve" smooth="yes"/>
      <point x="806.0052727272728" y="1237.0171818181818"/>
      <point x="928.1225454545454" y="1220.2015454545453"/>
      <point x="1022.5639090909091" y="1191.425" type="curve"/>
      <point x="1022.5639090909091" y="1455.8156363636363" type="line"/>
      <point x="928.7482727272727" y="1482.296090909091"/>
      <point x="804.4857272727272" y="1499.4078181818181"/>
      <point x="670.8098181818182" y="1499.4078181818181" type="curve" smooth="yes"/>
      <point x="258.96645454545455" y="1499.4078181818181"/>
      <point x="54.731909090909085" y="1330.9944545454546"/>
      <point x="54.731909090909085" y="1048.648181818182" type="curve" smooth="yes"/>
      <point x="54.731909090909085" y="821.5309090909091"/>
      <point x="188.10618181818182" y="687.4527272727273"/>
      <point x="448.48045454545456" y="622.7488181818181" type="curve" smooth="yes"/>
      <point x="559.7540909090909" y="594.0784545454545" type="line" smooth="yes"/>
      <point x="725.1397272727272" y="550.7879090909091"/>
      <point x="774.8660909090909" y="506.799"/>
      <point x="774.8660909090909" y="415.0110909090909" type="curve" smooth="yes"/>
      <point x="774.8660909090909" y="306.4130909090909"/>
      <point x="699.9218181818181" y="242.9828181818182"/>
      <point x="502.53618181818183" y="242.9828181818182" type="curve" smooth="yes"/>
      <point x="374.19545454545454" y="242.9828181818182"/>
      <point x="215.14527272727273" y="267.0219090909091"/>
      <point x="90.44136363636363" y="308.318" type="curve"/>
      <point x="90.44136363636363" y="43.92736363636364" type="line"/>
      <point x="211.2960909090909" y="3.5195454545454545"/>
      <point x="359.63681818181817" y="-19.407818181818183"/>
    </contour>
  </outline>
</glyph>
<glyph name="T" format="2">
  <advance width="1285.8655454545456"/>
  <unicode hex="0054"/>
  <anchor x="643.2847272727272" y="0.0" name="bottom"/>
  <anchor x="643.2847272727272" y="729.6090909090909" name="center"/>
  <anchor x="643.2847272727272" y="1520.0" name="top"/>
  <outline>
    <contour>
      <point x="479.76545454545453" y="0.0" type="line"/>
      <point x="806.1000909090909" y="0.0" type="line"/>
      <point x="806.1000909090909" y="1209.1624545454545" type="line"/>
      <point x="1272.5694545454546" y="1209.1624545454545" type="line"/>
      <point x="1272.5694545454546" y="1480.0" type="line"/>
      <point x="13.296090909090909" y="1480.0" type="line"/>
      <point x="13.296090909090909" y="1209.1624545454545" type="line"/>
      <point x="479.76545454545453" y="1209.1624545454545" type="line"/>
    </contour>
  </outline>
</glyph>
<glyph name="U" format="2">
  <advance width="1495.1840909090909"/>
  <unicode hex="0055"/>
  <anchor x="751.0557272727273" y="0.0" name="bottom"/>
  <anchor x="970.5248181818182" y="0.5921818181818181" name="ogonek"/>
  <anchor x="751.0557272727273" y="1520.0" name="top"/>
  <anchor x="1073.3185454545455" y="1480.0" name="topright"/>
  <outline>
    <contour>
      <point x="751.0557272727273" y="-19.407818181818183" type="curve" smooth="yes"/>
      <point x="1178.3013636363635" y="-19.407818181818183"/>
      <point x="1368.7929090909092" y="186.60327272727272"/>
      <point x="1368.7929090909092" y="613.4690909090909" type="curve" smooth="yes"/>
      <point x="1368.7929090909092" y="1480.0" type="line"/>
      <point x="1049.3856363636364" y="1480.0" type="line"/>
      <point x="1049.3856363636364" y="581.647909090909" type="line" smooth="yes"/>
      <point x="1049.3856363636364" y="346.04436363636364"/>
      <point x="951.1732727272727" y="247.91018181818183"/>
      <point x="751.0557272727273" y="247.91018181818183" type="curve" smooth="yes"/>
      <point x="550.9381818181819" y="247.91018181818183"/>
      <point x="452.02190909090905" y="346.04436363636364"/>
      <point x="452.02190909090905" y="581.647909090909" type="curve" smooth="yes"/>
      <point x="452.02190909090905" y="1480.0" type="line"/>
      <point x="126.39118181818182" y="1480.0" type="line"/>
      <point x="126.39118181818182" y="613.4690909090909" type="line" smooth="yes"/>
      <point x="126.39118181818182" y="186.60327272727272"/>
      <point x="318.88272727272727" y="-19.407818181818183"/>
    </contour>
  </outline>
</glyph>
<glyph name="V" format="2">
  <advance width="1431.8319999999999"/>
  <unicode hex="0056"/>
  <outline>
    <contour>
      <point x="475.341" y="0.0" type="line"/>
      <point x="956.491" y="0.0" type="line"/>
      <point x="1431.021909090909" y="1480.0" type="line"/>
      <point x="1113.6537272727273" y="1480.0" type="line"/>
      <point x="688.7987272727273" y="133.6199090909091" type="line"/>
      <point x="759.7036363636364" y="133.6199090909091" type="line"/>
      <point x="341.1838181818182" y="1480.0" type="line"/>
      <point x="0.8100909090909099" y="1480.0" type="line"/>
    </contour>
  </outline>
</glyph>
<glyph name="W" format="2">
  <advance width="2279.3346363636365"/>
  <unicode hex="0057"/>
  <anchor x="1140.1114545454545" y="0.0" name="bottom"/>
  <anchor x="1140.1114545454545" y="1520.0" name="top"/>
  <outline>
    <contour>
      <point x="421.05045454545456" y="0.0" type="line"/>
      <point x="838.8486363636364" y="0.0" type="line"/>
      <point x="1189.346" y="1281.3634545454545" type="line"/>
      <point x="1103.3629090909092" y="1281.3634545454545" type="line"/>
      <point x="1440.4859999999999" y="0.0" type="line"/>
      <point x="1858.2841818181819" y="0.0" type="line"/>
      <point x="2248.7535454545455" y="1480.0" type="line"/>
      <point x="1940.4244545454544" y="1480.0" type="line"/>
      <point x="1598.7427272727273" y="143.47463636363636" type="line"/>
      <point x="1673.1671818181817" y="143.47463636363636" type="line"/>
      <point x="1329.005" y="1480.0" type="line"/>
      <point x="968.9273636363637" y="1480.0" type="line"/>
      <point x="611.687" y="143.47463636363636" type="line"/>
      <point x="693.8544545454545" y="143.47463636363636" type="line"/>
      <point x="359.5079090909091" y="1480.0" type="line"/>
      <point x="30.284999999999997" y="1480.0" type="line"/>
    </contour>
  </outline>
</glyph>
<glyph name="X" format="2">
  <advance width="1376.1560909090908"/>
  <unicode hex="0058"/>
  <outline>
    <contour>
      <point x="1045.095090909091" y="0.0" type="line"/>
      <point x="1404.9157272727273" y="0.0" type="line"/>
      <point x="877.2509090909091" y="770.5250909090909" type="line"/>
      <point x="688.4300000000001" y="1006.6140909090909" type="line"/>
      <point x="365.1056363636364" y="1480.0" type="line"/>
      <point x="3.4693636363636315" y="1480.0" type="line"/>
      <point x="495.79345454545455" y="766.7094545454545" type="line"/>
      <point x="684.6143636363636" y="532.4360909090909" type="line"/>
    </contour>
    <contour>
      <point x="-31.87136363636364" y="0.0" type="line"/>
      <point x="323.8375454545454" y="0.0" type="line"/>
      <point x="684.6143636363636" y="532.4360909090909" type="line"/>
      <point x="877.2509090909091" y="770.5250909090909" type="line"/>
      <point x="1363.239818181818" y="1480.0" type="line"/>
      <point x="1011.3465454545454" y="1480.0" type="line"/>
      <point x="688.4300000000001" y="1006.6140909090909" type="line"/>
      <point x="495.79345454545455" y="766.7094545454545" type="line"/>
    </contour>
  </outline>
</glyph>
<glyph name="Y" format="2">
  <advance width="1285.8655454545456"/>
  <unicode hex="0059"/>
  <anchor x="642.5808181818181" y="0.0" name="bottom"/>
  <anchor x="643.2847272727273" y="1520.0" name="top"/>
  <anchor x="-7.82118181818182" y="1480.0" name="topleft"/>
  <outline>
    <contour>
      <point x="481.87718181818184" y="0.0" type="line"/>
      <point x="807.5079090909092" y="0.0" type="line"/>
      <point x="807.5079090909092" y="753.458" type="line"/>
      <point x="741.6420909090909" y="518.9611818181818" type="line"/>
      <point x="1326.4297272727272" y="1480.0" type="line"/>
      <point x="1005.6928181818182" y="1480.0" type="line"/>
      <point x="606.1674545454546" y="826.2902727272727" type="line"/>
      <point x="697.8879999999999" y="826.2902727272727" type="line"/>
      <point x="293.47436363636365" y="1480.0" type="line"/>
      <point x="-52.08372727272727" y="1480.0" type="line"/>
      <point x="547.7429999999999" y="518.9611818181818" type="line"/>
      <point x="481.87718181818184" y="757.6814545454546" type="line"/>
    </contour>
  </outline>
</glyph>
<glyph name="Z" format="2">
  <advance width="1239.5583636363635"/>
  <unicode hex="005A"/>
  <anchor x="618.1674545454546" y="0.0" name="bottom"/>
  <anchor x="620.983090909091" y="1520.0" name="top"/>
  <outline>
    <contour>
      <point x="59.48045454545454" y="0.0" type="line"/>
      <point x="1180.077909090909" y="0.0" type="line"/>
      <point x="1180.077909090909" y="270.24536363636366" type="line"/>
      <point x="435.31218181818184" y="270.24536363636366" type="line"/>
      <point x="439.45745454545454" y="208.6420909090909" type="line"/>
      <point x="1169.4857272727272" y="1301.329909090909" type="line"/>
      <point x="1169.4857272727272" y="1480.0" type="line"/>
      <point x="70.07263636363636" y="1480.0" type="line"/>
      <point x="70.07263636363636" y="1209.7546363636363" type="line"/>
      <point x="793.654" y="1209.7546363636363" type="line"/>
      <point x="789.5087272727272" y="1271.357909090909" type="line"/>
      <point x="59.48045454545454" y="178.6700909090909" type="line"/>
    </contour>
  </outline>
</glyph>
<glyph name="bracketleft" format="2">
  <advance width="716.1003636363637"/>
  <unicode hex="005B"/>
  <outline>
    <contour>
      <point x="152.98336363636363" y="-440.0" type="line"/>
      <point x="739.2065454545454" y="-440.0" type="line"/>
      <point x="739.2065454545454" y="-188.76018181818182" type="line"/>
      <point x="472.2789090909091" y="-188.76018181818182" type="line"/>
      <point x="472.2789090909091" y="1364.7601818181818" type="line"/>
      <point x="746.2456363636363" y="1364.7601818181818" type="line"/>
      <point x="746.2456363636363" y="1616.0" type="line"/>
      <point x="152.98336363636363" y="1616.0" type="line"/>
    </contour>
  </outline>
</glyph>
<glyph name="backslash" format="2">
  <advance width="789.8932727272727"/>
  <unicode hex="005C"/>
  <outline>
    <contour>
      <point x="474.63681818181817" y="-240.0" type="line"/>
      <point x="789.8932727272727" y="-240.0" type="line"/>
      <point x="315.2564545454546" y="1616.0" type="line"/>
      <point x="0.0" y="1616.0" type="line"/>
    </contour>
  </outline>
</glyph>
<glyph name="bracketright" format="2">
  <advance width="716.1003636363637"/>
  <unicode hex="005D"/>
  <outline>
    <contour>
      <point x="-23.106181818181817" y="-440.0" type="line"/>
      <point x="563.117" y="-440.0" type="line"/>
      <point x="563.117" y="1616.0" type="line"/>
      <point x="-30.145272727272726" y="1616.0" type="line"/>
      <point x="-30.145272727272726" y="1364.7601818181818" type="line"/>
      <point x="243.82145454545454" y="1364.7601818181818" type="line"/>
      <point x="243.82145454545454" y="-188.76018181818182" type="line"/>
      <point x="-23.106181818181817" y="-188.76018181818182" type="line"/>
    </contour>
  </outline>
</glyph>
<glyph name="underscore" format="2">
  <advance width="1209.966181818182"/>
  <unicode hex="005F"/>
  <outline>
    <contour>
      <point x="87.9609090909091" y="-251.94372727272727" type="line"/>
      <point x="1122.0052727272728" y="-251.94372727272727" type="line"/>
      <point x="1122.0052727272728" y="-0.7039090909090909" type="line"/>
      <point x="87.9609090909091" y="-0.7039090909090909" type="line"/>
    </contour>
  </outline>
</glyph>
<glyph name="a" format="2">
  <advance width="1117.670090909091"/>
  <unicode hex="0061"/>
  <anchor x="559.5361818181818" y="0.0" name="bottom"/>
  <anchor x="1007.4241818181818" y="0.0" name="ogonek"/>
  <anchor x="555.3909090909091" y="1200.0" name="top"/>
  <outline>
    <contour>
      <point x="417.77654545454544" y="-20.223454545454544" type="curve" smooth="yes"/>
      <point x="536.4022727272727" y="-20.223454545454544"/>
      <point x="641.9162727272727" y="19.698363636363638"/>
      <point x="707.4693636363636" y="108.99445454545454" type="curve"/>
      <point x="722.5084545454546" y="108.99445454545454" type="line"/>
      <point x="744.6983636363636" y="0.0" type="line"/>
      <point x="1007.4241818181818" y="0.0" type="line"/>
      <point x="1007.4241818181818" y="650.2683636363636" type="line" smooth="yes"/>
      <point x="1007.4241818181818" y="996.514"/>
      <point x="852.3069090909091" y="1111.486"/>
      <point x="504.1619090909091" y="1111.486" type="curve" smooth="yes"/>
      <point x="394.37981818181817" y="1111.486"/>
      <point x="258.1508181818182" y="1095.8938181818182"/>
      <point x="150.514" y="1065.3016363636364" type="curve"/>
      <point x="150.514" y="824.843909090909" type="line"/>
      <point x="248.88272727272727" y="854.8048181818182"/>
      <point x="362.3296363636364" y="868.8048181818182"/>
      <point x="447.14527272727275" y="868.8048181818182" type="curve" smooth="yes"/>
      <point x="627.9944545454546" y="868.8048181818182"/>
      <point x="695.8716363636364" y="820.6595454545454"/>
      <point x="695.8716363636364" y="670.6817272727272" type="curve" smooth="yes"/>
      <point x="695.8716363636364" y="270.6814545454545" type="line"/>
      <point x="644.9944545454546" y="220.48018181818182"/>
      <point x="580.715" y="202.04436363636364"/>
      <point x="522.1394545454546" y="202.04436363636364" type="curve" smooth="yes"/>
      <point x="427.71472727272726" y="202.04436363636364"/>
      <point x="377.6867272727273" y="246.66454545454548"/>
      <point x="377.6867272727273" y="327.201" type="curve" smooth="yes"/>
      <point x="377.6867272727273" y="407.88827272727275"/>
      <point x="428.0108181818182" y="454.7319090909091"/>
      <point x="550.173" y="465.06154545454547" type="curve" smooth="yes"/>
      <point x="782.2179090909091" y="483.6481818181818" type="line"/>
      <point x="747.542" y="660.1619090909091" type="line"/>
      <point x="517.6814545454546" y="641.5752727272727" type="line" smooth="yes"/>
      <point x="197.29054545454545" y="619.6143636363636"/>
      <point x="62.94981818181817" y="501.9049090909091"/>
      <point x="62.94981818181817" y="296.5641818181818" type="curve" smooth="yes"/>
      <point x="62.94981818181817" y="107.11727272727273"/>
      <point x="193.80454545454546" y="-20.223454545454544"/>
    </contour>
  </outline>
</glyph>
<glyph name="b" format="2">
  <advance width="1230.0834545454545"/>
  <unicode hex="0062"/>
  <anchor x="619.6534545454546" y="0.0" name="bottom"/>
  <anchor x="278.61436363636363" y="1616.0" name="top"/>
  <outline>
    <contour>
      <point x="540.5808181818181" y="-20.111727272727272" type="curve" smooth="yes"/>
      <point x="957.2733636363637" y="-20.815636363636365"/>
      <point x="1160.7984545454547" y="183.41336363636364"/>
      <point x="1160.7984545454547" y="569.1508181818182" type="curve" smooth="yes"/>
      <point x="1160.7984545454547" y="949.3296363636364"/>
      <point x="965.5359090909091" y="1111.486"/>
      <point x="736.3124545454546" y="1111.486" type="curve" smooth="yes"/>
      <point x="612.9828181818182" y="1111.486"/>
      <point x="516.5414545454546" y="1065.0446363636363"/>
      <point x="453.061" y="987.5250909090909" type="curve"/>
      <point x="437.91018181818185" y="987.5250909090909" type="line"/>
      <point x="437.91018181818185" y="1616.0" type="line"/>
      <point x="118.61463636363636" y="1616.0" type="line"/>
      <point x="118.61463636363636" y="40.893818181818176" type="line"/>
      <point x="245.44136363636363" y="-0.8882727272727271"/>
      <point x="399.93845454545453" y="-20.111727272727272"/>
    </contour>
    <contour>
      <point x="567.8098181818182" y="221.86554545454544" type="curve" smooth="yes"/>
      <point x="519.3013636363637" y="221.86554545454544"/>
      <point x="472.7929090909091" y="228.53036363636363"/>
      <point x="437.91018181818185" y="237.78736363636366" type="curve"/>
      <point x="437.91018181818185" y="784.5309090909091" type="line"/>
      <point x="484.4577272727273" y="829.0673636363637"/>
      <point x="550.6645454545455" y="849.7992727272728"/>
      <point x="614.7596363636363" y="849.7992727272728" type="curve" smooth="yes"/>
      <point x="749.7429999999999" y="849.7992727272728"/>
      <point x="839.6146363636364" y="782.1064545454545"/>
      <point x="839.6146363636364" y="543.5530909090909" type="curve" smooth="yes"/>
      <point x="839.6146363636364" y="311.4410909090909"/>
      <point x="747.7429999999999" y="221.86554545454544"/>
    </contour>
  </outline>
</glyph>
<glyph name="c" format="2">
  <advance width="961.8544545454546"/>
  <unicode hex="0063"/>
  <anchor x="553.3127272727272" y="0.0" name="bottom"/>
  <anchor x="537.3071818181818" y="1200.0" name="top"/>
  <outline>
    <contour>
      <point x="637.2511818181817" y="-20.815636363636365" type="curve" smooth="yes"/>
      <point x="736.4410909090909" y="-20.815636363636365"/>
      <point x="834.1114545454545" y="-5.815636363636363"/>
      <point x="914.7762727272727" y="20.55309090909091" type="curve"/>
      <point x="914.7762727272727" y="272.97727272727275" type="line"/>
      <point x="822.4075454545455" y="247.83200000000002"/>
      <point x="755.7818181818182" y="236.64763636363637"/>
      <point x="687.1896363636364" y="236.64763636363637" type="curve" smooth="yes"/>
      <point x="496.35154545454543" y="236.64763636363637"/>
      <point x="398.2118181818182" y="322.70918181818183"/>
      <point x="398.2118181818182" y="548.2234545454545" type="curve" smooth="yes"/>
      <point x="398.2118181818182" y="765.626"/>
      <point x="495.20072727272725" y="854.0227272727273"/>
      <point x="714.5192727272727" y="854.0227272727273" type="curve" smooth="yes"/>
      <point x="780.9270909090909" y="854.0227272727273"/>
      <point x="844.888" y="846.8383636363636"/>
      <point x="914.7762727272727" y="833.5813636363637" type="curve"/>
      <point x="914.7762727272727" y="1086.0055454545454" type="line"/>
      <point x="840.3293636363637" y="1103.1899090909092"/>
      <point x="758.698090909091" y="1111.486"/>
      <point x="670.2847272727273" y="1111.486" type="curve" smooth="yes"/>
      <point x="287.6703636363636" y="1111.486"/>
      <point x="69.285" y="931.6648181818182"/>
      <point x="69.285" y="544.9273636363637" type="curve" smooth="yes"/>
      <point x="69.285" y="162.8211818181818"/>
      <point x="271.03909090909093" y="-20.815636363636365"/>
    </contour>
  </outline>
</glyph>
<glyph name="d" format="2">
  <advance width="1230.0834545454545"/>
  <unicode hex="0064"/>
  <anchor x="623.1003636363637" y="0.0" name="bottom"/>
  <anchor x="1210.3515454545454" y="1616.0" name="caronalt"/>
  <anchor x="611.8378181818182" y="543.5195454545454" name="center"/>
  <anchor x="1111.4688181818183" y="1353.8882727272728" name="stroke"/>
  <anchor x="603.3909090909091" y="1200.0" name="top"/>
  <anchor x="1184.7147272727273" y="1094.0781818181817" name="topright"/>
  <outline>
    <contour>
      <point x="518.0726363636363" y="-19.407818181818183" type="curve" smooth="yes"/>
      <point x="647.3687272727273" y="-19.407818181818183"/>
      <point x="746.2179090909091" y="34.07263636363636"/>
      <point x="808.6983636363636" y="114.77654545454546" type="curve"/>
      <point x="823.7374545454545" y="114.77654545454546" type="line"/>
      <point x="843.1117272727273" y="0.0" type="line"/>
      <point x="1111.4688181818183" y="0.0" type="line"/>
      <point x="1111.4688181818183" y="1616.0" type="line"/>
      <point x="792.1732727272727" y="1616.0" type="line"/>
      <point x="792.1732727272727" y="1104.0446363636363" type="line"/>
      <point x="754.6983636363636" y="1108.4133636363636"/>
      <point x="709.9664545454546" y="1112.1899090909092"/>
      <point x="665.715" y="1112.1899090909092" type="curve" smooth="yes"/>
      <point x="274.9218181818182" y="1112.1899090909092"/>
      <point x="69.285" y="905.8491818181818"/>
      <point x="69.285" y="524.3351818181818" type="curve" smooth="yes"/>
      <point x="69.285" y="137.78209090909093"/>
      <point x="274.9218181818182" y="-19.407818181818183"/>
    </contour>
    <contour>
      <point x="611.8769090909091" y="241.575" type="curve" smooth="yes"/>
      <point x="479.5639090909091" y="241.575"/>
      <point x="390.46881818181816" y="310.45218181818177"/>
      <point x="390.46881818181816" y="549.229" type="curve" smooth="yes"/>
      <point x="390.46881818181816" y="779.9331818181818"/>
      <point x="482.3404545454546" y="869.5087272727272"/>
      <point x="665.5306363636364" y="869.5087272727272" type="curve" smooth="yes"/>
      <point x="708.6703636363636" y="869.5087272727272"/>
      <point x="757.2905454545455" y="864.0282727272727"/>
      <point x="792.1732727272727" y="857.0673636363637" type="curve"/>
      <point x="792.1732727272727" y="315.54727272727274" type="line"/>
      <point x="746.3296363636364" y="264.4186363636364"/>
      <point x="677.6032727272727" y="241.575"/>
    </contour>
  </outline>
</glyph>
<glyph name="e" format="2">
  <advance width="1109.295818181818"/>
  <unicode hex="0065"/>
  <anchor x="571.3518181818182" y="0.0" name="bottom"/>
  <anchor x="954.6922727272727" y="0.0" name="ogonek"/>
  <anchor x="571.3518181818182" y="1200.0" name="top"/>
  <outline>
    <contour>
      <point x="670.5472727272727" y="-20.815636363636365" type="curve" smooth="yes"/>
      <point x="773.0332727272727" y="-20.815636363636365"/>
      <point x="874.5192727272728" y="-10.335181818181818"/>
      <point x="991.5248181818182" y="16.329636363636364" type="curve"/>
      <point x="991.5248181818182" y="255.37954545454545" type="line"/>
      <point x="896.2678181818183" y="233.6420909090909"/>
      <point x="800.3013636363636" y="220.45772727272725"/>
      <point x="715.374" y="220.45772727272725" type="curve" smooth="yes"/>
      <point x="463.78181818181815" y="220.45772727272725"/>
      <point x="387.6531818181818" y="290.62545454545455"/>
      <point x="387.6531818181818" y="492.06154545454547" type="curve" smooth="yes"/>
      <point x="387.6531818181818" y="619.687" type="line" smooth="yes"/>
      <point x="387.6531818181818" y="836.7208181818182"/>
      <point x="452.5974545454545" y="908.9276363636363"/>
      <point x="573.8713636363636" y="908.9276363636363" type="curve" smooth="yes"/>
      <point x="694.1452727272728" y="908.9276363636363"/>
      <point x="755.1286363636364" y="835.7208181818182"/>
      <point x="755.1286363636364" y="618.983090909091" type="curve"/>
      <point x="806.0615454545455" y="638.6479090909091" type="line"/>
      <point x="250.80981818181817" y="638.6479090909091" type="line"/>
      <point x="250.80981818181817" y="454.39118181818185" type="line"/>
      <point x="1052.0834545454545" y="454.39118181818185" type="line"/>
      <point x="1052.0834545454545" y="537.8882727272727" type="line" smooth="yes"/>
      <point x="1052.0834545454545" y="910.771"/>
      <point x="887.7818181818182" y="1111.486"/>
      <point x="577.3909090909091" y="1111.486" type="curve" smooth="yes"/>
      <point x="252.81009090909092" y="1111.486"/>
      <point x="69.285" y="910.4749090909091"/>
      <point x="69.285" y="547.743" type="curve" smooth="yes"/>
      <point x="69.285" y="149.4469090909091"/>
      <point x="257.29054545454545" y="-20.815636363636365"/>
    </contour>
  </outline>
</glyph>
<glyph name="f" format="2">
  <advance width="802.8544545454546"/>
  <unicode hex="0066"/>
  <outline>
    <contour>
      <point x="202.6201818181818" y="0.0" type="line"/>
      <point x="519.804" y="0.0" type="line"/>
      <point x="519.804" y="1186.894090909091" type="line" smooth="yes"/>
      <point x="519.804" y="1322.1344545454544"/>
      <point x="586.9828181818182" y="1382.7601818181818"/>
      <point x="742.8655454545454" y="1382.7601818181818" type="curve" smooth="yes"/>
      <point x="779.8990909090909" y="1382.7601818181818"/>
      <point x="814.2287272727273" y="1379.8719090909092"/>
      <point x="853.7818181818182" y="1374.3914545454545" type="curve"/>
      <point x="853.7818181818182" y="1624.0" type="line"/>
      <point x="801.7427272727273" y="1632.0"/>
      <point x="751.1505454545454" y="1636.0"/>
      <point x="694.0723636363637" y="1636.0" type="curve" smooth="yes"/>
      <point x="374.7485454545455" y="1636.0"/>
      <point x="202.6201818181818" y="1464.1677272727272"/>
      <point x="202.6201818181818" y="1171.9276363636363" type="curve" smooth="yes"/>
    </contour>
    <contour>
      <point x="24.854727272727274" y="842.8383636363636" type="line"/>
      <point x="807.7427272727273" y="842.8383636363636" type="line"/>
      <point x="807.7427272727273" y="1094.0781818181817" type="line"/>
      <point x="24.854727272727274" y="1094.0781818181817" type="line"/>
    </contour>
  </outline>
</glyph>
<glyph name="g" format="2">
  <advance width="1230.0834545454545"/>
  <unicode hex="0067"/>
  <anchor x="619.8713636363636" y="-440.0" name="bottom"/>
  <anchor x="639.5808181818181" y="1200.0" name="top"/>
  <outline>
    <contour>
      <point x="511.7540909090909" y="-460.0" type="curve" smooth="yes"/>
      <point x="916.0108181818182" y="-460.0"/>
      <point x="1111.4688181818183" y="-293.1732727272727"/>
      <point x="1111.4688181818183" y="103.5137272727273" type="curve" smooth="yes"/>
      <point x="1111.4688181818183" y="1050.4804545454544" type="line"/>
      <point x="991.5694545454546" y="1089.8547272727274"/>
      <point x="830.145" y="1111.486"/>
      <point x="690.2065454545454" y="1111.486" type="curve" smooth="yes"/>
      <point x="272.8100909090909" y="1110.7820909090908"/>
      <point x="69.285" y="902.3296363636364"/>
      <point x="69.285" y="525.0390909090909" type="curve" smooth="yes"/>
      <point x="69.285" y="156.1228181818182"/>
      <point x="269.4749090909091" y="-6.737454545454545"/>
      <point x="493.771" y="-6.737454545454545" type="curve" smooth="yes"/>
      <point x="617.1006363636363" y="-6.737454545454545"/>
      <point x="713.542" y="39.70390909090909"/>
      <point x="777.0224545454546" y="117.22345454545454" type="curve"/>
      <point x="792.1732727272727" y="117.22345454545454" type="line"/>
      <point x="792.1732727272727" y="45.016636363636366" type="line" smooth="yes"/>
      <point x="792.1732727272727" y="-141.14"/>
      <point x="700.3296363636364" y="-214.50318181818182"/>
      <point x="486.70945454545455" y="-214.50318181818182" type="curve" smooth="yes"/>
      <point x="386.2625454545455" y="-214.50318181818182"/>
      <point x="268.03354545454545" y="-199.20709090909088"/>
      <point x="145.54754545454546" y="-165.72663636363637" type="curve"/>
      <point x="145.54754545454546" y="-415.3351818181818" type="line"/>
      <point x="264.63127272727274" y="-446.9273636363636"/>
      <point x="395.70945454545455" y="-460.0"/>
    </contour>
    <contour>
      <point x="615.3238181818182" y="252.83754545454548" type="curve" smooth="yes"/>
      <point x="478.93263636363633" y="252.83754545454548"/>
      <point x="390.46881818181816" y="319.82645454545457"/>
      <point x="390.46881818181816" y="552.0446363636364" type="curve" smooth="yes"/>
      <point x="390.46881818181816" y="779.9331818181818"/>
      <point x="486.5639090909091" y="869.5087272727272"/>
      <point x="662.2736363636363" y="869.5087272727272" type="curve" smooth="yes"/>
      <point x="710.7820909090909" y="869.5087272727272"/>
      <point x="757.2905454545455" y="863.14"/>
      <point x="792.1732727272727" y="855.179090909091" type="curve"/>
      <point x="792.1732727272727" y="318.1059090909091" type="line"/>
      <point x="745.6257272727273" y="273.5694545454545"/>
      <point x="678.8267272727273" y="252.83754545454548"/>
    </contour>
  </outline>
</glyph>
<glyph name="h" format="2">
  <advance width="1222.8544545454547"/>
  <unicode hex="0068"/>
  <anchor x="616.4635454545455" y="0.0" name="bottom"/>
  <anchor x="616.4635454545455" y="547.0390909090909" name="center"/>
  <anchor x="118.61463636363636" y="1351.7765454545454" name="stroke"/>
  <anchor x="616.4635454545455" y="1616.0" name="top"/>
  <outline>
    <contour>
      <point x="118.61463636363636" y="0.0" type="line"/>
      <point x="437.91018181818185" y="0.0" type="line"/>
      <point x="437.91018181818185" y="747.1175454545455" type="line"/>
      <point x="487.5639090909091" y="807.1344545454546"/>
      <point x="567.5081818181818" y="835.8328181818182"/>
      <point x="639.0501818181818" y="835.8328181818182" type="curve" smooth="yes"/>
      <point x="733.8827272727273" y="835.8328181818182"/>
      <point x="793.313" y="793.6930909090909"/>
      <point x="793.313" y="660.4582727272727" type="curve" smooth="yes"/>
      <point x="793.313" y="0.0" type="line"/>
      <point x="1112.6085454545455" y="0.0" type="line"/>
      <point x="1112.6085454545455" y="681.9833636363636" type="line" smooth="yes"/>
      <point x="1112.6085454545455" y="993.4413636363637"/>
      <point x="955.6030000000001" y="1111.486"/>
      <point x="755.3795454545455" y="1111.486" type="curve" smooth="yes"/>
      <point x="630.1225454545454" y="1111.486"/>
      <point x="527.6476363636364" y="1066.5977272727273"/>
      <point x="453.061" y="983.972" type="curve"/>
      <point x="437.91018181818185" y="983.972" type="line"/>
      <point x="437.91018181818185" y="1616.0" type="line"/>
      <point x="118.61463636363636" y="1616.0" type="line"/>
    </contour>
  </outline>
</glyph>
<glyph name="l" format="2">
  <advance width="556.5248181818182"/>
  <unicode hex="006C"/>
  <anchor x="277.9104545454545" y="0.0" name="bottom"/>
  <anchor x="536.7929090909091" y="1616.0" name="caronalt"/>
  <anchor x="682.0831818181819" y="794.0" name="periodcentered"/>
  <anchor x="278.61436363636363" y="714.0" name="slash"/>
  <anchor x="278.61436363636363" y="1616.0" name="top"/>
  <outline>
    <contour>
      <point x="118.61463636363636" y="0.0" type="line"/>
      <point x="437.91018181818185" y="0.0" type="line"/>
      <point x="437.91018181818185" y="1616.0" type="line"/>
      <point x="118.61463636363636" y="1616.0" type="line"/>
    </contour>
  </outline>
</glyph>
<glyph name="m" format="2">
  <advance width="1804.4577272727272"/>
  <unicode hex="006D"/>
  <anchor x="911.173" y="0.0" name="bottom"/>
  <anchor x="911.173" y="1200.0" name="top"/>
  <outline>
    <contour>
      <point x="118.61463636363636" y="0.0" type="line"/>
      <point x="437.91018181818185" y="0.0" type="line"/>
      <point x="437.91018181818185" y="745.637090909091" type="line"/>
      <point x="481.37954545454545" y="807.1344545454546"/>
      <point x="551.9550909090909" y="836.425"/>
      <point x="617.6479090909091" y="836.425" type="curve" smooth="yes"/>
      <point x="701.3351818181818" y="836.425"/>
      <point x="753.9889090909091" y="794.3969999999999"/>
      <point x="753.9889090909091" y="663.3856363636364" type="curve" smooth="yes"/>
      <point x="753.9889090909091" y="0.0" type="line"/>
      <point x="1066.9492727272727" y="0.0" type="line"/>
      <point x="1066.9492727272727" y="691.1341818181818" type="line" smooth="yes"/>
      <point x="1066.9492727272727" y="994.8491818181818"/>
      <point x="920.1280909090909" y="1111.486"/>
      <point x="725.3069090909091" y="1111.486" type="curve" smooth="yes"/>
      <point x="599.5639090909091" y="1111.486"/>
      <point x="495.4186363636363" y="1067.0055454545454"/>
      <point x="418.5694545454545" y="982.3798181818182" type="curve"/>
      <point x="403.53036363636363" y="982.3798181818182" type="line"/>
      <point x="382.04436363636364" y="1094.0781818181817" type="line"/>
      <point x="118.61463636363636" y="1094.0781818181817" type="line"/>
    </contour>
    <contour>
      <point x="1375.620181818182" y="0.0" type="line"/>
      <point x="1694.2118181818182" y="0.0" type="line"/>
      <point x="1694.2118181818182" y="680.5755454545455" type="line" smooth="yes"/>
      <point x="1694.2118181818182" y="993.4413636363637"/>
      <point x="1540.9828181818182" y="1111.486"/>
      <point x="1331.195181818182" y="1111.486" type="curve" smooth="yes"/>
      <point x="1207.4521818181818" y="1111.486"/>
      <point x="1078.7147272727273" y="1063.0781818181817"/>
      <point x="980.9772727272727" y="943.9384545454545" type="curve"/>
      <point x="1044.9883636363636" y="736.7543636363637" type="line"/>
      <point x="1090.1616363636363" y="807.1344545454546"/>
      <point x="1163.659" y="836.425"/>
      <point x="1233.5752727272727" y="836.425" type="curve" smooth="yes"/>
      <point x="1316.8547272727274" y="836.425"/>
      <point x="1375.620181818182" y="794.3969999999999"/>
      <point x="1375.620181818182" y="663.3856363636364" type="curve" smooth="yes"/>
    </contour>
  </outline>
</glyph>
<glyph name="n" format="2">
  <advance width="1222.8544545454547"/>
  <unicode hex="006E"/>
  <anchor x="11.592181818181817" y="1200.0" name="apostrophe"/>
  <anchor x="616.4635454545455" y="0.0" name="bottom"/>
  <anchor x="616.4635454545455" y="1200.0" name="top"/>
  <outline>
    <contour>
      <point x="118.61463636363636" y="0.0" type="line"/>
      <point x="437.91018181818185" y="0.0" type="line"/>
      <point x="437.91018181818185" y="747.4136363636363" type="line"/>
      <point x="488.15609090909095" y="808.3188181818182"/>
      <point x="567.8769090909091" y="836.425"/>
      <point x="639.0501818181818" y="836.425" type="curve" smooth="yes"/>
      <point x="734.771" y="836.425"/>
      <point x="793.313" y="793.8048181818182"/>
      <point x="793.313" y="661.9778181818182" type="curve" smooth="yes"/>
      <point x="793.313" y="0.0" type="line"/>
      <point x="1112.6085454545455" y="0.0" type="line"/>
      <point x="1112.6085454545455" y="681.6872727272728" type="line" smooth="yes"/>
      <point x="1112.6085454545455" y="992.4413636363637"/>
      <point x="955.6030000000001" y="1111.486"/>
      <point x="739.5974545454545" y="1111.486" type="curve" smooth="yes"/>
      <point x="611.2287272727273" y="1111.486"/>
      <point x="498.8990909090909" y="1065.821181818182"/>
      <point x="418.5694545454545" y="982.675909090909" type="curve"/>
      <point x="403.53036363636363" y="982.675909090909" type="line"/>
      <point x="382.04436363636364" y="1094.0781818181817" type="line"/>
      <point x="118.61463636363636" y="1094.0781818181817" type="line"/>
    </contour>
  </outline>
</glyph>
<glyph name="o" format="2">
  <advance width="1204.413090909091"/>
  <unicode hex="006F"/>
  <anchor x="602.2065454545454" y="0.0" name="bottom"/>
  <anchor x="602.2065454545454" y="547.0390909090909" name="center"/>
  <anchor x="776.3293636363636" y="0.0" name="ogonek"/>
  <anchor x="602.2065454545454" y="1200.0" name="top"/>
  <anchor x="640.2179090909091" y="1094.0781818181817" name="topright"/>
  <outline>
    <contour>
      <point x="602.2065454545454" y="-20.815636363636365" type="curve" smooth="yes"/>
      <point x="929.5248181818182" y="-20.815636363636365"/>
      <point x="1135.1280909090908" y="166.22899999999998"/>
      <point x="1135.1280909090908" y="545.6312727272727" type="curve" smooth="yes"/>
      <point x="1135.1280909090908" y="923.4022727272727"/>
      <point x="937.2678181818183" y="1111.486"/>
      <point x="602.2065454545454" y="1111.486" type="curve" smooth="yes"/>
      <point x="267.14527272727275" y="1111.486"/>
      <point x="69.285" y="925.7374545454545"/>
      <point x="69.285" y="544.2234545454545" type="curve" smooth="yes"/>
      <point x="69.285" y="165.04463636363636"/>
      <point x="274.8882727272727" y="-20.815636363636365"/>
    </contour>
    <contour>
      <point x="602.2065454545454" y="221.16163636363638" type="curve" smooth="yes"/>
      <point x="467.63654545454546" y="221.16163636363638"/>
      <point x="390.46881818181816" y="296.5919090909091"/>
      <point x="390.46881818181816" y="546.5195454545454" type="curve" smooth="yes"/>
      <point x="390.46881818181816" y="794.6706363636364"/>
      <point x="469.04436363636364" y="869.5087272727272"/>
      <point x="602.2065454545454" y="869.5087272727272" type="curve" smooth="yes"/>
      <point x="735.3687272727273" y="869.5087272727272"/>
      <point x="813.9442727272727" y="794.6706363636364"/>
      <point x="813.9442727272727" y="543.3351818181818" type="curve" smooth="yes"/>
      <point x="813.9442727272727" y="296.5919090909091"/>
      <point x="736.7765454545455" y="221.16163636363638"/>
    </contour>
  </outline>
</glyph>
<glyph name="p" format="2">
  <advance width="1230.0834545454545"/>
  <unicode hex="0070"/>
  <outline>
    <contour>
      <point x="118.61463636363636" y="-440.0" type="line"/>
      <point x="437.91018181818185" y="-440.0" type="line"/>
      <point x="437.91018181818185" y="-12.262545454545455" type="line"/>
      <point x="475.3850909090909" y="-16.33518181818182"/>
      <point x="520.117" y="-20.111727272727272"/>
      <point x="564.3684545454546" y="-20.111727272727272" type="curve" smooth="yes"/>
      <point x="955.4577272727272" y="-20.111727272727272"/>
      <point x="1160.7984545454547" y="186.22899999999998"/>
      <point x="1160.7984545454547" y="567.743" type="curve" smooth="yes"/>
      <point x="1160.7984545454547" y="956.3687272727273"/>
      <point x="953.9772727272727" y="1111.486"/>
      <point x="712.0108181818182" y="1111.486" type="curve" smooth="yes"/>
      <point x="582.7147272727273" y="1111.486"/>
      <point x="483.86554545454544" y="1058.0055454545454"/>
      <point x="421.3850909090909" y="977.3016363636364" type="curve"/>
      <point x="406.64209090909094" y="977.3016363636364" type="line"/>
      <point x="386.97172727272726" y="1094.0781818181817" type="line"/>
      <point x="118.61463636363636" y="1094.0781818181817" type="line"/>
    </contour>
    <contour>
      <point x="564.5528181818182" y="222.56945454545453" type="curve" smooth="yes"/>
      <point x="521.4130909090909" y="222.56945454545453"/>
      <point x="472.7929090909091" y="228.0499090909091"/>
      <point x="437.91018181818185" y="235.0108181818182" type="curve"/>
      <point x="437.91018181818185" y="776.5309090909091" type="line"/>
      <point x="483.7538181818182" y="827.6595454545454"/>
      <point x="552.4801818181818" y="850.5031818181818"/>
      <point x="618.2065454545454" y="850.5031818181818" type="curve" smooth="yes"/>
      <point x="749.0390909090909" y="850.5031818181818"/>
      <point x="839.6146363636364" y="782.8103636363636"/>
      <point x="839.6146363636364" y="542.8491818181818" type="curve" smooth="yes"/>
      <point x="839.6146363636364" y="312.145"/>
      <point x="747.7429999999999" y="222.56945454545453"/>
    </contour>
  </outline>
</glyph>
<glyph name="q" format="2">
  <advance width="1230.0834545454545"/>
  <unicode hex="0071"/>
  <outline>
    <contour>
      <point x="792.1732727272727" y="-440.0" type="line"/>
      <point x="1111.4688181818183" y="-440.0" type="line"/>
      <point x="1111.4688181818183" y="1050.4804545454544" type="line"/>
      <point x="991.5694545454546" y="1089.8547272727274"/>
      <point x="830.145" y="1111.486"/>
      <point x="689.5026363636364" y="1111.486" type="curve" smooth="yes"/>
      <point x="272.8100909090909" y="1111.486"/>
      <point x="69.285" y="907.9609090909091"/>
      <point x="69.285" y="522.2234545454545" type="curve" smooth="yes"/>
      <point x="69.285" y="142.04463636363636"/>
      <point x="264.54754545454546" y="-20.111727272727272"/>
      <point x="493.771" y="-20.111727272727272" type="curve" smooth="yes"/>
      <point x="617.1006363636363" y="-20.111727272727272"/>
      <point x="713.542" y="26.329636363636364"/>
      <point x="777.0224545454546" y="103.84918181818182" type="curve"/>
      <point x="792.1732727272727" y="103.84918181818182" type="line"/>
    </contour>
    <contour>
      <point x="615.3238181818182" y="241.57500000000002" type="curve" smooth="yes"/>
      <point x="480.3404545454546" y="241.57500000000002"/>
      <point x="390.46881818181816" y="309.26781818181814"/>
      <point x="390.46881818181816" y="547.8211818181818" type="curve" smooth="yes"/>
      <point x="390.46881818181816" y="779.9331818181818"/>
      <point x="486.5639090909091" y="869.5087272727272"/>
      <point x="661.5697272727273" y="869.5087272727272" type="curve" smooth="yes"/>
      <point x="710.7820909090909" y="869.5087272727272"/>
      <point x="757.2905454545455" y="863.14"/>
      <point x="792.1732727272727" y="855.179090909091" type="curve"/>
      <point x="792.1732727272727" y="306.8433636363636" type="line"/>
      <point x="745.6257272727273" y="262.30690909090913"/>
      <point x="678.8267272727273" y="241.57500000000002"/>
    </contour>
  </outline>
</glyph>
<glyph name="r" format="2">
  <advance width="810.2622727272727"/>
  <unicode hex="0072"/>
  <anchor x="278.61436363636363" y="0.0" name="bottom"/>
  <anchor x="455.4970909090909" y="1200.0" name="top"/>
  <outline>
    <contour>
      <point x="118.61463636363636" y="0.0" type="line"/>
      <point x="437.91018181818185" y="0.0" type="line"/>
      <point x="437.91018181818185" y="716.3354545454546" type="line"/>
      <point x="492.1616363636364" y="784.7266363636363"/>
      <point x="596.8544545454546" y="820.9054545454545"/>
      <point x="690.4410909090909" y="820.9054545454545" type="curve" smooth="yes"/>
      <point x="724.848909090909" y="820.9054545454545"/>
      <point x="764.3349090909092" y="819.2015454545455"/>
      <point x="798.670090909091" y="812.3859090909091" type="curve"/>
      <point x="798.670090909091" y="1101.4133636363636" type="line"/>
      <point x="773.7818181818182" y="1105.7094545454545"/>
      <point x="742.0388181818182" y="1109.1172727272726"/>
      <point x="709.7427272727273" y="1109.1172727272726" type="curve" smooth="yes"/>
      <point x="587.7427272727273" y="1109.1172727272726"/>
      <point x="481.26781818181814" y="1060.8602727272728"/>
      <point x="419.97727272727275" y="952.7094545454545" type="curve"/>
      <point x="404.9381818181818" y="952.7094545454545" type="line"/>
      <point x="379.93263636363633" y="1094.0781818181817" type="line"/>
      <point x="118.61463636363636" y="1094.0781818181817" type="line"/>
    </contour>
  </outline>
</glyph>
<glyph name="s" format="2">
  <advance width="978.4801818181818"/>
  <unicode hex="0073"/>
  <anchor x="493.8322727272727" y="0.0" name="bottom"/>
  <anchor x="493.8322727272727" y="1200.0" name="top"/>
  <outline>
    <contour>
      <point x="440.5697272727273" y="-20.815636363636365" type="curve" smooth="yes"/>
      <point x="752.1785454545454" y="-20.815636363636365"/>
      <point x="929.4521818181818" y="112.89381818181818"/>
      <point x="929.4521818181818" y="331.38536363636365" type="curve" smooth="yes"/>
      <point x="929.4521818181818" y="522.4355454545455"/>
      <point x="828.4801818181818" y="609.5081818181818"/>
      <point x="633.9270909090909" y="646.3573636363636" type="curve" smooth="yes"/>
      <point x="456.35736363636363" y="678.5808181818181" type="line" smooth="yes"/>
      <point x="383.6756363636364" y="693.2791818181818"/>
      <point x="358.72027272727274" y="721.6368181818182"/>
      <point x="358.72027272727274" y="768.6928181818182" type="curve" smooth="yes"/>
      <point x="358.72027272727274" y="827.4136363636363"/>
      <point x="405.1896363636364" y="878.6595454545454"/>
      <point x="586.362909090909" y="878.6595454545454" type="curve" smooth="yes"/>
      <point x="686.3684545454546" y="878.6595454545454"/>
      <point x="784.4521818181818" y="865.7321818181817"/>
      <point x="869.2287272727273" y="842.4360909090909" type="curve"/>
      <point x="869.2287272727273" y="1076.5586363636364" type="line"/>
      <point x="788.3013636363637" y="1097.9664545454546"/>
      <point x="683.3293636363636" y="1111.486"/>
      <point x="577.2120909090909" y="1111.486" type="curve" smooth="yes"/>
      <point x="227.4078181818182" y="1111.486"/>
      <point x="61.765454545454546" y="971.4078181818181"/>
      <point x="61.765454545454546" y="761.4693636363636" type="curve" smooth="yes"/>
      <point x="61.765454545454546" y="587.2012727272727"/>
      <point x="150.36318181818183" y="484.05045454545456"/>
      <point x="356.3296363636364" y="446.0895454545455" type="curve" smooth="yes"/>
      <point x="533.8993636363637" y="413.8660909090909" type="line" smooth="yes"/>
      <point x="606.5810909090909" y="399.16772727272723"/>
      <point x="632.4973636363636" y="373.6592727272727"/>
      <point x="632.4973636363636" y="319.7540909090909" type="curve" smooth="yes"/>
      <point x="632.4973636363636" y="252.48018181818185"/>
      <point x="580.5475454545455" y="212.0108181818182"/>
      <point x="435.8267272727273" y="212.0108181818182" type="curve" smooth="yes"/>
      <point x="315.85472727272725" y="212.0108181818182"/>
      <point x="196.43581818181818" y="229.346"/>
      <point x="90.43581818181818" y="261.346" type="curve"/>
      <point x="90.43581818181818" y="27.223454545454544" type="line"/>
      <point x="194.03354545454545" y="-5.0"/>
      <point x="314.8211818181818" y="-20.815636363636365"/>
    </contour>
  </outline>
</glyph>
<glyph name="t" format="2">
  <advance width="843.2287272727273"/>
  <unicode hex="0074"/>
  <anchor x="501.64236363636365" y="0.0" name="bottom"/>
  <anchor x="645.9326363636363" y="1616.0" name="caronalt"/>
  <anchor x="194.6201818181818" y="587.4973636363636" name="stroke"/>
  <anchor x="354.6199090909091" y="1508.1563636363637" name="top"/>
  <anchor x="764.5863636363637" y="1616.0" name="topright"/>
  <outline>
    <contour>
      <point x="606.0557272727273" y="-20.111727272727272" type="curve" smooth="yes"/>
      <point x="674.7651818181819" y="-20.111727272727272"/>
      <point x="750.7371818181819" y="-10.184363636363637"/>
      <point x="808.3684545454546" y="3.223454545454545" type="curve"/>
      <point x="808.3684545454546" y="255.64763636363637" type="line"/>
      <point x="762.5192727272728" y="247.57500000000002"/>
      <point x="727.9661818181818" y="242.9828181818182"/>
      <point x="693.117" y="242.9828181818182" type="curve" smooth="yes"/>
      <point x="566.7202727272727" y="242.9828181818182"/>
      <point x="513.9157272727273" y="291.346"/>
      <point x="513.9157272727273" y="440.96063636363635" type="curve" smooth="yes"/>
      <point x="513.9157272727273" y="1480.0" type="line"/>
      <point x="252.59772727272727" y="1480.0" type="line"/>
      <point x="194.6201818181818" y="1094.0781818181817" type="line"/>
      <point x="194.6201818181818" y="390.94954545454544" type="line" smooth="yes"/>
      <point x="194.6201818181818" y="105.74854545454545"/>
      <point x="341.48045454545456" y="-20.111727272727272"/>
    </contour>
    <contour>
      <point x="16.854727272727274" y="842.8383636363636" type="line"/>
      <point x="801.8544545454546" y="842.8383636363636" type="line"/>
      <point x="801.8544545454546" y="1094.0781818181817" type="line"/>
      <point x="16.854727272727274" y="1094.0781818181817" type="line"/>
    </contour>
  </outline>
</glyph>
<glyph name="u" format="2">
  <advance width="1213.5583636363635"/>
  <unicode hex="0075"/>
  <anchor x="603.0948181818183" y="0.0" name="bottom"/>
  <anchor x="1094.9437272727273" y="0.0" name="ogonek"/>
  <anchor x="603.0948181818183" y="1200.0" name="top"/>
  <anchor x="808.7319090909091" y="1094.0781818181817" name="topright"/>
  <outline>
    <contour>
      <point x="486.70390909090906" y="-18.70390909090909" type="curve" smooth="yes"/>
      <point x="605.5530909090909" y="-18.70390909090909"/>
      <point x="712.9553636363636" y="25.480454545454545"/>
      <point x="796.3967272727273" y="109.92181818181818" type="curve"/>
      <point x="810.028" y="109.92181818181818" type="line"/>
      <point x="831.514" y="0.0" type="line"/>
      <point x="1094.9437272727273" y="0.0" type="line"/>
      <point x="1094.9437272727273" y="1094.0781818181817" type="line"/>
      <point x="775.6481818181818" y="1094.0781818181817" type="line"/>
      <point x="775.6481818181818" y="345.36845454545454" type="line"/>
      <point x="726.2905454545455" y="285.64763636363637"/>
      <point x="646.3462727272728" y="256.3570909090909"/>
      <point x="578.8042727272727" y="256.3570909090909" type="curve" smooth="yes"/>
      <point x="488.97172727272726" y="256.3570909090909"/>
      <point x="429.54145454545454" y="299.089"/>
      <point x="429.54145454545454" y="430.916" type="curve" smooth="yes"/>
      <point x="429.54145454545454" y="1094.0781818181817" type="line"/>
      <point x="110.2459090909091" y="1094.0781818181817" type="line"/>
      <point x="110.2459090909091" y="409.3909090909091" type="line" smooth="yes"/>
      <point x="110.2459090909091" y="99.34072727272726"/>
      <point x="268.6592727272727" y="-18.70390909090909"/>
    </contour>
  </outline>
</glyph>
<glyph name="v" format="2">
  <advance width="1166.049909090909"/>
  <unicode hex="0076"/>
  <anchor x="583.4690909090909" y="0.0" name="bottom"/>
  <anchor x="583.4690909090909" y="1200.0" name="top"/>
  <outline>
    <contour>
      <point x="382.7208181818182" y="0.0" type="line"/>
      <point x="782.6251818181818" y="0.0" type="line"/>
      <point x="1167.0945454545454" y="1094.0781818181817" type="line"/>
      <point x="852.6537272727272" y="1094.0781818181817" type="line"/>
      <point x="580.8042727272727" y="252.804" type="line"/>
      <point x="604.4355454545455" y="252.804" type="line"/>
      <point x="332.5860909090909" y="1094.0781818181817" type="line"/>
      <point x="-1.0446363636363643" y="1094.0781818181817" type="line"/>
    </contour>
  </outline>
</glyph>
<glyph name="w" format="2">
  <advance width="1811.2398181818182"/>
  <unicode hex="0077"/>
  <anchor x="906.6199090909091" y="0.0" name="bottom"/>
  <anchor x="906.9159999999999" y="1200.0" name="top"/>
  <outline>
    <contour>
      <point x="337.6481818181818" y="0.0" type="line"/>
      <point x="690.6867272727272" y="0.0" type="line"/>
      <point x="918.1394545454546" y="824.2350909090909" type="line"/>
      <point x="899.7316363636364" y="824.2350909090909" type="line"/>
      <point x="1122.257" y="0.0" type="line"/>
      <point x="1475.2955454545454" y="0.0" type="line"/>
      <point x="1767.9883636363636" y="1094.0781818181817" type="line"/>
      <point x="1478.0726363636363" y="1094.0781818181817" type="line"/>
      <point x="1275.5863636363636" y="311.005" type="line"/>
      <point x="1297.2176363636363" y="311.005" type="line"/>
      <point x="1089.4743636363637" y="1094.0781818181817" type="line"/>
      <point x="736.4358181818181" y="1094.0781818181817" type="line"/>
      <point x="525.4690909090909" y="311.005" type="line"/>
      <point x="540.7651818181819" y="311.005" type="line"/>
      <point x="345.7258181818182" y="1094.0781818181817" type="line"/>
      <point x="43.25145454545454" y="1094.0781818181817" type="line"/>
    </contour>
  </outline>
</glyph>
<glyph name="x" format="2">
  <advance width="1126.128090909091"/>
  <unicode hex="0078"/>
  <anchor x="563.5081818181818" y="0.0" name="bottom"/>
  <anchor x="564.2120909090909" y="1200.0" name="top"/>
  <outline>
    <contour>
      <point x="783.9498181818182" y="0.0" type="line"/>
      <point x="1135.3235454545454" y="0.0" type="line"/>
      <point x="749.5134545454546" y="555.1508181818182" type="line"/>
      <point x="567.0277272727272" y="776.2733636363637" type="line"/>
      <point x="350.7704545454545" y="1094.0781818181817" type="line"/>
      <point x="-0.6032727272727314" y="1094.0781818181817" type="line"/>
      <point x="374.799" y="551.0390909090909" type="line"/>
      <point x="560.8042727272727" y="331.62045454545455" type="line"/>
    </contour>
    <contour>
      <point x="-7.603272727272728" y="0.0" type="line"/>
      <point x="334.32354545454547" y="0.0" type="line"/>
      <point x="560.8042727272727" y="331.62045454545455" type="line"/>
      <point x="749.5134545454546" y="555.1508181818182" type="line"/>
      <point x="1122.804" y="1094.0781818181817" type="line"/>
      <point x="781.4693636363636" y="1094.0781818181817" type="line"/>
      <point x="567.0277272727272" y="776.2733636363637" type="line"/>
      <point x="374.799" y="551.0390909090909" type="line"/>
    </contour>
  </outline>
</glyph>
<glyph name="y" format="2">
  <advance width="1166.049909090909"/>
  <unicode hex="0079"/>
  <anchor x="974.2955454545454" y="0.0" name="bottom"/>
  <anchor x="583.4690909090909" y="1200.0" name="top"/>
  <outline>
    <contour>
      <point x="314.486" y="-440.0" type="line"/>
      <point x="627.2229090909091" y="-440.0" type="line"/>
      <point x="1167.0945454545454" y="1094.0781818181817" type="line"/>
      <point x="852.6537272727272" y="1094.0781818181817" type="line"/>
      <point x="580.8042727272727" y="252.804" type="line"/>
      <point x="470.88827272727275" y="0.0" type="line"/>
    </contour>
    <contour>
      <point x="382.7208181818182" y="0.0" type="line"/>
      <point x="679.3795454545455" y="0.0" type="line"/>
      <point x="332.5860909090909" y="1094.0781818181817" type="line"/>
      <point x="-1.0446363636363643" y="1094.0781818181817" type="line"/>
    </contour>
  </outline>
</glyph>
<glyph name="z" format="2">
  <advance width="1012.820909090909"/>
  <unicode hex="007A"/>
  <anchor x="514.5417272727273" y="0.0" name="bottom"/>
  <anchor x="514.5417272727273" y="1200.0" name="top"/>
  <outline>
    <contour>
      <point x="65.22345454545454" y="0.0" type="line"/>
      <point x="962.86" y="0.0" type="line"/>
      <point x="962.86" y="251.23981818181818" type="line"/>
      <point x="413.9323636363637" y="251.23981818181818" type="line"/>
      <point x="413.9323636363637" y="193.15609090909092" type="line"/>
      <point x="952.2678181818183" y="892.179090909091" type="line"/>
      <point x="952.2678181818183" y="1094.0781818181817" type="line"/>
      <point x="75.81563636363636" y="1094.0781818181817" type="line"/>
      <point x="75.81563636363636" y="842.8383636363636" type="line"/>
      <point x="603.5589090909091" y="842.8383636363636" type="line"/>
      <point x="603.5589090909091" y="900.9220909090909" type="line"/>
      <point x="65.22345454545454" y="201.89909090909092" type="line"/>
    </contour>
  </outline>
</glyph>
<glyph name="braceleft" format="2">
  <advance width="756.1003636363637"/>
  <unicode hex="007B"/>
  <outline>
    <contour>
      <point x="612.0446363636364" y="-460.0" type="curve" smooth="yes"/>
      <point x="679.2736363636363" y="-460.0"/>
      <point x="737.2400909090909" y="-454.5921818181818"/>
      <point x="786.2456363636363" y="-447.1843636363636" type="curve"/>
      <point x="786.2456363636363" y="-203.94454545454545" type="line"/>
      <point x="665.7651818181819" y="-203.94454545454545" type="line" smooth="yes"/>
      <point x="564.0834545454545" y="-203.94454545454545"/>
      <point x="512.2789090909091" y="-163.43609090909092"/>
      <point x="512.2789090909091" y="-62.866090909090914" type="curve" smooth="yes"/>
      <point x="512.2789090909091" y="364.43581818181815" type="line" smooth="yes"/>
      <point x="512.2789090909091" y="542.6703636363636"/>
      <point x="422.63654545454546" y="640.0110909090909"/>
      <point x="192.30163636363636" y="647.7094545454545" type="curve"/>
      <point x="192.30163636363636" y="610.3687272727273" type="line"/>
      <point x="422.63654545454546" y="618.0670909090909"/>
      <point x="512.2789090909091" y="715.4078181818181"/>
      <point x="512.2789090909091" y="893.6423636363636" type="curve" smooth="yes"/>
      <point x="512.2789090909091" y="1238.8660909090909" type="line" smooth="yes"/>
      <point x="512.2789090909091" y="1339.436090909091"/>
      <point x="564.0834545454545" y="1379.9445454545455"/>
      <point x="665.7651818181819" y="1379.9445454545455" type="curve" smooth="yes"/>
      <point x="786.2456363636363" y="1379.9445454545455" type="line"/>
      <point x="786.2456363636363" y="1623.1843636363637" type="line"/>
      <point x="737.2400909090909" y="1630.5921818181819"/>
      <point x="679.2736363636363" y="1636.0"/>
      <point x="612.0446363636364" y="1636.0" type="curve" smooth="yes"/>
      <point x="334.4358181818182" y="1636.0"/>
      <point x="192.98336363636363" y="1501.5475454545453"/>
      <point x="192.98336363636363" y="1248.056" type="curve" smooth="yes"/>
      <point x="192.98336363636363" y="886.458" type="line" smooth="yes"/>
      <point x="192.98336363636363" y="801.6199090909091"/>
      <point x="143.65372727272728" y="754.659"/>
      <point x="61.776545454545456" y="754.659" type="curve" smooth="yes"/>
      <point x="9.469363636363639" y="754.659" type="line"/>
      <point x="9.469363636363639" y="503.4191818181818" type="line"/>
      <point x="61.776545454545456" y="503.4191818181818" type="line" smooth="yes"/>
      <point x="143.65372727272728" y="503.4191818181818"/>
      <point x="192.98336363636363" y="456.45827272727274"/>
      <point x="192.98336363636363" y="371.62018181818183" type="curve" smooth="yes"/>
      <point x="192.98336363636363" y="-72.056" type="line" smooth="yes"/>
      <point x="192.98336363636363" y="-325.54754545454546"/>
      <point x="334.4358181818182" y="-460.0"/>
    </contour>
  </outline>
</glyph>
<glyph name="bar" format="2">
  <advance width="553.5863636363637"/>
  <unicode hex="007C"/>
  <outline>
    <contour>
      <point x="132.98336363636363" y="-440.0" type="line"/>
      <point x="420.60299999999995" y="-440.0" type="line"/>
      <point x="420.60299999999995" y="1616.0" type="line"/>
      <point x="132.98336363636363" y="1616.0" type="line"/>
    </contour>
  </outline>
</glyph>
<glyph name="braceright" format="2">
  <advance width="756.1003636363637"/>
  <unicode hex="007D"/>
  <outline>
    <contour>
      <point x="144.05572727272727" y="-460.0" type="curve" smooth="yes"/>
      <point x="421.6645454545454" y="-460.0"/>
      <point x="563.117" y="-325.54754545454546"/>
      <point x="563.117" y="-72.056" type="curve" smooth="yes"/>
      <point x="563.117" y="371.62018181818183" type="line" smooth="yes"/>
      <point x="563.117" y="456.45827272727274"/>
      <point x="612.4466363636363" y="503.4191818181818"/>
      <point x="694.3238181818182" y="503.4191818181818" type="curve" smooth="yes"/>
      <point x="746.631" y="503.4191818181818" type="line"/>
      <point x="746.631" y="754.659" type="line"/>
      <point x="694.3238181818182" y="754.659" type="line" smooth="yes"/>
      <point x="612.4466363636363" y="754.659"/>
      <point x="563.117" y="801.6199090909091"/>
      <point x="563.117" y="886.458" type="curve" smooth="yes"/>
      <point x="563.117" y="1248.056" type="line" smooth="yes"/>
      <point x="563.117" y="1501.5475454545453"/>
      <point x="421.6645454545454" y="1636.0"/>
      <point x="144.05572727272727" y="1636.0" type="curve" smooth="yes"/>
      <point x="76.82672727272728" y="1636.0"/>
      <point x="18.86027272727273" y="1630.5921818181819"/>
      <point x="-30.145272727272726" y="1623.1843636363637" type="curve"/>
      <point x="-30.145272727272726" y="1379.9445454545455" type="line"/>
      <point x="90.33518181818182" y="1379.9445454545455" type="line" smooth="yes"/>
      <point x="192.01690909090908" y="1379.9445454545455"/>
      <point x="243.82145454545454" y="1339.436090909091"/>
      <point x="243.82145454545454" y="1238.8660909090909" type="curve" smooth="yes"/>
      <point x="243.82145454545454" y="893.6423636363636" type="line" smooth="yes"/>
      <point x="243.82145454545454" y="715.4078181818181"/>
      <point x="335.5755454545455" y="618.0670909090909"/>
      <point x="563.7987272727273" y="610.3687272727273" type="curve"/>
      <point x="563.7987272727273" y="647.7094545454545" type="line"/>
      <point x="335.5755454545455" y="640.0110909090909"/>
      <point x="243.82145454545454" y="542.6703636363636"/>
      <point x="243.82145454545454" y="364.43581818181815" type="curve" smooth="yes"/>
      <point x="243.82145454545454" y="-62.866090909090914" type="line" smooth="yes"/>
      <point x="243.82145454545454" y="-163.43609090909092"/>
      <point x="192.01690909090908" y="-203.94454545454545"/>
      <point x="90.33518181818182" y="-203.94454545454545" type="curve" smooth="yes"/>
      <point x="-30.145272727272726" y="-203.94454545454545" type="line"/>
      <point x="-30.145272727272726" y="-447.1843636363636" type="line"/>
      <point x="18.86027272727273" y="-454.5921818181818"/>
      <point x="76.82672727272728" y="-460.0"/>
    </contour>
  </outline>
</glyph>
<glyph name="asciitilde" format="2">
  <advance width="1100.0110909090909"/>
  <unicode hex="007E"/>
  <outline>
    <contour>
      <point x="745.9384545454545" y="579.5309090909091" type="curve" smooth="yes"/>
      <point x="847.1674545454546" y="579.5309090909091"/>
      <point x="921.3909090909091" y="610.1230909090909"/>
      <point x="982.9886363636364" y="677.9778181818182" type="curve"/>
      <point x="982.9886363636364" y="928.9159999999999" type="line"/>
      <point x="909.2791818181818" y="852.6925454545454"/>
      <point x="838.944" y="819.5081818181818"/>
      <point x="748.1619090909091" y="819.5081818181818" type="curve" smooth="yes"/>
      <point x="624.4524545454545" y="819.5081818181818"/>
      <point x="508.5977272727273" y="936.9159999999999"/>
      <point x="354.0726363636364" y="936.9159999999999" type="curve" smooth="yes"/>
      <point x="252.84363636363636" y="936.9159999999999"/>
      <point x="178.6201818181818" y="906.3238181818182"/>
      <point x="117.02245454545455" y="838.4690909090909" type="curve"/>
      <point x="117.02245454545455" y="587.5309090909091" type="line"/>
      <point x="190.73190909090908" y="663.7543636363637"/>
      <point x="261.0670909090909" y="696.9387272727273"/>
      <point x="351.8491818181818" y="696.9387272727273" type="curve" smooth="yes"/>
      <point x="475.55863636363637" y="696.9387272727273"/>
      <point x="591.4133636363637" y="579.5309090909091"/>
    </contour>
  </outline>
</glyph>
<glyph name="exclamdown" format="2">
  <advance width="596.6365454545455"/>
  <unicode hex="00A1"/>
  <outline>
    <contour>
      <point x="202.51954545454547" y="607.7321818181817" type="line"/>
      <point x="128.57554545454545" y="120.313" type="line"/>
      <point x="128.57554545454545" y="-380.0" type="line"/>
      <point x="468.061" y="-380.0" type="line"/>
      <point x="468.061" y="120.313" type="line"/>
      <point x="397.63654545454546" y="607.7321818181817" type="line"/>
    </contour>
    <contour>
      <point x="298.31827272727276" y="1111.1172727272726" type="curve" smooth="yes"/>
      <point x="172.9218181818182" y="1111.1172727272726"/>
      <point x="91.313" y="1037.1397272727272"/>
      <point x="91.313" y="917.4862727272728" type="curve" smooth="yes"/>
      <point x="91.313" y="797.8328181818182"/>
      <point x="170.10618181818182" y="723.2630909090909"/>
      <point x="298.31827272727276" y="723.2630909090909" type="curve" smooth="yes"/>
      <point x="426.53036363636363" y="723.2630909090909"/>
      <point x="505.32354545454547" y="800.6484545454546"/>
      <point x="505.32354545454547" y="917.4862727272728" type="curve" smooth="yes"/>
      <point x="505.32354545454547" y="1034.324090909091"/>
      <point x="423.71472727272726" y="1111.1172727272726"/>
    </contour>
  </outline>
</glyph>
<glyph name="cent" format="2">
  <advance width="966.8544545454545"/>
  <unicode hex="00A2"/>
  <outline>
    <contour>
      <point x="637.2511818181817" y="-20.815636363636365" type="curve" smooth="yes"/>
      <point x="736.4410909090909" y="-20.815636363636365"/>
      <point x="834.1114545454545" y="-5.815636363636363"/>
      <point x="914.7762727272727" y="20.55309090909091" type="curve"/>
      <point x="914.7762727272727" y="272.97727272727275" type="line"/>
      <point x="822.4075454545455" y="247.83200000000002"/>
      <point x="755.7818181818182" y="236.64763636363637"/>
      <point x="687.1896363636364" y="236.64763636363637" type="curve" smooth="yes"/>
      <point x="496.35154545454543" y="236.64763636363637"/>
      <point x="398.2118181818182" y="322.70918181818183"/>
      <point x="398.2118181818182" y="548.2234545454545" type="curve" smooth="yes"/>
      <point x="398.2118181818182" y="765.626"/>
      <point x="494.31245454545456" y="854.0227272727273"/>
      <point x="713.3349090909092" y="854.0227272727273" type="curve" smooth="yes"/>
      <point x="780.631" y="854.0227272727273"/>
      <point x="844.2958181818182" y="846.8383636363636"/>
      <point x="914.7762727272727" y="833.5813636363637" type="curve"/>
      <point x="914.7762727272727" y="1086.0055454545454" type="line"/>
      <point x="839.145" y="1103.1899090909092"/>
      <point x="759.2902727272727" y="1111.486"/>
      <point x="670.5808181818181" y="1111.486" type="curve" smooth="yes"/>
      <point x="287.37427272727274" y="1111.486"/>
      <point x="69.285" y="931.6648181818182"/>
      <point x="69.285" y="544.9273636363637" type="curve" smooth="yes"/>
      <point x="69.285" y="162.8211818181818"/>
      <point x="270.743" y="-20.815636363636365"/>
    </contour>
    <contour>
      <point x="470.10063636363634" y="-240.0" type="line"/>
      <point x="742.4577272727273" y="-240.0" type="line"/>
      <point x="742.4577272727273" y="42.234545454545454" type="line"/>
      <point x="470.10063636363634" y="42.234545454545454" type="line"/>
    </contour>
    <contour>
      <point x="470.10063636363634" y="1051.8436363636363" type="line"/>
      <point x="742.4577272727273" y="1051.8436363636363" type="line"/>
      <point x="742.4577272727273" y="1334.0781818181817" type="line"/>
      <point x="470.10063636363634" y="1334.0781818181817" type="line"/>
    </contour>
  </outline>
</glyph>
<glyph name="sterling" format="2">
  <advance width="1343.7762727272727"/>
  <unicode hex="00A3"/>
  <outline>
    <contour>
      <point x="268.94981818181816" y="96.75963636363636" type="line"/>
      <point x="584.7258181818181" y="96.75963636363636" type="line"/>
      <point x="584.7258181818181" y="1015.3185454545454" type="line" smooth="yes"/>
      <point x="584.7258181818181" y="1174.0282727272727"/>
      <point x="672.0052727272728" y="1237.0171818181818"/>
      <point x="918.5919090909091" y="1237.0171818181818" type="curve" smooth="yes"/>
      <point x="1022.5919090909091" y="1237.0171818181818"/>
      <point x="1144.7091818181818" y="1221.6093636363637"/>
      <point x="1239.1505454545454" y="1194.9445454545455" type="curve"/>
      <point x="1239.1505454545454" y="1459.3351818181818" type="line"/>
      <point x="1145.3349090909092" y="1483.703909090909"/>
      <point x="1022.4801818181818" y="1499.4078181818181"/>
      <point x="897.659" y="1499.4078181818181" type="curve" smooth="yes"/>
      <point x="475.5530909090909" y="1499.4078181818181"/>
      <point x="268.94981818181816" y="1327.5084545454545"/>
      <point x="268.94981818181816" y="1002.6481818181818" type="curve" smooth="yes"/>
    </contour>
    <contour>
      <point x="72.9609090909091" y="0.0" type="line"/>
      <point x="1283.4857272727272" y="0.0" type="line"/>
      <point x="1283.4857272727272" y="259.68672727272724" type="line"/>
      <point x="72.9609090909091" y="259.68672727272724" type="line"/>
    </contour>
    <contour>
      <point x="72.9609090909091" y="631.4191818181819" type="line"/>
      <point x="1048.0332727272728" y="631.4191818181819" type="line"/>
      <point x="1048.0332727272728" y="868.5808181818181" type="line"/>
      <point x="72.9609090909091" y="868.5808181818181" type="line"/>
    </contour>
  </outline>
</glyph>
<glyph name="yen" format="2">
  <advance width="1299.8544545454545"/>
  <unicode hex="00A5"/>
  <outline>
    <contour>
      <point x="488.87163636363636" y="0.0" type="line"/>
      <point x="814.5023636363636" y="0.0" type="line"/>
      <point x="814.5023636363636" y="753.458" type="line"/>
      <point x="748.6365454545455" y="518.9611818181818" type="line"/>
      <point x="1334.6085454545455" y="1480.0" type="line"/>
      <point x="1013.8716363636364" y="1480.0" type="line"/>
      <point x="613.1619090909091" y="826.2902727272727" type="line"/>
      <point x="704.8824545454545" y="826.2902727272727" type="line"/>
      <point x="301.6531818181818" y="1480.0" type="line"/>
      <point x="-43.90490909090909" y="1480.0" type="line"/>
      <point x="554.7374545454545" y="518.9611818181818" type="line"/>
      <point x="488.87163636363636" y="757.6814545454546" type="line"/>
    </contour>
    <contour>
      <point x="175.91072727272729" y="261.5755454545455" type="line"/>
      <point x="1127.4632727272729" y="261.5755454545455" type="line"/>
      <point x="1127.4632727272729" y="450.87136363636364" type="line"/>
      <point x="175.91072727272729" y="450.87136363636364" type="line"/>
    </contour>
    <contour>
      <point x="175.91072727272729" y="597.1286363636364" type="line"/>
      <point x="1127.4632727272729" y="597.1286363636364" type="line"/>
      <point x="1127.4632727272729" y="786.4244545454545" type="line"/>
      <point x="175.91072727272729" y="786.4244545454545" type="line"/>
    </contour>
  </outline>
</glyph>
<glyph name="brokenbar" format="2">
  <advance width="553.5863636363637"/>
  <unicode hex="00A6"/>
  <outline>
    <contour>
      <point x="132.98336363636363" y="836.0" type="line"/>
      <point x="420.60299999999995" y="836.0" type="line"/>
      <point x="420.60299999999995" y="1616.0" type="line"/>
      <point x="132.98336363636363" y="1616.0" type="line"/>
    </contour>
    <contour>
      <point x="132.98336363636363" y="-440.0" type="line"/>
      <point x="420.60299999999995" y="-440.0" type="line"/>
      <point x="420.60299999999995" y="340.0" type="line"/>
      <point x="132.98336363636363" y="340.0" type="line"/>
    </contour>
  </outline>
</glyph>
<glyph name="section" format="2">
  <advance width="1109.2287272727272"/>
  <unicode hex="00A7"/>
  <outline>
    <contour>
      <point x="470.5697272727273" y="-20.815636363636365" type="curve" smooth="yes"/>
      <point x="801.1840909090909" y="-20.815636363636365"/>
      <point x="971.4186363636363" y="112.89381818181818"/>
      <point x="971.4186363636363" y="325.7540909090909" type="curve" smooth="yes"/>
      <point x="971.4186363636363" y="485.12836363636364"/>
      <point x="872.5583636363637" y="570.201"/>
      <point x="688.5639090909091" y="608.458" type="curve" smooth="yes"/>
      <point x="472.98309090909095" y="650.5361818181818" type="line" smooth="yes"/>
      <point x="383.40754545454547" y="669.458"/>
      <point x="353.7482727272727" y="710.3742727272727"/>
      <point x="353.7482727272727" y="770.1006363636363" type="curve" smooth="yes"/>
      <point x="353.7482727272727" y="816.6481818181818"/>
      <point x="374.374" y="856.7152727272727"/>
      <point x="422.55281818181817" y="902.6426363636364" type="curve"/>
      <point x="255.4078181818182" y="1013.9218181818181" type="line"/>
      <point x="154.47490909090908" y="954.5866363636363"/>
      <point x="91.76545454545455" y="868.9553636363636"/>
      <point x="91.76545454545455" y="753.0224545454546" type="curve" smooth="yes"/>
      <point x="91.76545454545455" y="576.6426363636364"/>
      <point x="195.84918181818182" y="482.34654545454543"/>
      <point x="368.028" y="446.79345454545455" type="curve" smooth="yes"/>
      <point x="582.9049090909091" y="404.7152727272727" type="line" smooth="yes"/>
      <point x="653.4749090909091" y="390.01690909090905"/>
      <point x="682.2068181818182" y="363.10063636363634"/>
      <point x="682.2068181818182" y="307.78763636363635" type="curve" smooth="yes"/>
      <point x="682.2068181818182" y="242.62545454545455"/>
      <point x="632.3687272727273" y="200.04436363636364"/>
      <point x="467.23454545454547" y="200.04436363636364" type="curve" smooth="yes"/>
      <point x="357.8211818181818" y="200.04436363636364"/>
      <point x="247.5530909090909" y="213.15609090909092"/>
      <point x="139.44136363636363" y="242.34045454545455" type="curve"/>
      <point x="139.44136363636363" y="20.888272727272728" type="line"/>
      <point x="243.0390909090909" y="-7.111727272727273"/>
      <point x="363.8267272727273" y="-20.815636363636365"/>
    </contour>
    <contour>
      <point x="842.2231818181818" y="457.9273636363636" type="line"/>
      <point x="948.7147272727273" y="518.3742727272727"/>
      <point x="1017.4632727272727" y="605.9329090909091"/>
      <point x="1017.4632727272727" y="729.2736363636363" type="curve" smooth="yes"/>
      <point x="1017.4632727272727" y="907.6534545454546"/>
      <point x="918.6030000000001" y="997.5417272727273"/>
      <point x="740.9437272727273" y="1032.9830909090908" type="curve" smooth="yes"/>
      <point x="519.0277272727272" y="1073.6534545454545" type="line" smooth="yes"/>
      <point x="448.4577272727273" y="1088.351818181818"/>
      <point x="419.9828181818182" y="1117.4133636363636"/>
      <point x="419.9828181818182" y="1166.581090909091" type="curve" smooth="yes"/>
      <point x="419.9828181818182" y="1223.894090909091"/>
      <point x="470.6756363636364" y="1276.5478181818182"/>
      <point x="679.3013636363636" y="1276.5478181818182" type="curve" smooth="yes"/>
      <point x="764.5248181818182" y="1276.5478181818182"/>
      <point x="845.0108181818182" y="1268.5478181818182"/>
      <point x="931.1951818181818" y="1248.7712727272728" type="curve"/>
      <point x="931.1951818181818" y="1470.2234545454546" type="line"/>
      <point x="850.2678181818183" y="1487.4078181818181"/>
      <point x="752.3349090909092" y="1497.4078181818181"/>
      <point x="656.0723636363637" y="1497.4078181818181" type="curve" smooth="yes"/>
      <point x="287.2625454545455" y="1497.4078181818181"/>
      <point x="130.771" y="1357.3296363636364"/>
      <point x="130.771" y="1149.502909090909" type="curve" smooth="yes"/>
      <point x="130.771" y="999.1677272727272"/>
      <point x="233.4469090909091" y="907.5755454545455"/>
      <point x="420.4078181818182" y="869.9107272727273" type="curve" smooth="yes"/>
      <point x="635.2847272727273" y="827.8325454545454" type="line" smooth="yes"/>
      <point x="724.8602727272728" y="808.9107272727273"/>
      <point x="755.4804545454546" y="770.1397272727272"/>
      <point x="755.4804545454546" y="707.7876363636364" type="curve" smooth="yes"/>
      <point x="755.4804545454546" y="657.7596363636363"/>
      <point x="732.0390909090909" y="621.3964545454545"/>
      <point x="668.1508181818182" y="573.5417272727273" type="curve"/>
    </contour>
  </outline>
</glyph>
<glyph name="copyright" format="2">
  <advance width="1663.4638181818182"/>
  <unicode hex="00A9"/>
  <outline>
    <contour>
      <point x="831.7319090909091" y="-22.0" type="curve" smooth="yes"/>
      <point x="1281.9553636363637" y="-22.0"/>
      <point x="1579.9553636363637" y="282.0"/>
      <point x="1579.9553636363637" y="740.0" type="curve" smooth="yes"/>
      <point x="1579.9553636363637" y="1198.0"/>
      <point x="1281.9553636363637" y="1502.0"/>
      <point x="831.7319090909091" y="1502.0" type="curve" smooth="yes"/>
      <point x="381.5084545454545" y="1502.0"/>
      <point x="83.50845454545454" y="1198.0"/>
      <point x="83.50845454545454" y="740.0" type="curve" smooth="yes"/>
      <point x="83.50845454545454" y="282.0"/>
      <point x="381.5084545454545" y="-22.0"/>
    </contour>
    <contour>
      <point x="891.0726363636363" y="324.0" type="curve" smooth="yes"/>
      <point x="971.8882727272727" y="324.0"/>
      <point x="1043.8882727272728" y="336.0"/>
      <point x="1099.2179090909092" y="357.5530909090909" type="curve"/>
      <point x="1099.2179090909092" y="553.0723636363637" type="line"/>
      <point x="1020.0335454545454" y="530.9270909090909"/>
      <point x="969.1508181818182" y="523.7427272727273"/>
      <point x="912.5586363636363" y="523.7427272727273" type="curve" smooth="yes"/>
      <point x="775.687" y="523.7427272727273"/>
      <point x="695.9215454545455" y="594.3238181818182"/>
      <point x="695.9215454545455" y="733.7765454545455" type="curve" smooth="yes"/>
      <point x="695.9215454545455" y="872.8605454545454"/>
      <point x="771.4635454545455" y="944.2572727272727"/>
      <point x="927.5195454545454" y="944.2572727272727" type="curve" smooth="yes"/>
      <point x="987.6648181818182" y="944.2572727272727"/>
      <point x="1038.6257272727273" y="937.0729090909091"/>
      <point x="1099.2179090909092" y="924.7041818181818" type="curve"/>
      <point x="1099.2179090909092" y="1120.2234545454546" type="line"/>
      <point x="1040.849181818182" y="1136.0"/>
      <point x="979.4413636363637" y="1144.0"/>
      <point x="907.2179090909091" y="1144.0" type="curve" smooth="yes"/>
      <point x="631.9553636363636" y="1144.0"/>
      <point x="463.4302727272727" y="993.1843636363636"/>
      <point x="463.4302727272727" y="732.5921818181819" type="curve" smooth="yes"/>
      <point x="463.4302727272727" y="470.4469090909091"/>
      <point x="631.5084545454546" y="324.0"/>
    </contour>
    <contour>
      <point x="831.7319090909091" y="147.3629090909091" type="curve" smooth="yes"/>
      <point x="473.5977272727273" y="147.3629090909091"/>
      <point x="259.91045454545457" y="376.9049090909091"/>
      <point x="259.91045454545457" y="740.0" type="curve" smooth="yes"/>
      <point x="259.91045454545457" y="1103.095090909091"/>
      <point x="473.5977272727273" y="1332.6370909090908"/>
      <point x="831.7319090909091" y="1332.6370909090908" type="curve" smooth="yes"/>
      <point x="1189.8660909090909" y="1332.6370909090908"/>
      <point x="1403.5533636363637" y="1103.095090909091"/>
      <point x="1403.5533636363637" y="740.0" type="curve" smooth="yes"/>
      <point x="1403.5533636363637" y="376.9049090909091"/>
      <point x="1189.8660909090909" y="147.3629090909091"/>
    </contour>
  </outline>
</glyph>
<glyph name="ordfeminine" format="2">
  <advance width="936.402"/>
  <unicode hex="00AA"/>
  <outline>
    <contour>
      <point x="335.8100909090909" y="593.1843636363636" type="curve" smooth="yes"/>
      <point x="432.7319090909091" y="593.1843636363636"/>
      <point x="522.3576363636364" y="625.2179090909091"/>
      <point x="575.0950909090909" y="697.2179090909091" type="curve"/>
      <point x="588.8380909090909" y="697.2179090909091" type="line"/>
      <point x="610.324090909091" y="610.0" type="line"/>
      <point x="855.6756363636364" y="610.0" type="line"/>
      <point x="855.6756363636364" y="1115.7152727272728" type="line" smooth="yes"/>
      <point x="855.6756363636364" y="1400.8827272727274"/>
      <point x="721.1505454545454" y="1499.0390909090909"/>
      <point x="416.78763636363635" y="1499.0390909090909" type="curve" smooth="yes"/>
      <point x="321.0055454545454" y="1499.0390909090909"/>
      <point x="207.5921818181818" y="1486.446909090909"/>
      <point x="113.06709090909091" y="1460.8547272727274" type="curve"/>
      <point x="113.06709090909091" y="1245.5142727272728" type="line"/>
      <point x="193.3240909090909" y="1268.475181818182"/>
      <point x="284.2514545454545" y="1280.7712727272726"/>
      <point x="360.29054545454545" y="1280.7712727272726" type="curve" smooth="yes"/>
      <point x="516.2514545454545" y="1280.7712727272726"/>
      <point x="561.4973636363636" y="1244.033818181818"/>
      <point x="561.4973636363636" y="1152.9107272727272" type="curve" smooth="yes"/>
      <point x="561.4973636363636" y="832.2345454545455" type="line"/>
      <point x="527.028" y="801.8824545454545"/>
      <point x="482.04463636363636" y="789.631"/>
      <point x="443.46909090909094" y="789.631" type="curve" smooth="yes"/>
      <point x="368.4130909090909" y="789.631"/>
      <point x="329.2733636363637" y="822.7707272727273"/>
      <point x="329.2733636363637" y="885.0892727272727" type="curve" smooth="yes"/>
      <point x="329.2733636363637" y="943.5195454545454"/>
      <point x="366.5974545454545" y="975.771"/>
      <point x="458.1674545454546" y="982.5084545454546" type="curve" smooth="yes"/>
      <point x="643.5475454545455" y="994.2068181818182" type="line"/>
      <point x="608.1677272727272" y="1138.379818181818" type="line"/>
      <point x="414.9329090909091" y="1125.2736363636363" type="line" smooth="yes"/>
      <point x="148.13972727272727" y="1110.7205454545456"/>
      <point x="38.83809090909091" y="1020.2736363636363"/>
      <point x="38.83809090909091" y="849.5250909090909" type="curve" smooth="yes"/>
      <point x="38.83809090909091" y="699.189909090909"/>
      <point x="143.2459090909091" y="593.1843636363636"/>
    </contour>
  </outline>
</glyph>
<glyph name="logicalnot" format="2">
  <advance width="1332.5921818181819"/>
  <unicode hex="00AC"/>
  <outline>
    <contour>
      <point x="967.1064545454545" y="197.63127272727272" type="line"/>
      <point x="1222.3462727272727" y="197.63127272727272" type="line"/>
      <point x="1222.3462727272727" y="882.1003636363637" type="line"/>
      <point x="117.02245454545455" y="882.1003636363637" type="line"/>
      <point x="117.02245454545455" y="637.8996363636363" type="line"/>
      <point x="967.1064545454545" y="637.8996363636363" type="line"/>
    </contour>
  </outline>
</glyph>
<glyph name="registered" format="2">
  <advance width="1437.2292727272727"/>
  <unicode hex="00AE"/>
  <outline>
    <contour>
      <point x="718.6146363636364" y="268.0" type="curve" smooth="yes"/>
      <point x="1080.6146363636365" y="268.0"/>
      <point x="1328.6146363636365" y="518.0"/>
      <point x="1328.6146363636365" y="882.0" type="curve" smooth="yes"/>
      <point x="1328.6146363636365" y="1246.0"/>
      <point x="1080.6146363636365" y="1498.0"/>
      <point x="718.6146363636364" y="1498.0" type="curve" smooth="yes"/>
      <point x="356.61463636363635" y="1498.0"/>
      <point x="108.61463636363636" y="1246.0"/>
      <point x="108.61463636363636" y="882.0" type="curve" smooth="yes"/>
      <point x="108.61463636363636" y="518.0"/>
      <point x="356.61463636363635" y="268.0"/>
    </contour>
    <contour>
      <point x="845.9331818181818" y="600.0" type="line"/>
      <point x="996.5475454545455" y="600.0" type="line"/>
      <point x="837.4413636363637" y="831.8436363636364" type="line"/>
      <point x="704.2348181818181" y="805.8436363636364" type="line"/>
    </contour>
    <contour>
      <point x="718.6146363636364" y="397.3518181818182" type="curve" smooth="yes"/>
      <point x="432.8491818181818" y="397.3518181818182"/>
      <point x="247.00554545454546" y="588.0110909090909"/>
      <point x="247.00554545454546" y="882.0" type="curve" smooth="yes"/>
      <point x="247.00554545454546" y="1177.3967272727273"/>
      <point x="432.8491818181818" y="1368.648181818182"/>
      <point x="718.6146363636364" y="1368.648181818182" type="curve" smooth="yes"/>
      <point x="1004.3800909090909" y="1368.648181818182"/>
      <point x="1190.2237272727273" y="1177.3967272727273"/>
      <point x="1190.2237272727273" y="882.0" type="curve" smooth="yes"/>
      <point x="1190.2237272727273" y="588.0110909090909"/>
      <point x="1004.3800909090909" y="397.3518181818182"/>
    </contour>
    <contour>
      <point x="500.7599090909091" y="600.0" type="line"/>
      <point x="637.1508181818182" y="600.0" type="line"/>
      <point x="641.3742727272727" y="797.8436363636364" type="line"/>
      <point x="708.8380909090909" y="797.8436363636364" type="line" smooth="yes"/>
      <point x="883.5084545454546" y="797.8436363636364"/>
      <point x="966.9162727272727" y="862.4358181818181"/>
      <point x="966.9162727272727" y="993.9218181818181" type="curve" smooth="yes"/>
      <point x="966.9162727272727" y="1125.4078181818181"/>
      <point x="881.5084545454546" y="1192.0"/>
      <point x="708.8380909090909" y="1192.0" type="curve" smooth="yes"/>
      <point x="500.7599090909091" y="1192.0" type="line"/>
    </contour>
    <contour>
      <point x="641.3742727272727" y="909.1172727272727" type="line"/>
      <point x="641.3742727272727" y="1080.7263636363637" type="line"/>
      <point x="730.6928181818182" y="1080.7263636363637" type="line" smooth="yes"/>
      <point x="797.6426363636364" y="1080.7263636363637"/>
      <point x="833.341" y="1051.9889090909091"/>
      <point x="833.341" y="993.9218181818181" type="curve" smooth="yes"/>
      <point x="833.341" y="935.8547272727272"/>
      <point x="799.6426363636364" y="909.1172727272727"/>
      <point x="730.6928181818182" y="909.1172727272727" type="curve" smooth="yes"/>
    </contour>
  </outline>
</glyph>
<glyph name="degree" format="2">
  <advance width="971.3296363636364"/>
  <unicode hex="00B0"/>
  <outline>
    <contour>
      <point x="485.6648181818182" y="754.5699999999999" type="curve" smooth="yes"/>
      <point x="703.5977272727273" y="754.5699999999999"/>
      <point x="862.715" y="911.4638181818182"/>
      <point x="862.715" y="1127.3967272727273" type="curve" smooth="yes"/>
      <point x="862.715" y="1343.3296363636364"/>
      <point x="703.5977272727273" y="1498.8156363636363"/>
      <point x="485.6648181818182" y="1498.8156363636363" type="curve" smooth="yes"/>
      <point x="267.7319090909091" y="1498.8156363636363"/>
      <point x="108.61463636363636" y="1343.3296363636364"/>
      <point x="108.61463636363636" y="1127.3967272727273" type="curve" smooth="yes"/>
      <point x="108.61463636363636" y="911.4638181818182"/>
      <point x="267.7319090909091" y="754.5699999999999"/>
    </contour>
    <contour>
      <point x="485.6648181818182" y="940.3462727272728" type="curve" smooth="yes"/>
      <point x="382.7540909090909" y="940.3462727272728"/>
      <point x="306.54172727272726" y="1011.9664545454546"/>
      <point x="306.54172727272726" y="1127.3967272727273" type="curve" smooth="yes"/>
      <point x="306.54172727272726" y="1243.530909090909"/>
      <point x="384.1619090909091" y="1313.0393636363635"/>
      <point x="485.6648181818182" y="1313.0393636363635" type="curve" smooth="yes"/>
      <point x="587.1677272727272" y="1313.0393636363635"/>
      <point x="664.7879090909091" y="1243.530909090909"/>
      <point x="664.7879090909091" y="1127.3967272727273" type="curve" smooth="yes"/>
      <point x="664.7879090909091" y="1011.9664545454546"/>
      <point x="588.5755454545455" y="940.3462727272728"/>
    </contour>
  </outline>
</glyph>
<glyph name="plusminus" format="2">
  <advance width="1100.0110909090909"/>
  <unicode hex="00B1"/>
  <outline>
    <contour>
      <point x="422.38563636363637" y="373.72054545454546" type="line"/>
      <point x="677.6254545454545" y="373.72054545454546" type="line"/>
      <point x="677.6254545454545" y="671.6312727272727" type="line"/>
      <point x="982.9886363636364" y="671.6312727272727" type="line"/>
      <point x="982.9886363636364" y="915.832" type="line"/>
      <point x="677.6254545454545" y="915.832" type="line"/>
      <point x="677.6254545454545" y="1213.7427272727273" type="line"/>
      <point x="422.38563636363637" y="1213.7427272727273" type="line"/>
      <point x="422.38563636363637" y="915.832" type="line"/>
      <point x="117.02245454545455" y="915.832" type="line"/>
      <point x="117.02245454545455" y="671.6312727272727" type="line"/>
      <point x="422.38563636363637" y="671.6312727272727" type="line"/>
    </contour>
    <contour>
      <point x="117.02245454545455" y="0.7039090909090909" type="line"/>
      <point x="982.9886363636364" y="0.7039090909090909" type="line"/>
      <point x="982.9886363636364" y="244.90463636363637" type="line"/>
      <point x="117.02245454545455" y="244.90463636363637" type="line"/>
    </contour>
  </outline>
</glyph>
<glyph name="micro" format="2">
  <advance width="1213.5583636363635"/>
  <unicode hex="00B5"/>
  <outline>
    <contour>
      <point x="553.5752727272727" y="-18.70390909090909" type="curve" smooth="yes"/>
      <point x="646.3798181818182" y="-18.70390909090909"/>
      <point x="730.5530909090909" y="25.480454545454545"/>
      <point x="796.3967272727273" y="109.92181818181818" type="curve"/>
      <point x="810.028" y="109.92181818181818" type="line"/>
      <point x="831.514" y="0.0" type="line"/>
      <point x="1094.9437272727273" y="0.0" type="line"/>
      <point x="1094.9437272727273" y="1094.0781818181817" type="line"/>
      <point x="775.6481818181818" y="1094.0781818181817" type="line"/>
      <point x="775.6481818181818" y="345.36845454545454" type="line"/>
      <point x="726.2905454545455" y="285.64763636363637"/>
      <point x="646.3462727272728" y="256.3570909090909"/>
      <point x="578.8042727272727" y="256.3570909090909" type="curve" smooth="yes"/>
      <point x="488.97172727272726" y="256.3570909090909"/>
      <point x="429.54145454545454" y="299.089"/>
      <point x="429.54145454545454" y="430.916" type="curve" smooth="yes"/>
      <point x="429.54145454545454" y="631.8990909090909" type="line"/>
      <point x="271.73163636363637" y="631.8990909090909" type="line"/>
      <point x="271.73163636363637" y="409.3909090909091" type="line" smooth="yes"/>
      <point x="271.73163636363637" y="99.34072727272726"/>
      <point x="386.2120909090909" y="-18.70390909090909"/>
    </contour>
    <contour>
      <point x="110.2459090909091" y="-440.0" type="line"/>
      <point x="429.54145454545454" y="-440.0" type="line"/>
      <point x="429.54145454545454" y="1093.3742727272727" type="line"/>
      <point x="110.2459090909091" y="1093.3742727272727" type="line"/>
    </contour>
  </outline>
</glyph>
<glyph name="paragraph" format="2">
  <advance width="1317.0388181818182"/>
  <unicode hex="00B6"/>
  <outline>
    <contour>
      <point x="601.2963636363636" y="0.0" type="line"/>
      <point x="827.675909090909" y="0.0" type="line"/>
      <point x="827.675909090909" y="1480.0" type="line"/>
      <point x="743.0446363636364" y="1491.5195454545456"/>
      <point x="643.5977272727273" y="1498.2234545454546"/>
      <point x="546.189909090909" y="1498.2234545454546" type="curve" smooth="yes"/>
      <point x="222.54754545454546" y="1498.2234545454546"/>
      <point x="72.95536363636364" y="1333.8491818181817"/>
      <point x="72.95536363636364" y="963.3576363636364" type="curve" smooth="yes"/>
      <point x="72.95536363636364" y="612.1621818181818"/>
      <point x="218.17881818181817" y="428.60354545454544"/>
      <point x="508.1677272727273" y="428.60354545454544" type="curve" smooth="yes"/>
      <point x="542.5309090909091" y="428.60354545454544"/>
      <point x="569.8214545454546" y="430.19572727272725"/>
      <point x="601.2963636363636" y="432.26836363636363" type="curve"/>
    </contour>
    <contour>
      <point x="957.675909090909" y="0.0" type="line"/>
      <point x="1184.0554545454545" y="0.0" type="line"/>
      <point x="1184.0554545454545" y="1480.0" type="line"/>
      <point x="957.675909090909" y="1480.0" type="line"/>
    </contour>
  </outline>
</glyph>
<glyph name="ordmasculine" format="2">
  <advance width="1009.5863636363637"/>
  <unicode hex="00BA"/>
  <outline>
    <contour>
      <point x="504.79318181818184" y="593.1843636363636" type="curve" smooth="yes"/>
      <point x="795.2231818181818" y="593.1843636363636"/>
      <point x="964.0443636363636" y="756.8602727272728"/>
      <point x="964.0443636363636" y="1046.703909090909" type="curve" smooth="yes"/>
      <point x="964.0443636363636" y="1336.5475454545453"/>
      <point x="795.2231818181818" y="1499.0390909090909"/>
      <point x="504.79318181818184" y="1499.0390909090909" type="curve" smooth="yes"/>
      <point x="214.36318181818183" y="1499.0390909090909"/>
      <point x="45.541999999999994" y="1340.067090909091"/>
      <point x="45.541999999999994" y="1046.703909090909" type="curve" smooth="yes"/>
      <point x="45.541999999999994" y="753.3407272727272"/>
      <point x="214.36318181818183" y="593.1843636363636"/>
    </contour>
    <contour>
      <point x="504.79318181818184" y="811.7482727272727" type="curve" smooth="yes"/>
      <point x="406.631" y="811.7482727272727"/>
      <point x="341.6085454545455" y="867.1059090909091"/>
      <point x="341.6085454545455" y="1046.703909090909" type="curve" smooth="yes"/>
      <point x="341.6085454545455" y="1227.005818181818"/>
      <point x="406.631" y="1280.475181818182"/>
      <point x="504.79318181818184" y="1280.475181818182" type="curve" smooth="yes"/>
      <point x="604.3631818181818" y="1280.475181818182"/>
      <point x="667.9778181818182" y="1227.005818181818"/>
      <point x="667.9778181818182" y="1046.703909090909" type="curve" smooth="yes"/>
      <point x="667.9778181818182" y="867.1059090909091"/>
      <point x="604.3631818181818" y="811.7482727272727"/>
    </contour>
  </outline>
</glyph>
<glyph name="questiondown" format="2">
  <advance width="991.670090909091"/>
  <unicode hex="00BF"/>
  <outline>
    <contour>
      <point x="645.7482727272727" y="630.7712727272727" type="line"/>
      <point x="450.63127272727274" y="630.7712727272727" type="line"/>
      <point x="427.257" y="416.11727272727273" type="line"/>
      <point x="182.86027272727273" y="340.53618181818183"/>
      <point x="50.625727272727275" y="209.201"/>
      <point x="50.625727272727275" y="-2.6537272727272665" type="curve" smooth="yes"/>
      <point x="50.625727272727275" y="-255.73745454545454"/>
      <point x="231.78209090909093" y="-400.0"/>
      <point x="591.362909090909" y="-400.0" type="curve" smooth="yes"/>
      <point x="717.0332727272728" y="-400.0"/>
      <point x="864.117" y="-378.1843636363636"/>
      <point x="960.3404545454546" y="-345.29609090909094" type="curve"/>
      <point x="960.3404545454546" y="-94.98363636363635" type="line"/>
      <point x="859.9717272727273" y="-130.4640909090909"/>
      <point x="738.670090909091" y="-150.27972727272729"/>
      <point x="628.2622727272727" y="-150.27972727272729" type="curve" smooth="yes"/>
      <point x="443.4241818181818" y="-150.27972727272729"/>
      <point x="362.06654545454546" y="-88.51427272727273"/>
      <point x="362.06654545454546" y="24.094818181818184" type="curve" smooth="yes"/>
      <point x="362.06654545454546" y="133.18436363636363"/>
      <point x="436.06100000000004" y="208.8771818181818"/>
      <point x="700.6867272727272" y="263.4191818181818" type="curve"/>
    </contour>
    <contour>
      <point x="547.8378181818182" y="1111.1172727272726" type="curve" smooth="yes"/>
      <point x="421.8491818181818" y="1111.1172727272726"/>
      <point x="340.8325454545454" y="1036.5475454545453"/>
      <point x="340.8325454545454" y="926.637090909091" type="curve" smooth="yes"/>
      <point x="340.8325454545454" y="816.1344545454546"/>
      <point x="419.62572727272726" y="741.5647272727273"/>
      <point x="547.8378181818182" y="741.5647272727273" type="curve" smooth="yes"/>
      <point x="676.0499090909091" y="741.5647272727273"/>
      <point x="754.843090909091" y="813.3188181818182"/>
      <point x="754.843090909091" y="926.637090909091" type="curve" smooth="yes"/>
      <point x="754.843090909091" y="1039.3631818181818"/>
      <point x="673.2342727272727" y="1111.1172727272726"/>
    </contour>
  </outline>
</glyph>
<glyph name="AE" format="2">
  <advance width="2006.2955454545454"/>
  <unicode hex="00C6"/>
  <anchor x="1052.3629090909092" y="0.0" name="bottom"/>
  <anchor x="1025.4186363636363" y="1520.0" name="top"/>
  <outline>
    <contour>
      <point x="13.770999999999999" y="0.0" type="line"/>
      <point x="333.1391818181818" y="0.0" type="line"/>
      <point x="716.2400909090909" y="1219.721090909091" type="line"/>
      <point x="1017.4912727272728" y="1219.721090909091" type="line"/>
      <point x="1018.0834545454545" y="1480.0" type="line"/>
      <point x="494.855" y="1480.0" type="line"/>
    </contour>
    <contour>
      <point x="348.4244545454545" y="394.2572727272727" type="line"/>
      <point x="1029.5137272727272" y="394.2572727272727" type="line"/>
      <point x="1029.5137272727272" y="654.5361818181818" type="line"/>
      <point x="418.402" y="654.5361818181818" type="line"/>
    </contour>
    <contour>
      <point x="977.8322727272728" y="0.0" type="line"/>
      <point x="1934.5916363636363" y="0.0" type="line"/>
      <point x="1934.5916363636363" y="260.2789090909091" type="line"/>
      <point x="1278.641818181818" y="260.2789090909091" type="line"/>
      <point x="1200.4965454545454" y="1219.721090909091" type="line"/>
      <point x="1924.5916363636363" y="1219.721090909091" type="line"/>
      <point x="1924.5916363636363" y="1480.0" type="line"/>
      <point x="866.9384545454545" y="1480.0" type="line"/>
    </contour>
    <contour>
      <point x="1089.2342727272728" y="626.637090909091" type="line"/>
      <point x="1822.5525454545455" y="626.637090909091" type="line"/>
      <point x="1822.5525454545455" y="886.9159999999999" type="line"/>
      <point x="1089.2342727272728" y="886.9159999999999" type="line"/>
    </contour>
  </outline>
</glyph>
<glyph name="multiply" format="2">
  <advance width="1040.7596363636364"/>
  <unicode hex="00D7"/>
  <outline>
    <contour>
      <point x="258.8378181818182" y="326.34654545454543" type="line"/>
      <point x="520.3798181818182" y="587.8885454545455" type="line"/>
      <point x="781.9218181818181" y="326.34654545454543" type="line"/>
      <point x="954.0332727272728" y="498.45799999999997" type="line"/>
      <point x="692.4912727272728" y="760.0" type="line"/>
      <point x="954.0332727272728" y="1021.542" type="line"/>
      <point x="781.9218181818181" y="1193.6534545454545" type="line"/>
      <point x="520.3798181818182" y="932.1114545454545" type="line"/>
      <point x="258.8378181818182" y="1193.6534545454545" type="line"/>
      <point x="86.72636363636363" y="1021.542" type="line"/>
      <point x="348.26836363636363" y="760.0" type="line"/>
      <point x="86.72636363636363" y="498.45799999999997" type="line"/>
    </contour>
  </outline>
</glyph>
<glyph name="Thorn" format="2">
  <advance width="1327.0388181818182"/>
  <unicode hex="00DE"/>
  <outline>
    <contour>
      <point x="132.98336363636363" y="0.0" type="line"/>
      <point x="458.6140909090909" y="0.0" type="line"/>
      <point x="458.6140909090909" y="230.20681818181816" type="line"/>
      <point x="507.346" y="227.8380909090909"/>
      <point x="552.2287272727273" y="225.542"/>
      <point x="604.4801818181818" y="225.542" type="curve" smooth="yes"/>
      <point x="1027.888" y="225.542"/>
      <point x="1244.0834545454545" y="407.6928181818182"/>
      <point x="1244.0834545454545" y="760.2960909090909" type="curve" smooth="yes"/>
      <point x="1244.0834545454545" y="1130.7876363636365"/>
      <point x="1022.9270909090909" y="1295.1619090909091"/>
      <point x="586.3127272727272" y="1295.1619090909091" type="curve" smooth="yes"/>
      <point x="539.0723636363637" y="1295.1619090909091"/>
      <point x="493.4186363636363" y="1290.793181818182"/>
      <point x="458.6140909090909" y="1287.240090909091" type="curve"/>
      <point x="458.6140909090909" y="1480.296090909091" type="line"/>
      <point x="132.98336363636363" y="1480.296090909091" type="line"/>
    </contour>
    <contour>
      <point x="605.3684545454546" y="470.3349090909091" type="curve" smooth="yes"/>
      <point x="549.820909090909" y="470.3349090909091"/>
      <point x="506.97727272727275" y="472.9270909090909"/>
      <point x="458.6140909090909" y="478.70363636363635" type="curve"/>
      <point x="458.6140909090909" y="1038.2237272727273" type="line"/>
      <point x="505.71472727272726" y="1046.5924545454545"/>
      <point x="551.1840909090909" y="1050.369"/>
      <point x="610.9495454545454" y="1050.369" type="curve" smooth="yes"/>
      <point x="826.5475454545455" y="1050.369"/>
      <point x="927.827" y="963.1957272727273"/>
      <point x="927.827" y="758.0" type="curve" smooth="yes"/>
      <point x="927.827" y="554.0221818181818"/>
      <point x="827.7319090909091" y="470.3349090909091"/>
    </contour>
  </outline>
</glyph>
<glyph name="germandbls" format="2">
  <advance width="1568.1558181818182"/>
  <unicode hex="00DF"/>
  <outline>
    <contour>
      <point x="1011.832" y="-20.815636363636365" type="curve" smooth="yes"/>
      <point x="1341.8541818181818" y="-20.815636363636365"/>
      <point x="1519.1278181818182" y="112.89381818181818"/>
      <point x="1519.1278181818182" y="331.38536363636365" type="curve" smooth="yes"/>
      <point x="1519.1278181818182" y="522.4355454545455"/>
      <point x="1418.748" y="609.2120909090909"/>
      <point x="1223.6027272727274" y="646.3573636363636" type="curve" smooth="yes"/>
      <point x="1046.033" y="678.5808181818181" type="line" smooth="yes"/>
      <point x="973.9434545454545" y="693.2791818181818"/>
      <point x="948.3959090909091" y="721.6368181818182"/>
      <point x="948.3959090909091" y="768.6928181818182" type="curve" smooth="yes"/>
      <point x="948.3959090909091" y="827.4136363636363"/>
      <point x="994.8652727272727" y="878.6595454545454"/>
      <point x="1192.2284545454545" y="878.6595454545454" type="curve" smooth="yes"/>
      <point x="1252.4854545454546" y="878.6595454545454"/>
      <point x="1302.748" y="875.179090909091"/>
      <point x="1347.787090909091" y="869.2908181818182" type="curve"/>
      <point x="1366.8261818181818" y="943.4471818181818"/>
      <point x="1381.6418181818183" y="1024.3354545454545"/>
      <point x="1381.6418181818183" y="1109.7488181818183" type="curve" smooth="yes"/>
      <point x="1381.6418181818183" y="1477.1006363636363"/>
      <point x="1155.072090909091" y="1636.0"/>
      <point x="833.0834545454545" y="1636.0" type="curve" smooth="yes"/>
      <point x="435.6032727272727" y="1636.0"/>
      <point x="202.6201818181818" y="1418.1286363636364"/>
      <point x="202.6201818181818" y="1039.3745454545456" type="curve" smooth="yes"/>
      <point x="202.6201818181818" y="0.0" type="line"/>
      <point x="521.9157272727273" y="0.0" type="line"/>
      <point x="521.9157272727273" y="1042.5253636363636" type="line" smooth="yes"/>
      <point x="521.9157272727273" y="1298.7321818181817"/>
      <point x="632.7593636363636" y="1415.14"/>
      <point x="857.0163636363636" y="1415.14" type="curve" smooth="yes"/>
      <point x="1032.195181818182" y="1415.14"/>
      <point x="1154.3349090909092" y="1337.5142727272728"/>
      <point x="1154.0388181818182" y="1134.2012727272727" type="curve" smooth="yes"/>
      <point x="1154.0388181818182" y="1071.6035454545454"/>
      <point x="1144.5192727272727" y="1010.8605454545454"/>
      <point x="1128.888" y="952.4862727272728" type="curve"/>
      <point x="1307.3737272727271" y="1095.2625454545455" type="line"/>
      <point x="1265.4854545454546" y="1100.1508181818183"/>
      <point x="1187.586090909091" y="1102.446909090909"/>
      <point x="1147.8821818181818" y="1102.446909090909" type="curve" smooth="yes"/>
      <point x="817.7873636363636" y="1102.446909090909"/>
      <point x="651.4410909090909" y="971.1117272727273"/>
      <point x="651.4410909090909" y="760.8771818181818" type="curve" smooth="yes"/>
      <point x="651.4410909090909" y="587.2012727272727"/>
      <point x="740.0388181818182" y="483.7543636363636"/>
      <point x="946.0052727272728" y="446.0895454545455" type="curve" smooth="yes"/>
      <point x="1123.575" y="413.8660909090909" type="line" smooth="yes"/>
      <point x="1196.2567272727274" y="399.16772727272723"/>
      <point x="1222.173" y="373.6592727272727"/>
      <point x="1222.173" y="319.7540909090909" type="curve" smooth="yes"/>
      <point x="1222.173" y="252.48018181818185"/>
      <point x="1170.2231818181817" y="212.0108181818182"/>
      <point x="1007.9046363636364" y="212.0108181818182" type="curve" smooth="yes"/>
      <point x="902.7147272727273" y="212.0108181818182"/>
      <point x="779.0723636363637" y="228.346"/>
      <point x="680.1114545454545" y="254.7147272727273" type="curve"/>
      <point x="680.1114545454545" y="20.592181818181817" type="line"/>
      <point x="783.7091818181818" y="-7.407818181818182"/>
      <point x="906.6085454545455" y="-20.815636363636365"/>
    </contour>
    <contour>
      <point x="24.854727272727274" y="838.0227272727273" type="line"/>
      <point x="324.12281818181816" y="838.0227272727273" type="line"/>
      <point x="324.12281818181816" y="1094.0781818181817" type="line"/>
      <point x="24.854727272727274" y="1094.0781818181817" type="line"/>
    </contour>
  </outline>
</glyph>
<glyph name="ae" format="2">
  <advance width="1721.0668181818182"/>
  <unicode hex="00E6"/>
  <anchor x="857.983090909091" y="0.0" name="bottom"/>
  <anchor x="857.983090909091" y="1200.0" name="top"/>
  <outline>
    <contour>
      <point x="1284.9104545454545" y="-20.815636363636365" type="curve" smooth="yes"/>
      <point x="1385.3964545454546" y="-20.815636363636365"/>
      <point x="1486.8824545454545" y="-10.335181818181818"/>
      <point x="1603.295818181818" y="16.329636363636364" type="curve"/>
      <point x="1603.295818181818" y="255.37954545454545" type="line"/>
      <point x="1508.631" y="233.6420909090909"/>
      <point x="1412.6645454545455" y="220.45772727272725"/>
      <point x="1328.3293636363637" y="220.45772727272725" type="curve" smooth="yes"/>
      <point x="1083.552818181818" y="220.45772727272725"/>
      <point x="1007.4241818181818" y="290.62545454545455"/>
      <point x="1007.4241818181818" y="492.06154545454547" type="curve" smooth="yes"/>
      <point x="1007.4241818181818" y="619.687" type="line" smooth="yes"/>
      <point x="1007.4241818181818" y="836.7208181818182"/>
      <point x="1071.4801818181818" y="909.2237272727273"/>
      <point x="1189.050181818182" y="909.2237272727273" type="curve" smooth="yes"/>
      <point x="1305.9162727272728" y="909.2237272727273"/>
      <point x="1366.8996363636363" y="836.6090909090909"/>
      <point x="1366.8996363636363" y="617.2065454545454" type="curve"/>
      <point x="1417.8325454545454" y="638.6479090909091" type="line"/>
      <point x="951.5639090909091" y="638.6479090909091" type="line"/>
      <point x="951.5639090909091" y="454.39118181818185" type="line"/>
      <point x="1663.8544545454547" y="454.39118181818185" type="line"/>
      <point x="1663.8544545454547" y="538.4804545454546" type="line" smooth="yes"/>
      <point x="1663.8544545454547" y="916.2905454545455"/>
      <point x="1493.9215454545456" y="1111.7820909090908"/>
      <point x="1206.647909090909" y="1111.7820909090908" type="curve" smooth="yes"/>
      <point x="918.1508181818182" y="1111.7820909090908"/>
      <point x="747.6257272727273" y="909.1397272727272"/>
      <point x="747.6257272727273" y="572.1172727272727" type="curve"/>
      <point x="698.6872727272727" y="548.3351818181818" type="line"/>
      <point x="698.6872727272727" y="149.4469090909091"/>
      <point x="879.8771818181818" y="-20.815636363636365"/>
    </contour>
    <contour>
      <point x="446.5250909090909" y="-20.223454545454544" type="curve" smooth="yes"/>
      <point x="590.3407272727272" y="-20.223454545454544"/>
      <point x="728.8211818181818" y="27.256999999999998"/>
      <point x="841.0390909090909" y="169.43027272727272" type="curve"/>
      <point x="749.9498181818182" y="318.0110909090909" type="line"/>
      <point x="679.810090909091" y="229.888"/>
      <point x="605.6814545454546" y="202.74827272727273"/>
      <point x="525.5472727272727" y="202.74827272727273" type="curve" smooth="yes"/>
      <point x="428.8990909090909" y="202.74827272727273"/>
      <point x="377.6867272727273" y="245.96063636363635"/>
      <point x="377.6867272727273" y="324.79318181818184" type="curve" smooth="yes"/>
      <point x="377.6867272727273" y="404.77654545454544"/>
      <point x="426.0108181818182" y="460.72636363636366"/>
      <point x="559.0557272727273" y="460.72636363636366" type="curve" smooth="yes"/>
      <point x="757.5475454545455" y="460.72636363636366" type="line"/>
      <point x="757.5475454545455" y="638.6479090909091" type="line"/>
      <point x="528.1563636363636" y="638.6479090909091" type="line" smooth="yes"/>
      <point x="198.81009090909092" y="638.6479090909091"/>
      <point x="62.94981818181817" y="501.6088181818182"/>
      <point x="62.94981818181817" y="299.0837272727273" type="curve" smooth="yes"/>
      <point x="62.94981818181817" y="105.41336363636364"/>
      <point x="195.285" y="-20.223454545454544"/>
    </contour>
    <contour>
      <point x="698.6872727272727" y="548.3351818181818" type="line"/>
      <point x="959.1896363636364" y="542.4133636363637" type="line"/>
      <point x="959.1896363636364" y="659.6035454545455" type="line" smooth="yes"/>
      <point x="959.1896363636364" y="983.8436363636364"/>
      <point x="816.2231818181817" y="1111.486"/>
      <point x="490.78763636363635" y="1111.486" type="curve" smooth="yes"/>
      <point x="384.5250909090909" y="1111.486"/>
      <point x="265.1899090909091" y="1097.3016363636364"/>
      <point x="151.21790909090907" y="1065.3016363636364" type="curve"/>
      <point x="151.21790909090907" y="824.843909090909" type="line"/>
      <point x="249.58663636363636" y="854.8048181818182"/>
      <point x="363.03354545454545" y="868.8048181818182"/>
      <point x="445.7374545454545" y="868.8048181818182" type="curve" smooth="yes"/>
      <point x="624.4749090909091" y="868.8048181818182"/>
      <point x="698.6872727272727" y="821.3634545454545"/>
      <point x="698.6872727272727" y="669.4582727272727" type="curve" smooth="yes"/>
    </contour>
  </outline>
</glyph>
<glyph name="eth" format="2">
  <advance width="1204.413090909091"/>
  <unicode hex="00F0"/>
  <outline>
    <contour>
      <point x="602.7987272727273" y="-22.223454545454544" type="curve" smooth="yes"/>
      <point x="935.86" y="-22.223454545454544"/>
      <point x="1135.2398181818182" y="169.26254545454546"/>
      <point x="1136.6476363636364" y="605.8993636363637" type="curve" smooth="yes"/>
      <point x="1138.0554545454547" y="985.0390909090909"/>
      <point x="912.0554545454545" y="1396.6257272727273"/>
      <point x="620.6085454545455" y="1616.0" type="curve"/>
      <point x="243.341" y="1616.0" type="line"/>
      <point x="503.4862727272727" y="1426.3742727272727"/>
      <point x="700.8380909090909" y="1182.6312727272727"/>
      <point x="774.1341818181818" y="934.8882727272727" type="curve"/>
      <point x="878.3742727272727" y="941.161909090909" type="line"/>
      <point x="806.9329090909091" y="1058.743"/>
      <point x="691.8602727272728" y="1104.446909090909"/>
      <point x="573.3462727272728" y="1104.446909090909" type="curve" smooth="yes"/>
      <point x="272.77654545454544" y="1104.446909090909"/>
      <point x="69.285" y="927.1452727272728"/>
      <point x="69.285" y="544.2234545454545" type="curve" smooth="yes"/>
      <point x="69.285" y="165.74854545454545"/>
      <point x="272.77654545454544" y="-22.223454545454544"/>
    </contour>
    <contour>
      <point x="602.7987272727273" y="219.7538181818182" type="curve" smooth="yes"/>
      <point x="466.22872727272727" y="219.7538181818182"/>
      <point x="390.46881818181816" y="296.5919090909091"/>
      <point x="390.46881818181816" y="544.4078181818181" type="curve" smooth="yes"/>
      <point x="390.46881818181816" y="791.151090909091"/>
      <point x="467.63654545454546" y="868.8048181818182"/>
      <point x="602.2065454545454" y="868.8048181818182" type="curve" smooth="yes"/>
      <point x="736.7765454545455" y="868.8048181818182"/>
      <point x="813.9442727272727" y="791.151090909091"/>
      <point x="813.9442727272727" y="541.2234545454545" type="curve" smooth="yes"/>
      <point x="813.9442727272727" y="301.03327272727273"/>
      <point x="737.5921818181819" y="219.7538181818182"/>
    </contour>
    <contour>
      <point x="186.54754545454546" y="1182.5364545454545" type="line"/>
      <point x="1105.792909090909" y="1347.514" type="line"/>
      <point x="1071.4521818181818" y="1521.659" type="line"/>
      <point x="152.2068181818182" y="1356.6814545454545" type="line"/>
    </contour>
  </outline>
</glyph>
<glyph name="divide" format="2">
  <advance width="1100.0110909090909"/>
  <unicode hex="00F7"/>
  <outline>
    <contour>
      <point x="117.02245454545455" y="637.8996363636363" type="line"/>
      <point x="982.9886363636364" y="637.8996363636363" type="line"/>
      <point x="982.9886363636364" y="882.1003636363637" type="line"/>
      <point x="117.02245454545455" y="882.1003636363637" type="line"/>
    </contour>
    <contour>
      <point x="550.0055454545454" y="179.35236363636363" type="curve" smooth="yes"/>
      <point x="664.1394545454546" y="179.35236363636363"/>
      <point x="738.7091818181818" y="249.10645454545454"/>
      <point x="738.7091818181818" y="355.38563636363637" type="curve" smooth="yes"/>
      <point x="738.7091818181818" y="461.6648181818182"/>
      <point x="666.9550909090909" y="532.0110909090909"/>
      <point x="550.0055454545454" y="532.0110909090909" type="curve" smooth="yes"/>
      <point x="433.056" y="532.0110909090909"/>
      <point x="361.3019090909091" y="464.48045454545456"/>
      <point x="361.3019090909091" y="355.38563636363637" type="curve" smooth="yes"/>
      <point x="361.3019090909091" y="246.29081818181817"/>
      <point x="435.87163636363636" y="179.35236363636363"/>
    </contour>
    <contour>
      <point x="550.0055454545454" y="987.9889090909091" type="curve" smooth="yes"/>
      <point x="664.1394545454546" y="987.9889090909091"/>
      <point x="738.7091818181818" y="1057.743"/>
      <point x="738.7091818181818" y="1164.0221818181817" type="curve" smooth="yes"/>
      <point x="738.7091818181818" y="1270.3013636363637"/>
      <point x="666.9550909090909" y="1340.6476363636364"/>
      <point x="550.0055454545454" y="1340.6476363636364" type="curve" smooth="yes"/>
      <point x="433.056" y="1340.6476363636364"/>
      <point x="361.3019090909091" y="1273.117"/>
      <point x="361.3019090909091" y="1164.0221818181817" type="curve" smooth="yes"/>
      <point x="361.3019090909091" y="1054.9273636363637"/>
      <point x="435.87163636363636" y="987.9889090909091"/>
    </contour>
  </outline>
</glyph>
<glyph name="thorn" format="2">
  <advance width="1230.0834545454545"/>
  <unicode hex="00FE"/>
  <outline>
    <contour>
      <point x="118.61463636363636" y="-440.0" type="line"/>
      <point x="437.91018181818185" y="-440.0" type="line"/>
      <point x="437.91018181818185" y="-12.262545454545455" type="line"/>
      <point x="475.3850909090909" y="-16.33518181818182"/>
      <point x="520.117" y="-20.111727272727272"/>
      <point x="564.3684545454546" y="-20.111727272727272" type="curve" smooth="yes"/>
      <point x="955.4577272727272" y="-20.111727272727272"/>
      <point x="1160.7984545454547" y="186.22899999999998"/>
      <point x="1160.7984545454547" y="567.743" type="curve" smooth="yes"/>
      <point x="1160.7984545454547" y="949.3296363636364"/>
      <point x="965.5359090909092" y="1111.486"/>
      <point x="736.6085454545455" y="1111.486" type="curve" smooth="yes"/>
      <point x="612.9828181818182" y="1111.486"/>
      <point x="516.8375454545454" y="1065.3407272727272"/>
      <point x="453.061" y="986.9329090909091" type="curve"/>
      <point x="437.91018181818185" y="986.9329090909091" type="line"/>
      <point x="437.91018181818185" y="1616.0" type="line"/>
      <point x="118.61463636363636" y="1616.0" type="line"/>
    </contour>
    <contour>
      <point x="564.5528181818182" y="222.56945454545453" type="curve" smooth="yes"/>
      <point x="521.4130909090909" y="222.56945454545453"/>
      <point x="472.7929090909091" y="228.0499090909091"/>
      <point x="437.91018181818185" y="235.0108181818182" type="curve"/>
      <point x="437.91018181818185" y="779.5309090909091" type="line"/>
      <point x="483.04990909090907" y="828.3634545454545"/>
      <point x="551.2567272727273" y="849.7992727272728"/>
      <point x="615.4635454545455" y="849.7992727272728" type="curve" smooth="yes"/>
      <point x="749.0390909090909" y="849.7992727272728"/>
      <point x="839.6146363636364" y="782.1064545454545"/>
      <point x="839.6146363636364" y="542.8491818181818" type="curve" smooth="yes"/>
      <point x="839.6146363636364" y="312.145"/>
      <point x="747.7429999999999" y="222.56945454545453"/>
    </contour>
  </outline>
</glyph>
<glyph name="eogonek" format="2">
  <advance width="1109.295818181818"/>
  <unicode hex="0119"/>
  <outline>
    <contour>
      <point x="820.4075454545455" y="-442.23454545454547" type="curve" smooth="yes"/>
      <point x="890.5248181818182" y="-442.23454545454547"/>
      <point x="943.5974545454545" y="-428.64236363636365"/>
      <point x="991.5248181818182" y="-408.97754545454546" type="curve"/>
      <point x="991.5248181818182" y="-283.29054545454545" type="line"/>
      <point x="944.3404545454546" y="-304.8436363636364"/>
      <point x="901.0834545454545" y="-314.21236363636365"/>
      <point x="863.1616363636364" y="-314.21236363636365" type="curve" smooth="yes"/>
      <point x="783.5694545454546" y="-314.21236363636365"/>
      <point x="741.6085454545455" y="-275.8436363636364"/>
      <point x="741.6085454545455" y="-213.62572727272726" type="curve" smooth="yes"/>
      <point x="741.6085454545455" y="-136.257"/>
      <point x="790.0889999999999" y="-54.15081818181818"/>
      <point x="991.5248181818182" y="16.329636363636364" type="curve"/>
      <point x="991.5248181818182" y="255.37954545454545" type="line"/>
      <point x="896.2678181818183" y="233.6420909090909"/>
      <point x="800.3013636363636" y="220.45772727272725"/>
      <point x="715.374" y="220.45772727272725" type="curve" smooth="yes"/>
      <point x="463.78181818181815" y="220.45772727272725"/>
      <point x="387.6531818181818" y="290.62545454545455"/>
      <point x="387.6531818181818" y="492.06154545454547" type="curve" smooth="yes"/>
      <point x="387.6531818181818" y="612.6479090909091" type="line" smooth="yes"/>
      <point x="387.6531818181818" y="829.6817272727272"/>
      <point x="452.5974545454545" y="901.8885454545455"/>
      <point x="573.8713636363636" y="901.8885454545455" type="curve" smooth="yes"/>
      <point x="694.1452727272728" y="901.8885454545455"/>
      <point x="755.1286363636364" y="828.6817272727272"/>
      <point x="755.1286363636364" y="611.944" type="curve"/>
      <point x="806.0615454545455" y="631.6088181818182" type="line"/>
      <point x="250.80981818181817" y="631.6088181818182" type="line"/>
      <point x="250.80981818181817" y="454.39118181818185" type="line"/>
      <point x="1052.0834545454545" y="454.39118181818185" type="line"/>
      <point x="1052.0834545454545" y="537.8882727272727" type="line" smooth="yes"/>
      <point x="1052.0834545454545" y="910.771"/>
      <point x="887.7818181818182" y="1111.486"/>
      <point x="577.3909090909091" y="1111.486" type="curve" smooth="yes"/>
      <point x="252.81009090909092" y="1111.486"/>
      <point x="69.285" y="910.4749090909091"/>
      <point x="69.285" y="547.743" type="curve" smooth="yes"/>
      <point x="69.285" y="149.4469090909091"/>
      <point x="257.29054545454545" y="-20.815636363636365"/>
      <point x="670.5472727272727" y="-20.815636363636365" type="curve" smooth="yes"/>
      <point x="715.4410909090909" y="-20.815636363636365"/>
      <point x="765.8544545454545" y="-18.815636363636365"/>
      <point x="815.3795454545455" y="-14.111727272727272" type="curve"/>
      <point x="805.3404545454546" y="41.93845454545455" type="line"/>
      <point x="621.7596363636363" y="-25.73190909090909"/>
      <point x="558.9049090909091" y="-121.81009090909092"/>
      <point x="558.9049090909091" y="-234.51954545454547" type="curve" smooth="yes"/>
      <point x="558.9049090909091" y="-361.3407272727273"/>
      <point x="648.2065454545454" y="-442.23454545454547"/>
    </contour>
  </outline>
</glyph>
<glyph name="idotless" format="2">
  <advance width="557.2287272727273"/>
  <unicode hex="0131"/>
  <anchor x="278.61436363636363" y="0.0" name="bottom"/>
  <anchor x="438.6140909090909" y="0.0" name="ogonek"/>
  <anchor x="278.61436363636363" y="1200.0" name="top"/>
  <outline>
    <contour>
      <point x="118.61463636363636" y="0.0" type="line"/>
      <point x="438.6140909090909" y="0.0" type="line"/>
      <point x="438.6140909090909" y="1094.0781818181817" type="line"/>
      <point x="118.61463636363636" y="1094.0781818181817" type="line"/>
    </contour>
  </outline>
</glyph>
<glyph name="kgreenlandic" format="2">
  <advance width="1179.4352727272728"/>
  <unicode hex="0138"/>
  <outline>
    <contour>
      <point x="865.1788181818182" y="0.0" type="line"/>
      <point x="1212.7369090909092" y="0.0" type="line"/>
      <point x="801.9770000000001" y="610.1619090909091" type="line"/>
      <point x="801.9770000000001" y="526.2179090909091" type="line"/>
      <point x="1177.2173636363636" y="1094.0781818181817" type="line"/>
      <point x="836.9944545454546" y="1094.0781818181817" type="line"/>
      <point x="478.6088181818182" y="561.8547272727272" type="line"/>
    </contour>
    <contour>
      <point x="118.61463636363636" y="0.0" type="line"/>
      <point x="437.91018181818185" y="0.0" type="line"/>
      <point x="437.91018181818185" y="1094.0781818181817" type="line"/>
      <point x="118.61463636363636" y="1094.0781818181817" type="line"/>
    </contour>
    <contour>
      <point x="410.64763636363637" y="434.12309090909093" type="line"/>
      <point x="591.2958181818182" y="434.12309090909093" type="line"/>
      <point x="591.2958181818182" y="689.5863636363637" type="line"/>
      <point x="410.64763636363637" y="689.5863636363637" type="line"/>
    </contour>
  </outline>
</glyph>
<glyph name="ldot" format="2">
  <advance width="863.4291818181819"/>
  <unicode hex="0140"/>
  <outline>
    <contour>
      <point x="118.61463636363636" y="0.0" type="line"/>
      <point x="437.91018181818185" y="0.0" type="line"/>
      <point x="437.91018181818185" y="1616.0" type="line"/>
      <point x="118.61463636363636" y="1616.0" type="line"/>
    </contour>
    <contour>
      <point x="706.016090909091" y="627.2292727272727" type="curve" smooth="yes"/>
      <point x="840.5633636363636" y="627.2292727272727"/>
      <point x="903.1666363636364" y="687.8325454545454"/>
      <point x="903.1666363636364" y="793.4078181818181" type="curve" smooth="yes"/>
      <point x="903.1666363636364" y="898.983090909091"/>
      <point x="840.5633636363636" y="960.1785454545454"/>
      <point x="706.016090909091" y="960.1785454545454" type="curve" smooth="yes"/>
      <point x="571.4688181818182" y="960.1785454545454"/>
      <point x="508.86554545454544" y="898.983090909091"/>
      <point x="508.86554545454544" y="793.4078181818181" type="curve" smooth="yes"/>
      <point x="508.86554545454544" y="687.8325454545454"/>
      <point x="571.4688181818182" y="627.2292727272727"/>
    </contour>
  </outline>
</glyph>
<glyph name="Eng" format="2">
  <advance width="1543.145"/>
  <unicode hex="014A"/>
  <outline>
    <contour>
      <point x="1143.324090909091" y="-94.20654545454545" type="line"/>
      <point x="1187.8436363636363" y="365.61381818181815" type="line"/>
      <point x="459.9828181818182" y="1480.0" type="line"/>
      <point x="132.98336363636363" y="1480.0" type="line"/>
      <point x="132.98336363636363" y="0.0" type="line"/>
      <point x="439.0163636363636" y="0.0" type="line"/>
      <point x="439.0163636363636" y="1076.4923636363637" type="line"/>
      <point x="383.0834545454545" y="1076.4923636363637" type="line"/>
    </contour>
    <contour>
      <point x="1139.6254545454544" y="-471.26254545454543" type="line"/>
      <point x="1338.1225454545456" y="-259.1843636363636"/>
      <point x="1410.1616363636363" y="-64.06709090909091"/>
      <point x="1410.1616363636363" y="217.34627272727272" type="curve" smooth="yes"/>
      <point x="1410.1616363636363" y="1480.0" type="line"/>
      <point x="1104.1286363636364" y="1480.0" type="line"/>
      <point x="1104.1286363636364" y="175.85472727272727" type="line" smooth="yes"/>
      <point x="1104.1286363636364" y="-40.212363636363634"/>
      <point x="1053.9833636363637" y="-178.64818181818183"/>
      <point x="933.6537272727273" y="-334.19572727272725" type="curve"/>
    </contour>
  </outline>
</glyph>
